<svg width="112" height="113" viewBox="0 0 112 113" fill="none" xmlns="http://www.w3.org/2000/svg">
<g clip-path="url(#clip0_782_2578)">
<g clip-path="url(#clip1_782_2578)">
<path d="M37.4827 19.6211V24.831L44.9411 27.0795V17.3726L37.4827 19.6211Z" fill="#8139EA" stroke="black" stroke-miterlimit="10"/>
<path d="M50.8091 30.3701C50.8091 30.3701 50.3704 38.5963 43.0765 46.8225C40.1699 50.113 44.9959 51.7582 47.1347 50.0033C49.2735 48.2484 57.8836 38.7608 59.4192 36.1833" stroke="black" stroke-miterlimit="10"/>
<path d="M86.5657 32.7282C86.5657 20.8276 79.8202 16.3855 70.6617 16.3855C66.3841 16.3855 50.3704 16.3855 46.9154 16.3855C46.5315 16.3855 46.2573 16.6597 46.2573 17.0436V27.7377C46.2573 27.957 46.367 28.1764 46.5315 28.2861C47.8477 29.2732 54.319 31.2475 59.4192 36.2381C60.1322 36.8962 62.3258 37.1704 64.8485 37.6091C65.1776 37.6639 65.397 37.9382 65.397 38.2672V40.8996C65.397 41.2835 65.6712 41.5577 66.055 41.5577H82.2881C82.672 41.5577 82.9462 41.2835 82.9462 40.8996V38.2672C82.9462 37.7736 83.2752 37.3349 83.714 37.1155C84.8656 36.7316 86.5657 36.1832 86.5657 32.7282Z" stroke="black" stroke-miterlimit="10"/>
<path d="M86.6206 48.8515H62.271V43.861C62.271 42.5996 63.313 41.5576 64.5743 41.5576H84.3172C85.5786 41.5576 86.6206 42.5996 86.6206 43.861V48.8515Z" stroke="black" stroke-miterlimit="10"/>
<path d="M94.4628 119.707H54.3738V58.5036C54.3738 53.184 58.7062 48.8516 64.0259 48.8516H84.8107C90.1303 48.8516 94.4628 53.184 94.4628 58.5036V119.707Z" fill="#8139EA" stroke="black" stroke-miterlimit="10"/>
<path d="M37.044 82.25C37.0988 83.0177 37.3182 84.9372 37.3182 84.9372C37.3182 84.9372 37.5375 82.9629 37.5924 82.25C38.0859 82.6339 38.9634 83.4016 38.9634 83.4016C38.9634 83.4016 38.2505 82.5242 37.8666 82.0306C38.3601 81.9758 39.4021 81.9209 40.6086 81.7564C39.4021 81.5919 38.3601 81.4822 37.8666 81.4822C38.1408 81.1531 38.5247 80.6596 39.0182 80.0563C38.415 80.495 37.8666 80.9338 37.5924 81.208C37.5375 80.4402 37.3182 78.5208 37.3182 78.5208C37.3182 78.5208 37.0988 80.495 37.044 81.208C36.5504 80.8241 35.6729 80.0563 35.6729 80.0563C35.6729 80.0563 36.3859 80.9338 36.8246 81.4273C36.331 81.4822 35.289 81.537 34.0825 81.7015C35.289 81.8661 36.331 81.9758 36.8246 81.9758C36.5504 82.3048 36.1665 82.7984 35.6729 83.4016C36.2213 82.9629 36.7697 82.5242 37.044 82.25Z" fill="black"/>
<path d="M83.0559 73.3108C83.1108 74.0785 83.3301 75.998 83.3301 75.998C83.3301 75.998 83.5495 74.0237 83.6043 73.3108C84.0979 73.6946 84.9754 74.4624 84.9754 74.4624C84.9754 74.4624 84.2624 73.585 83.8785 73.0914C84.3721 73.0365 85.4141 72.9817 86.6206 72.8172C85.4141 72.6527 84.3721 72.543 83.8785 72.543C84.1527 72.2139 84.5366 71.7204 85.0302 71.1171C84.427 71.5558 83.8785 71.9946 83.6043 72.2688C83.5495 71.501 83.3301 69.5815 83.3301 69.5815C83.3301 69.5815 83.1108 71.5558 83.0559 72.2688C82.5623 71.8849 81.6849 71.1171 81.6849 71.1171C81.6849 71.1171 82.3978 71.9946 82.8366 72.4881C82.343 72.543 81.301 72.5978 80.0945 72.7623C81.301 72.9269 82.343 73.0365 82.8366 73.0365C82.5623 73.3656 82.1785 73.8592 81.6849 74.4624C82.2333 74.0237 82.7269 73.585 83.0559 73.3108Z" fill="white"/>
<path d="M36.9342 42.9834C37.0439 44.1351 37.3729 47.0965 37.3729 47.0965C37.3729 47.0965 37.702 44.0803 37.7568 42.9286C38.4698 43.5867 39.8957 44.6835 39.8957 44.6835L38.1407 42.5996C38.8537 42.5996 40.4989 42.435 42.4184 42.1608C40.5537 41.8866 38.9085 41.7769 38.1956 41.7221C38.5795 41.2834 39.2376 40.4607 39.9505 39.5284C38.9633 40.2414 38.1956 40.8995 37.702 41.3382C37.5923 40.1865 37.3181 37.2251 37.3181 37.2251C37.3181 37.2251 36.9891 40.2414 36.9342 41.393L34.7954 39.6381C34.7954 39.6381 35.8922 41.0092 36.5503 41.7221C35.8374 41.7221 34.1922 41.8866 32.2727 42.1608C34.1373 42.435 35.7825 42.5447 36.4955 42.5996C36.0568 43.0383 35.3987 43.8609 34.7406 44.7932C35.6729 44.0803 36.4406 43.4222 36.9342 42.9834Z" fill="black"/>
<path d="M14.559 71.6656C14.7236 73.8593 15.3268 79.3983 15.3268 79.3983C15.3268 79.3983 15.9301 73.6948 16.0946 71.5559C17.4656 72.7625 20.1529 74.9013 20.1529 74.9013L16.9172 70.9527C18.2882 70.9527 21.3594 70.6785 24.9789 70.1301C21.469 69.5817 18.4528 69.3623 17.0817 69.2526C17.8495 68.3751 19.056 66.8944 20.3722 65.1395C18.5625 66.5105 17.0269 67.7719 16.2043 68.4848C16.0398 66.2912 15.4365 60.7522 15.4365 60.7522C15.4365 60.7522 14.7784 66.4557 14.6687 68.5945L10.6105 65.2492C10.6105 65.2492 12.6396 67.8267 13.8461 69.1978C12.4751 69.1978 9.40395 69.472 5.78442 70.0752C9.29427 70.5688 12.3105 70.843 13.7364 70.8978C12.9686 71.7753 11.7073 73.256 10.3911 75.0109C12.2009 73.6948 13.6816 72.4334 14.559 71.6656Z" fill="black"/>
<path d="M76.8588 64.6459C70.0584 71.2269 72.3069 86.4179 60.9548 83.2371C61.1193 83.8952 61.2838 84.6081 61.3935 85.2662C61.558 86.3631 61.6677 87.4599 61.6677 88.6116C61.6677 89.5987 61.6677 90.6407 61.558 91.6278C61.558 91.8472 61.5032 92.0666 61.5032 92.2859C61.5032 92.5053 61.4483 92.7247 61.3935 92.944C61.3387 93.3828 61.2838 93.7666 61.229 94.1505C61.1193 94.9183 60.9548 95.5216 60.8451 96.07C60.7354 96.6184 60.6257 97.0023 60.5709 97.2765C60.516 97.5507 60.4612 97.6604 60.4612 97.6604C60.3515 98.1539 59.8579 98.483 59.3095 98.3733C58.816 98.2636 58.4869 97.7701 58.5966 97.2216V97.1668V97.112L58.7063 96.6732C58.7611 96.399 58.9256 96.0151 59.0353 95.5216C59.145 95.028 59.3095 94.4247 59.4741 93.7118C59.5837 93.3828 59.6386 92.9989 59.6934 92.615C59.7483 92.3956 59.7483 92.2311 59.8031 92.0117C59.858 91.7924 59.858 91.573 59.9128 91.3536C60.0225 90.4213 60.1322 89.489 60.1322 88.5567C60.187 87.5147 60.1322 86.4179 60.0225 85.3759C59.9128 84.2791 59.6934 83.1823 59.3644 82.0854C59.0353 80.9886 58.6514 79.8918 58.103 78.8498C57.6095 77.8078 57.0062 76.7658 56.2933 75.8335C55.6352 74.9012 54.9222 74.0238 54.0996 73.2011C53.7157 72.8173 53.3318 72.4334 52.8931 72.0495C52.4544 71.6656 52.0705 71.3365 51.6866 71.0623C51.3027 70.7881 50.9188 70.4042 50.4801 70.13C50.0962 69.8558 49.7123 69.5816 49.3284 69.3074C48.9445 69.0332 48.6155 68.8138 48.2316 68.5945C47.8477 68.3751 47.5735 68.1557 47.2444 67.9912C46.5863 67.6073 46.0379 67.3331 45.5992 67.0589C45.1605 66.8395 44.7766 66.6202 44.5024 66.5105C44.7766 66.6202 45.1605 66.7847 45.5992 67.0041C46.0379 67.2234 46.6412 67.4976 47.2993 67.8267C47.6283 67.9912 47.9574 68.1557 48.3413 68.3751C48.7252 68.5945 49.109 68.8138 49.4381 69.0332C49.822 69.2526 50.2607 69.5268 50.6446 69.801C51.0285 70.0752 51.4672 70.3494 51.906 70.6784C52.3447 71.0075 52.7286 71.3365 53.1673 71.6656C53.606 71.9946 54.0448 72.3785 54.4287 72.7624C55.3061 73.5302 56.1287 74.4077 56.8417 75.34C57.6095 76.2723 58.2676 77.3142 58.8708 78.3562C59.3095 79.1788 59.6934 80.0015 60.0225 80.8789C57.7191 67.9912 76.2555 64.8104 76.8588 64.6459ZM55.7997 76.3271C55.1416 75.4496 54.4287 74.5722 53.6609 73.8044C53.4415 73.5302 53.1673 73.3108 52.8931 73.0915L52.5092 72.7624L52.0705 72.3785C51.7963 72.1592 51.5769 71.9398 51.3575 71.7753C51.0285 71.5011 50.5898 71.172 50.2059 70.8978C49.822 70.6236 49.4381 70.3494 49.0542 70.13C48.6703 69.9107 48.451 69.7461 48.1767 69.5268L48.0122 69.4171C47.6832 69.1977 47.3541 68.9784 47.0251 68.8138C46.5315 68.5396 46.0928 68.3203 45.7089 68.1009L45.3798 67.9364C45.1056 67.7719 44.8314 67.6622 44.6121 67.5525L44.3379 67.388L43.954 67.1138C43.5701 66.9492 43.4056 66.5105 43.5701 66.1266C43.7346 65.7427 44.1733 65.5782 44.5572 65.7427L44.9411 65.9072L45.2153 66.0169C45.4347 66.1266 45.7089 66.2363 46.0379 66.4008L46.3121 66.5105C46.7509 66.7299 47.1896 66.9492 47.6832 67.2234C48.0122 67.388 48.3413 67.5525 48.7252 67.7718L48.8897 67.8815C49.2187 68.0461 49.5478 68.2654 49.8768 68.4299C50.2059 68.5945 50.6994 68.9235 51.0833 69.1977C51.5221 69.4719 51.9608 69.801 52.3447 70.0752C52.7286 70.3494 52.9479 70.5139 53.2221 70.7881L53.6609 71.1172L53.7157 71.172L54.0996 71.5011C54.3738 71.7753 54.7029 71.9946 54.9771 72.2688C55.8545 73.0915 56.6772 73.9689 57.4449 74.9012C57.6643 75.1754 57.8837 75.5045 58.1579 75.7787C57.7191 61.0812 43.5701 57.2972 24.595 57.4068C41.2667 68.2106 39.7312 86.9115 56.7868 78.082C56.6223 77.4788 56.1836 76.8755 55.7997 76.3271Z" fill="#529335"/>
</g>
<rect x="-5.5" y="-5" width="124" height="124" rx="62" stroke="black"/>
</g>
<rect x="0.5" y="1" width="111" height="111" rx="55.5" stroke="#462270"/>
<defs>
<clipPath id="clip0_782_2578">
<rect y="0.5" width="112" height="112" rx="56" fill="white"/>
</clipPath>
<clipPath id="clip1_782_2578">
<rect x="-6" y="-5.5" width="125" height="125" rx="62.5" fill="white"/>
</clipPath>
</defs>
</svg>
