<svg width="112" height="113" viewBox="0 0 112 113" fill="none" xmlns="http://www.w3.org/2000/svg">
<g clip-path="url(#clip0_782_2133)">
<path d="M46.441 40.165C45.3467 41.4698 44.6312 43.027 44.4208 44.7105C44.2104 46.0573 44.3366 47.4041 44.4208 48.7088C44.6312 51.6549 44.8417 54.3485 45.0521 57.2947C51.0286 58.3048 57.1312 57.9681 63.1498 57.4209C63.4023 57.3788 63.6127 57.3788 63.8232 57.2947C64.6649 56.9159 64.6228 55.7795 64.5387 54.8536C64.1178 50.7711 65.0016 46.5623 66.9376 42.9428C67.5269 41.8485 68.3265 39.9125 69.5471 40.2071C70.4309 40.4176 71.3568 40.5438 72.1986 40.8384C70.2626 43.8687 68.9158 47.2778 68.537 50.8553C68.3265 53.0438 68.4949 55.2324 68.6632 57.4209C68.7895 58.894 69.1262 59.0623 69.3366 60.4512C68.8737 60.6617 69.1262 62.0506 68.8316 62.4293C68.0319 61.4613 66.643 61.293 65.3804 61.3772C64.1599 61.4613 62.4764 61.6718 61.2979 61.2088C61.1296 60.4091 60.3299 59.7778 59.4881 59.9462C59.4881 58.6836 58.6885 58.3889 57.8046 58.2627C56.9208 58.1364 55.9528 57.8418 56.1211 59.2307C56.1211 59.399 56.2474 59.8199 56.1211 59.9462C55.8686 60.1566 55.0269 59.9462 54.6902 60.0304C54.1009 60.1987 53.8905 61.0405 54.3114 61.4613C54.4797 61.5876 54.6902 61.7139 54.7743 61.8822C54.9427 62.2189 54.6481 62.9344 54.3956 63.1869C53.5538 63.9866 52.9225 64.7442 52.3333 65.7122C51.702 66.6802 51.1127 67.6061 51.4494 68.7004C50.5235 68.5741 49.0925 68.8687 49.0504 69.8368C48.9663 71.2256 48.6296 71.4782 49.1767 72.2357C49.0504 72.5724 48.5875 73.0354 48.2508 72.9512C48.5875 72.9512 48.1245 74.2139 48.2508 74.5085C49.5134 79.9378 49.4292 79.4327 50.271 86.5876C50.3131 87.0927 49.9764 89.5758 50.3972 89.8283C51.0286 90.2492 50.0185 90.0388 50.2289 91.2593C50.6919 93.532 50.9023 95.0472 50.8181 96.3519C50.8181 96.4782 50.8602 96.6044 50.776 96.7307C50.6918 96.899 50.4393 96.857 50.271 96.8991C48.2508 97.1095 46.8198 97.0674 45.2626 96.7728C44.9259 96.6886 44.5471 96.7307 44.2525 96.6044C43.8737 96.4361 42.9477 95.8048 42.6952 95.4681C42.0639 94.6684 41.9376 94.5842 41.4326 93.4058C41.3063 93.0691 40.9696 92.8166 40.8013 92.4799C40.6329 92.1011 40.5908 91.7223 40.5488 91.3435C40.4225 90.4176 40.4225 87.724 40.4646 87.2189C40.8434 82.1684 39.7912 77.1179 39.8333 72.0253C39.8754 68.9529 39.7912 65.5017 40.3804 62.2189C40.5488 61.2509 41.138 61.3351 40.8855 60.4092C39.8333 56.3687 40.8013 52.7492 41.2642 49.2139C41.5168 47.3199 41.8535 45.426 42.6531 43.7004C43.0319 42.8166 43.4949 41.7223 44.1262 41.0068C44.8417 40.2071 45.473 40.4176 46.441 40.165Z" fill="#8139EA"/>
<path d="M74.6399 114.45C74.0085 110.746 73.9664 107.673 73.5877 103.928C73.3772 104.012 73.1668 104.096 72.9563 104.18L72.9143 104.138C72.7038 103.97 72.4092 104.012 72.1567 104.012C70.6836 104.18 69.2526 104.306 67.7796 104.475C67.6533 104.475 67.5271 104.517 67.4429 104.559C67.3166 104.643 67.2324 104.769 67.1062 104.854C66.6853 105.274 66.054 105.317 65.4648 105.317C65.086 105.317 64.7072 105.359 64.3284 105.274C63.9075 105.19 63.4867 104.98 63.0237 104.98C62.6028 104.98 62.1398 105.19 61.719 104.98C61.5927 104.896 61.4664 104.812 61.2981 104.812C61.2139 104.812 61.1297 104.854 61.0456 104.896C59.4883 105.653 57.6786 105.485 55.9951 105.274C55.7425 105.232 55.4058 105.19 55.2796 104.938C55.5742 104.433 56.0792 104.054 56.6685 103.928C55.5321 103.759 54.3116 103.507 53.1752 103.549C53.1752 103.549 53.1752 103.549 53.1331 103.549C53.0069 103.423 52.8385 103.296 52.6281 103.212C51.4917 102.707 50.7762 102.076 51.1129 100.897C51.1971 100.645 50.9866 99.9294 51.0287 99.6768C51.155 99.1718 51.1971 98.7509 51.0708 98.2038C50.9446 97.6987 50.7341 96.8991 51.2392 96.7307C47.9143 96.6465 45.0944 95.7206 41.9378 94.7947C41.6853 95.426 41.8537 96.0994 41.8537 96.7307C41.8957 98.5826 40.7594 100.308 40.7594 102.16C40.7594 102.918 40.6331 104.306 40.6752 105.064C40.7594 108.01 39.6651 110.03 39.9597 112.934C40.086 114.071 39.1601 118.111 39.9176 117.227C40.086 117.017 40.2964 117.227 40.5069 117.396C40.7173 117.564 41.1803 117.564 41.4328 117.648C45.4311 118.742 49.5136 119.29 53.6803 119.416C60.0355 119.626 66.559 119.037 72.7459 117.48C73.7139 117.227 74.5557 117.312 74.8503 116.343C74.9345 115.965 74.724 114.87 74.6399 114.45Z" fill="#8139EA"/>
<path d="M56.5 119.5C91.0178 119.5 119 91.5178 119 57C119 22.4822 91.0178 -5.5 56.5 -5.5C21.9822 -5.5 -6 22.4822 -6 57C-6 91.5178 21.9822 119.5 56.5 119.5Z" stroke="black" stroke-miterlimit="10"/>
<mask id="mask0_782_2133" style="mask-type:luminance" maskUnits="userSpaceOnUse" x="-6" y="-6" width="125" height="126">
<path d="M56.5 119.5C91.0178 119.5 119 91.5178 119 57C119 22.4822 91.0178 -5.5 56.5 -5.5C21.9822 -5.5 -6 22.4822 -6 57C-6 91.5178 21.9822 119.5 56.5 119.5Z" fill="white"/>
</mask>
<g mask="url(#mask0_782_2133)">
<path d="M7.55212 83.3047C7.59421 83.5573 7.59421 83.7677 7.55212 84.0202C6.87872 84.1044 6.24741 83.894 5.57401 83.8519C5.32148 83.8519 4.01677 83.894 4.56391 83.3468C4.98478 82.9259 5.86862 83.0943 6.37367 83.1364C6.75246 83.1785 7.17333 83.2206 7.55212 83.3047Z" fill="#FCC730"/>
<path d="M7.59433 75.6027C7.46806 76.697 7.42597 77.7912 7.51015 78.8855C6.87884 79.0539 6.28961 78.633 5.61621 78.5909C5.78456 78.2121 5.95291 77.8333 6.03709 77.4125C6.12126 77.0337 6.12126 76.6549 6.20544 76.2761C6.3317 75.6869 6.50005 74.8451 7.0051 74.4242C7.21554 74.2559 7.51015 74.2138 7.63641 74.5084C7.76268 74.803 7.63641 75.266 7.59433 75.6027Z" fill="#FCC730"/>
<path d="M22.7036 76.7391C23.0824 77.7071 23.7558 78.5488 24.1345 79.5169C24.345 80.0219 24.4292 80.6532 24.5554 81.2004C24.808 82.4209 24.345 84.1044 23.7558 85.1566C23.3349 85.9142 22.7457 86.335 22.1143 86.9664C22.0723 87.0084 22.0302 86.9243 21.946 86.9243C21.8618 86.9243 21.8197 86.9243 21.7356 86.9243C21.0201 86.7559 20.2625 86.7138 19.5049 86.6717C18.7053 86.6297 17.9477 86.5876 17.148 86.5455C16.4746 86.5034 15.7591 86.4613 15.0857 86.5034C14.0756 86.5455 13.0234 86.7559 12.0133 86.9243C11.5925 86.9664 10.9191 87.0505 10.7086 86.6717C10.5403 86.4192 10.6244 85.9142 10.6665 85.6195C10.7507 84.9461 10.9191 84.4411 10.7507 83.8098C10.7086 83.5573 10.6665 83.2627 10.877 83.1364C10.9611 83.0943 11.0874 83.0943 11.1716 83.0943C11.5083 83.0101 11.5925 82.5892 11.4662 82.2946C11.3399 82 10.877 81.7896 10.6244 81.6212C10.9191 81.2004 11.7608 81.4108 12.0554 80.9899C12.2238 80.7374 12.1396 80.4428 11.9713 80.2323C11.8029 80.0219 11.5504 79.8956 11.2978 79.7694C11.1295 79.6852 10.8349 79.7273 10.7507 79.5589C10.6665 79.4327 10.7928 79.2222 10.7928 79.096C10.7507 78.6751 10.7507 78.2963 10.7086 77.8754C10.7086 77.8334 10.7086 77.7492 10.7507 77.7492C10.7928 77.7071 10.8349 77.7071 10.877 77.7071C11.1716 77.665 11.4241 77.7071 11.7187 77.665C12.0133 77.6229 12.2659 77.3283 12.1817 77.0758C12.1396 76.9916 12.0975 76.9074 12.0133 76.8233C11.6345 76.4445 11.2137 76.1499 10.7086 75.8973C10.6244 73.9192 10.6665 71.899 10.7928 69.9209C10.877 69.963 10.9611 70.0893 11.0032 70.1734C11.4241 71.1835 11.5925 72.2357 11.8871 73.2879C12.1817 74.3401 12.6026 75.3923 13.4864 76.0657C14.2019 76.6128 15.1278 76.8233 16.0537 76.9074C17.4005 77.0337 18.579 76.6128 19.8416 76.2761C20.4308 76.1078 21.1884 75.9394 21.7356 75.8552C22.1985 75.6448 22.5352 76.3182 22.7036 76.7391Z" fill="#FCC730"/>
<path d="M72.4932 84.0203C73.7558 85.1145 75.6498 85.1566 77.0386 86.0405C77.712 86.4613 78.7221 86.756 79.2693 87.3452C79.9006 88.229 80.1531 89.1129 80.4477 90.123C80.4898 90.3334 80.3215 90.8805 80.2794 91.091C80.1952 91.3435 79.9427 91.4698 79.6902 91.596C77.0386 92.8166 74.4292 94.0792 71.7777 95.2997C71.5673 95.3839 71.3568 95.5102 71.2306 95.6364C71.0622 95.8048 70.978 95.9731 70.8939 96.1836C70.5572 96.8991 70.3467 98.2879 70.0942 99.0034C69.5891 100.645 69.2524 101.697 68.3686 103.212C67.8215 104.18 66.6009 105.19 65.4646 105.274C65.0437 105.317 64.0757 105.19 63.6548 105.106C62.6868 104.896 62.2238 104.938 61.2979 104.727C60.9191 104.643 61.2558 104.433 60.9191 104.643C60.7087 104.769 60.2457 104.854 60.0353 105.022C59.8669 105.148 59.6565 105.148 59.446 105.19C57.973 105.359 56.4999 105.317 55.0269 104.98C56.079 104.054 57.6363 104.054 58.8147 103.296C59.5302 102.791 59.6565 101.865 60.0353 101.066C60.372 100.308 60.7929 99.4243 60.9612 98.6246C59.7407 98.8351 58.8989 99.8031 57.8888 100.519C57.6363 100.687 56.9629 100.687 56.6262 100.729C56.3316 100.771 56.037 100.392 56.079 100.098C56.079 99.9714 56.3737 100.014 56.4157 99.8873C57.2575 98.4142 58.0572 96.9832 58.8989 95.5102C59.1093 95.1314 59.3619 94.7105 59.6986 94.4159C60.372 93.7846 61.1716 93.3637 62.0555 93.1953C62.8551 92.9849 63.8232 92.9849 64.6228 92.6903C65.0016 92.5219 65.1279 92.1852 65.4646 91.9327C65.8854 91.5539 66.4326 91.2172 66.7693 90.7543C68.1582 88.7341 70.2625 87.4294 71.904 85.5775C72.1565 85.325 72.1144 85.1987 72.1565 84.862C72.1565 84.5674 72.3248 84.3149 72.4932 84.0203Z" fill="#FCC730"/>
</g>
<mask id="mask1_782_2133" style="mask-type:luminance" maskUnits="userSpaceOnUse" x="-6" y="-6" width="125" height="126">
<path d="M56.5 119.5C91.0178 119.5 119 91.5178 119 57C119 22.4822 91.0178 -5.5 56.5 -5.5C21.9822 -5.5 -6 22.4822 -6 57C-6 91.5178 21.9822 119.5 56.5 119.5Z" fill="white"/>
</mask>
<g mask="url(#mask1_782_2133)">
<path d="M7.8469 193.574C7.8469 187.598 7.8469 181.663 7.8469 175.687C7.8469 164.281 7.8469 152.833 7.8469 141.428C7.8469 127.96 7.8469 114.492 7.8469 101.024C7.8469 89.1549 7.8469 77.3283 7.8469 65.4596C7.8469 58.6414 7.8469 51.8232 7.8469 44.963C7.8469 44.6684 7.8469 44.3317 7.8469 44.0371C7.8469 43.7845 7.42603 43.7845 7.42603 44.0371C7.42603 50.0135 7.42603 55.9478 7.42603 61.9243C7.42603 73.33 7.42603 84.7778 7.42603 96.1835C7.42603 109.652 7.42603 123.12 7.42603 136.588C7.42603 148.456 7.42603 160.283 7.42603 172.152C7.42603 178.97 7.42603 185.788 7.42603 192.648C7.42603 192.943 7.42603 193.279 7.42603 193.574C7.42603 193.827 7.8469 193.827 7.8469 193.574Z" fill="black"/>
<path d="M7.84694 44.1213C8.56243 43.1532 10.0355 43.3637 10.4564 44.5001C10.5405 44.7526 10.9614 44.6263 10.8772 44.3738C10.3301 42.8586 8.43616 42.6061 7.51024 43.8687C7.34189 44.1213 7.67859 44.3317 7.84694 44.1213Z" fill="black"/>
<path d="M10.3721 44.5C10.3721 50.3502 10.3721 56.2424 10.3721 62.0926C10.3721 73.2458 10.3721 84.399 10.3721 95.5522C10.3721 108.684 10.3721 121.815 10.3721 134.946C10.3721 146.52 10.3721 158.094 10.3721 169.626C10.3721 176.318 10.3721 183.01 10.3721 189.702C10.3721 189.997 10.3721 190.333 10.3721 190.628C10.3721 190.88 10.7929 190.88 10.7929 190.628C10.7929 184.778 10.7929 178.886 10.7929 173.035C10.7929 161.882 10.7929 150.729 10.7929 139.576C10.7929 126.444 10.7929 113.313 10.7929 100.182C10.7929 88.6078 10.7929 77.0337 10.7929 65.5017C10.7929 58.8098 10.7929 52.1179 10.7929 45.4259C10.7929 45.1313 10.7929 44.7946 10.7929 44.5C10.7929 44.2054 10.3721 44.2054 10.3721 44.5Z" fill="black"/>
</g>
<mask id="mask2_782_2133" style="mask-type:luminance" maskUnits="userSpaceOnUse" x="-6" y="-6" width="125" height="126">
<path d="M56.5 119.5C91.0178 119.5 119 91.5178 119 57C119 22.4822 91.0178 -5.5 56.5 -5.5C21.9822 -5.5 -6 22.4822 -6 57C-6 91.5178 21.9822 119.5 56.5 119.5Z" fill="white"/>
</mask>
<g mask="url(#mask2_782_2133)">
<path d="M65.3383 17.4798C65.2541 19.3316 64.707 21.0993 63.4022 22.4461C63.3181 22.5303 63.276 22.5303 63.1918 22.4882C63.1497 22.5724 63.1497 22.6145 63.1076 22.6987C63.0235 22.8249 62.8551 22.8249 62.7709 22.7407C62.7709 22.7407 62.7288 22.7407 62.7288 22.6987C62.6447 22.6145 62.6447 22.4882 62.7288 22.404C62.7288 22.404 62.7288 22.404 62.7709 22.3619C62.7709 22.3619 62.7709 22.3619 62.813 22.3619C62.9393 21.9832 62.8551 21.3098 62.8551 20.9731C62.8551 20.3418 62.7709 19.7525 62.6868 19.1633C62.6026 18.4057 62.5184 17.6061 62.1817 16.9327C62.0975 16.9747 61.9713 16.9747 61.8871 16.8485C61.2979 15.8805 60.2036 15.6279 59.1514 15.3754C58.0992 15.1229 57.0891 14.8704 55.9948 14.702C55.9107 14.702 52.4595 14.3653 52.5437 14.6599C52.5437 14.702 53.9746 15.1229 54.143 15.165C54.648 15.3754 55.1531 15.5438 55.6581 15.7542C55.8686 15.8384 55.8686 16.2172 55.616 16.1751C55.574 16.1751 55.4898 16.1751 55.4477 16.1751C55.4477 16.2593 55.3635 16.3434 55.2373 16.3434C53.68 16.5118 52.1228 16.7222 50.6076 17.2694C50.6918 17.3956 50.6497 17.6061 50.4393 17.6061C49.1767 17.6481 48.882 19.7104 48.84 20.5522C48.7558 21.3519 48.6716 22.1936 48.6295 23.0354C48.6295 23.2879 48.3349 23.2879 48.2507 23.1195C48.1665 23.2037 48.0403 23.2037 47.9561 23.0774C47.5352 22.3199 46.946 21.5623 46.7777 20.7205C46.6514 20.0471 46.6514 19.2475 46.7356 18.5741C46.7777 17.9848 46.946 17.4798 47.2406 16.9747C47.3248 16.8064 47.409 16.638 47.4511 16.5118C46.7356 15.5859 46.2305 14.1549 46.3568 13.0185C46.483 11.7138 47.9982 11.2929 49.1346 11.4192C49.1346 11.3771 49.1766 11.2929 49.2187 11.2508C50.6918 10.367 52.3332 9.81986 54.0588 9.73569C54.9847 9.6936 55.8686 9.86195 56.7945 9.98821C58.1413 10.2407 59.1514 10.0724 60.2878 9.48316C60.414 9.39899 60.4982 9.3569 60.6245 9.31481C60.877 9.18855 61.0874 9.52525 60.8349 9.6936C60.7086 9.77778 60.5403 9.86195 60.3719 9.94613C60.0773 10.1145 59.7827 10.3249 59.4881 10.4933C60.7086 10.83 61.9713 10.9983 63.276 10.9562C63.5706 10.9562 63.5706 11.3771 63.276 11.3771C62.9393 11.3771 62.6447 11.3771 62.35 11.3771C63.0655 11.8401 63.9073 12.1768 64.4965 12.8081C64.5386 12.8502 64.5386 12.8923 64.5386 12.9343C65.5487 14.1128 65.3804 16.0067 65.3383 17.4798Z" fill="black"/>
</g>
<mask id="mask3_782_2133" style="mask-type:luminance" maskUnits="userSpaceOnUse" x="-6" y="-6" width="125" height="126">
<path d="M56.5 119.5C91.0178 119.5 119 91.5178 119 57C119 22.4822 91.0178 -5.5 56.5 -5.5C21.9822 -5.5 -6 22.4822 -6 57C-6 91.5178 21.9822 119.5 56.5 119.5Z" fill="white"/>
</mask>
<g mask="url(#mask3_782_2133)">
<path d="M62.9393 22.9933C63.6548 22.6566 64.0756 22.8249 64.1177 23.4983C64.3702 23.835 64.3702 24.1717 64.1177 24.5084C63.9915 24.803 63.8231 25.0976 63.6968 25.3923C63.4022 25.9394 63.1497 27.0758 62.2659 26.7391C62.0133 26.6549 61.8871 27.0337 62.1396 27.1599C62.6026 27.3283 63.0234 27.4125 63.3601 26.9495C63.6548 26.5707 63.8231 26.0236 64.0335 25.6027C64.244 25.1818 64.4965 24.7609 64.6649 24.298C65.0857 23.0354 63.9073 22.0253 62.7288 22.6566C62.4763 22.7407 62.6867 23.1195 62.9393 22.9933Z" fill="black"/>
</g>
<mask id="mask4_782_2133" style="mask-type:luminance" maskUnits="userSpaceOnUse" x="-6" y="-6" width="125" height="126">
<path d="M56.5 119.5C91.0178 119.5 119 91.5178 119 57C119 22.4822 91.0178 -5.5 56.5 -5.5C21.9822 -5.5 -6 22.4822 -6 57C-6 91.5178 21.9822 119.5 56.5 119.5Z" fill="white"/>
</mask>
<g mask="url(#mask4_782_2133)">
<path d="M48.2508 22.9512C47.7036 22.7828 47.0302 22.6566 46.6514 23.1616C46.2306 23.6667 46.4831 24.3401 46.7777 24.8451C47.0302 25.266 47.3248 25.6027 47.5353 26.0236C47.7878 26.4865 47.8299 27.1178 48.1245 27.4966C48.4191 27.9175 48.84 27.9175 49.1767 27.6229C49.3871 27.4545 49.0925 27.1599 48.8821 27.3283C48.4612 27.7071 48.0824 26.2761 48.0403 26.1498C47.9141 25.8552 47.7457 25.5606 47.5353 25.266C47.3669 24.9714 47.1144 24.7188 46.946 24.4242C46.6514 23.9192 46.8198 23.4983 47.409 23.2037C47.6615 23.2037 47.872 23.2879 48.1245 23.33C48.4191 23.4141 48.5033 22.9933 48.2508 22.9512Z" fill="black"/>
</g>
<mask id="mask5_782_2133" style="mask-type:luminance" maskUnits="userSpaceOnUse" x="-6" y="-6" width="125" height="126">
<path d="M56.5 119.5C91.0178 119.5 119 91.5178 119 57C119 22.4822 91.0178 -5.5 56.5 -5.5C21.9822 -5.5 -6 22.4822 -6 57C-6 91.5178 21.9822 119.5 56.5 119.5Z" fill="white"/>
</mask>
<g mask="url(#mask5_782_2133)">
<path d="M49.0506 27.7913C49.5136 30.0219 50.3132 33.2206 52.4597 34.4411C53.4698 34.9882 54.6903 35.1987 55.8267 35.3249C57.0472 35.4512 58.6045 35.5354 59.7409 34.9882C61.0035 34.3569 61.5927 32.463 61.8873 31.1583C62.1398 29.9377 62.6028 28.2963 62.4345 27.0758C62.3924 26.8233 61.9715 26.9074 62.0136 27.2021C62.1819 28.2542 61.7611 29.601 61.5506 30.6532C61.3402 31.8738 60.8351 33.8098 59.7829 34.5253C58.857 35.1566 57.426 35.0724 56.3739 34.9882C55.2375 34.9041 53.9749 34.7357 52.9227 34.2307C50.692 33.1785 49.8924 29.9377 49.4294 27.7071C49.3873 27.4125 49.0085 27.5388 49.0506 27.7913Z" fill="black"/>
</g>
<mask id="mask6_782_2133" style="mask-type:luminance" maskUnits="userSpaceOnUse" x="-6" y="-6" width="125" height="126">
<path d="M56.5 119.5C91.0178 119.5 119 91.5178 119 57C119 22.4822 91.0178 -5.5 56.5 -5.5C21.9822 -5.5 -6 22.4822 -6 57C-6 91.5178 21.9822 119.5 56.5 119.5Z" fill="white"/>
</mask>
<g mask="url(#mask6_782_2133)">
<path d="M60.372 34.3148C60.2457 35.9141 60.3299 37.5134 60.6245 39.0707C60.6666 39.3232 61.0875 39.239 61.0454 38.9444C60.7508 37.3872 60.7087 35.872 60.835 34.2727C60.7929 34.0622 60.372 34.0622 60.372 34.3148Z" fill="black"/>
</g>
<mask id="mask7_782_2133" style="mask-type:luminance" maskUnits="userSpaceOnUse" x="-6" y="-6" width="125" height="126">
<path d="M56.5 119.5C91.0178 119.5 119 91.5178 119 57C119 22.4822 91.0178 -5.5 56.5 -5.5C21.9822 -5.5 -6 22.4822 -6 57C-6 91.5178 21.9822 119.5 56.5 119.5Z" fill="white"/>
</mask>
<g mask="url(#mask7_782_2133)">
<path d="M54.7743 19.963C54.2693 20.2155 53.7221 20.1734 53.2592 20.1734C53.0487 20.1734 52.7962 20.1734 52.5858 20.1734C52.3753 20.1313 52.1228 20.1313 51.9124 20.1313C51.7019 20.0892 51.4915 20.0892 51.239 20.0892C51.0285 20.0471 50.776 20.0471 50.5655 20.005C50.3551 19.963 50.1026 19.963 49.8501 19.9209C49.7238 19.8788 49.5975 19.8788 49.5134 19.8367C49.5134 19.8367 49.4713 19.8367 49.4713 19.7946L49.4292 19.7525H49.3871C49.3871 19.7525 49.4292 19.7946 49.4292 19.7525C49.4292 19.7525 49.4713 19.7946 49.4292 19.7946C49.4292 19.8367 49.3871 19.8367 49.3871 19.8367C49.3871 19.8367 49.345 19.8367 49.3029 19.8367C49.2608 19.8367 49.2188 19.7946 49.2188 19.7525C49.2188 19.7104 49.2188 19.6263 49.2608 19.5842C49.3029 19.5421 49.345 19.5 49.3871 19.5C49.5134 19.4158 49.5975 19.3737 49.7238 19.2896C49.9342 19.1633 50.1868 19.0791 50.4393 19.037C50.6918 18.9529 50.9443 18.9529 51.1969 18.9108C51.4494 18.9108 51.7019 18.9108 51.9544 18.9108C52.207 18.9529 52.4595 18.9949 52.712 19.037C52.9645 19.1212 53.2171 19.1633 53.4275 19.2896C53.9746 19.4158 54.3113 19.6683 54.7743 19.963Z" fill="black"/>
</g>
<mask id="mask8_782_2133" style="mask-type:luminance" maskUnits="userSpaceOnUse" x="-6" y="-6" width="125" height="126">
<path d="M56.5 119.5C91.0178 119.5 119 91.5178 119 57C119 22.4822 91.0178 -5.5 56.5 -5.5C21.9822 -5.5 -6 22.4822 -6 57C-6 91.5178 21.9822 119.5 56.5 119.5Z" fill="white"/>
</mask>
<g mask="url(#mask8_782_2133)">
<path d="M58.7727 19.7104C58.9831 19.4158 59.2357 19.2474 59.5303 19.1212C59.6565 19.0791 59.8249 19.037 59.9512 19.037C60.0774 19.037 60.2458 19.037 60.372 19.037C60.4983 19.0791 60.6666 19.0791 60.7929 19.1212C60.9192 19.1633 61.0454 19.2053 61.1717 19.3316C61.4242 19.5 61.6347 19.7104 61.803 20.0471C61.4663 20.1734 61.2138 20.2575 60.9613 20.2996C60.835 20.3417 60.7087 20.2996 60.5825 20.3417C60.4562 20.3417 60.372 20.3417 60.2458 20.3417C60.1195 20.2996 60.0353 20.2996 59.9091 20.2996C59.7828 20.2575 59.6986 20.2575 59.5724 20.1734C59.3198 20.005 59.0673 19.9208 58.7727 19.7104Z" fill="black"/>
</g>
<mask id="mask9_782_2133" style="mask-type:luminance" maskUnits="userSpaceOnUse" x="-6" y="-6" width="125" height="126">
<path d="M56.5 119.5C91.0178 119.5 119 91.5178 119 57C119 22.4822 91.0178 -5.5 56.5 -5.5C21.9822 -5.5 -6 22.4822 -6 57C-6 91.5178 21.9822 119.5 56.5 119.5Z" fill="white"/>
</mask>
<g mask="url(#mask9_782_2133)">
<path d="M59.1515 22.4883C59.1936 22.5304 59.2357 22.5304 59.1515 22.4883C59.1936 22.5304 59.1936 22.5304 59.1936 22.5724C59.1936 22.4883 59.1936 22.5304 59.1936 22.5724C59.1936 22.5304 59.1936 22.6566 59.1936 22.5724C59.1515 22.6566 59.2777 22.4883 59.1515 22.6145C58.9831 22.9091 59.0673 23.2879 59.3619 23.4984C59.6565 23.6667 60.0353 23.5825 60.2457 23.2879C60.4983 22.8671 60.4983 22.3199 60.2457 21.899C60.0774 21.6044 59.6986 21.4782 59.3619 21.6886C59.1094 21.7728 58.9831 22.1937 59.1515 22.4883Z" fill="black"/>
</g>
<mask id="mask10_782_2133" style="mask-type:luminance" maskUnits="userSpaceOnUse" x="-6" y="-6" width="125" height="126">
<path d="M56.5 119.5C91.0178 119.5 119 91.5178 119 57C119 22.4822 91.0178 -5.5 56.5 -5.5C21.9822 -5.5 -6 22.4822 -6 57C-6 91.5178 21.9822 119.5 56.5 119.5Z" fill="white"/>
</mask>
<g mask="url(#mask10_782_2133)">
<path d="M51.7863 22.5723C51.7863 22.6144 51.8283 22.6565 51.8283 22.6986C51.8283 22.6565 51.8283 22.6565 51.8283 22.6986C51.8283 22.7407 51.8283 22.7407 51.8283 22.6986C51.8283 22.7407 51.8283 22.7828 51.7863 22.8249C51.7021 23.1195 51.9125 23.5404 52.2071 23.5825C52.5438 23.6666 52.8805 23.4983 52.9647 23.1616C53.0489 22.867 53.0489 22.5303 52.9647 22.2777C52.8384 21.941 52.5438 21.7306 52.2071 21.8569C51.9125 21.8989 51.66 22.2356 51.7863 22.5723Z" fill="black"/>
</g>
<mask id="mask11_782_2133" style="mask-type:luminance" maskUnits="userSpaceOnUse" x="-6" y="-6" width="125" height="126">
<path d="M56.5 119.5C91.0178 119.5 119 91.5178 119 57C119 22.4822 91.0178 -5.5 56.5 -5.5C21.9822 -5.5 -6 22.4822 -6 57C-6 91.5178 21.9822 119.5 56.5 119.5Z" fill="white"/>
</mask>
<g mask="url(#mask11_782_2133)">
<path d="M57.2577 20.1734C56.9631 22.404 57.1314 24.6347 57.8048 26.7811C57.889 27.0336 58.3099 26.9495 58.2257 26.6549C57.5523 24.5505 57.384 22.3619 57.6786 20.1734C57.7207 19.8788 57.2998 19.9208 57.2577 20.1734Z" fill="black"/>
</g>
<mask id="mask12_782_2133" style="mask-type:luminance" maskUnits="userSpaceOnUse" x="-6" y="-6" width="125" height="126">
<path d="M56.5 119.5C91.0178 119.5 119 91.5178 119 57C119 22.4822 91.0178 -5.5 56.5 -5.5C21.9822 -5.5 -6 22.4822 -6 57C-6 91.5178 21.9822 119.5 56.5 119.5Z" fill="white"/>
</mask>
<g mask="url(#mask12_782_2133)">
<path d="M55.3635 26.4865C56.3315 26.9495 57.3837 27.1178 58.4359 26.9916C58.6884 26.9495 58.6884 26.5286 58.4359 26.5707C57.4258 26.6969 56.4999 26.5707 55.574 26.1498C55.3635 26.0235 55.1531 26.3602 55.3635 26.4865Z" fill="black"/>
</g>
<mask id="mask13_782_2133" style="mask-type:luminance" maskUnits="userSpaceOnUse" x="-6" y="-6" width="125" height="126">
<path d="M56.5 119.5C91.0178 119.5 119 91.5178 119 57C119 22.4822 91.0178 -5.5 56.5 -5.5C21.9822 -5.5 -6 22.4822 -6 57C-6 91.5178 21.9822 119.5 56.5 119.5Z" fill="white"/>
</mask>
<g mask="url(#mask13_782_2133)">
<path d="M53.8486 28.633C55.8267 28.8855 57.8048 28.8014 59.7829 28.2963C60.0355 28.2121 59.9513 27.8334 59.6567 27.8754C57.7627 28.3384 55.8688 28.4647 53.9748 28.2121C53.7223 28.1701 53.5961 28.5909 53.8486 28.633Z" fill="black"/>
</g>
<mask id="mask14_782_2133" style="mask-type:luminance" maskUnits="userSpaceOnUse" x="-6" y="-6" width="125" height="126">
<path d="M56.5 119.5C91.0178 119.5 119 91.5178 119 57C119 22.4822 91.0178 -5.5 56.5 -5.5C21.9822 -5.5 -6 22.4822 -6 57C-6 91.5178 21.9822 119.5 56.5 119.5Z" fill="white"/>
</mask>
<g mask="url(#mask14_782_2133)">
<path d="M53.3855 27.5388C53.3855 28.0859 53.2592 28.5489 53.0067 29.0118C52.8804 29.2643 53.2171 29.4748 53.3855 29.2223C53.6801 28.7172 53.8485 28.128 53.8485 27.5388C53.8064 27.2862 53.3855 27.2862 53.3855 27.5388Z" fill="black"/>
</g>
<mask id="mask15_782_2133" style="mask-type:luminance" maskUnits="userSpaceOnUse" x="-6" y="-6" width="125" height="126">
<path d="M56.5 119.5C91.0178 119.5 119 91.5178 119 57C119 22.4822 91.0178 -5.5 56.5 -5.5C21.9822 -5.5 -6 22.4822 -6 57C-6 91.5178 21.9822 119.5 56.5 119.5Z" fill="white"/>
</mask>
<g mask="url(#mask15_782_2133)">
<path d="M56.1213 30.064C56.6684 30.0219 57.1735 29.9798 57.7206 29.9377C57.9731 29.8957 57.9731 29.4748 57.7206 29.5169C57.1735 29.559 56.6684 29.601 56.1213 29.6431C55.8688 29.6852 55.8688 30.1061 56.1213 30.064Z" fill="black"/>
</g>
<mask id="mask16_782_2133" style="mask-type:luminance" maskUnits="userSpaceOnUse" x="-6" y="-6" width="125" height="126">
<path d="M56.5 119.5C91.0178 119.5 119 91.5178 119 57C119 22.4822 91.0178 -5.5 56.5 -5.5C21.9822 -5.5 -6 22.4822 -6 57C-6 91.5178 21.9822 119.5 56.5 119.5Z" fill="white"/>
</mask>
<g mask="url(#mask16_782_2133)">
<path d="M50.6499 32.6313C50.9445 34.3569 50.9024 36.1667 50.3553 37.8502C50.1869 38.3131 49.724 39.8283 49.0926 39.9546C48.8401 39.9966 48.9243 40.4175 49.2189 40.3754C49.9344 40.2492 50.3974 38.9445 50.6078 38.3973C51.3233 36.5455 51.3654 34.4832 51.0708 32.5471C51.0287 32.2525 50.6078 32.3788 50.6499 32.6313Z" fill="black"/>
</g>
<mask id="mask17_782_2133" style="mask-type:luminance" maskUnits="userSpaceOnUse" x="-6" y="-6" width="125" height="126">
<path d="M56.5 119.5C91.0178 119.5 119 91.5178 119 57C119 22.4822 91.0178 -5.5 56.5 -5.5C21.9822 -5.5 -6 22.4822 -6 57C-6 91.5178 21.9822 119.5 56.5 119.5Z" fill="white"/>
</mask>
<g mask="url(#mask17_782_2133)">
<path d="M43.6213 41.2593C41.6853 42.1011 39.623 42.8165 37.7711 43.8266C35.1617 45.2997 34.9092 49.0034 33.1836 51.2341C33.0152 51.4445 33.3098 51.7391 33.4782 51.5287C35.2038 49.3401 35.4984 45.5101 38.1078 44.1213C39.9597 43.1532 41.9378 42.4378 43.8317 41.6381C44.0842 41.5118 43.8738 41.133 43.6213 41.2593Z" fill="black"/>
</g>
<mask id="mask18_782_2133" style="mask-type:luminance" maskUnits="userSpaceOnUse" x="-6" y="-6" width="125" height="126">
<path d="M56.5 119.5C91.0178 119.5 119 91.5178 119 57C119 22.4822 91.0178 -5.5 56.5 -5.5C21.9822 -5.5 -6 22.4822 -6 57C-6 91.5178 21.9822 119.5 56.5 119.5Z" fill="white"/>
</mask>
<g mask="url(#mask18_782_2133)">
<path d="M41.0539 60.9562C42.1903 60.7879 43.495 60.6195 44.5472 60.1566C45.0943 59.9041 45.1364 59.6515 45.1364 59.0202C45.1785 56.495 44.9681 53.9697 44.7155 51.4445C44.463 49.2559 44.3368 47.0674 44.7576 44.8788C45.1364 43.069 45.7677 41.0909 47.2408 39.8704C47.4091 39.7441 47.2408 39.4495 47.0304 39.5337C46.2728 39.7862 45.5152 39.9967 44.7997 40.2913C44.0001 40.628 43.5371 41.3855 43.0741 42.101C41.3485 44.963 41.1381 48.1195 41.5169 51.3603C41.559 51.6128 41.9799 51.6128 41.9378 51.3603C41.6011 48.2458 41.7694 45.2155 43.3687 42.4377C43.8738 41.5539 44.3368 40.8384 45.3048 40.5438C45.9361 40.3334 46.5253 40.1229 47.1566 39.9125C47.0724 39.7862 47.0304 39.6599 46.9462 39.5758C44.463 41.596 43.9159 45.7206 44.0421 48.7088C44.1263 51.0657 44.5472 53.3384 44.6314 55.6953C44.6735 56.3266 44.6735 56.9579 44.6735 57.5892C44.6735 58.1785 44.7997 58.894 44.5472 59.399C44.3368 59.862 44.1263 59.862 43.6634 59.9882C43.4108 60.0724 43.1583 60.1145 42.9058 60.1987C42.2745 60.367 41.6011 60.4512 40.9697 60.5775C40.6751 60.6195 40.8014 60.9983 41.0539 60.9562Z" fill="black"/>
</g>
<mask id="mask19_782_2133" style="mask-type:luminance" maskUnits="userSpaceOnUse" x="-6" y="-6" width="125" height="126">
<path d="M56.5 119.5C91.0178 119.5 119 91.5178 119 57C119 22.4822 91.0178 -5.5 56.5 -5.5C21.9822 -5.5 -6 22.4822 -6 57C-6 91.5178 21.9822 119.5 56.5 119.5Z" fill="white"/>
</mask>
<g mask="url(#mask19_782_2133)">
<path d="M41.4327 47.3198C40.9697 49.9713 40.5067 52.6228 40.4226 55.2744C40.3805 56.6212 40.3805 57.968 40.5488 59.3148C40.633 59.9461 40.633 60.7036 41.3064 60.9983C41.5589 61.1245 41.7694 60.7457 41.5168 60.6195C40.633 60.2407 40.8434 57.8838 40.8434 57.0841C40.8013 56.074 40.8434 55.0639 40.9276 54.0538C41.096 51.8232 41.4747 49.6346 41.8535 47.4461C41.8956 47.1515 41.4747 47.0673 41.4327 47.3198Z" fill="black"/>
</g>
<mask id="mask20_782_2133" style="mask-type:luminance" maskUnits="userSpaceOnUse" x="-6" y="-6" width="125" height="126">
<path d="M56.5 119.5C91.0178 119.5 119 91.5178 119 57C119 22.4822 91.0178 -5.5 56.5 -5.5C21.9822 -5.5 -6 22.4822 -6 57C-6 91.5178 21.9822 119.5 56.5 119.5Z" fill="white"/>
</mask>
<g mask="url(#mask20_782_2133)">
<path d="M68.7894 39.9966C66.6851 42.2694 65.2541 45.005 64.6228 48.0353C64.3282 49.4663 64.2019 50.9394 64.2861 52.4125C64.3282 53.3384 64.4544 54.2643 64.4123 55.1902C64.4123 55.6953 64.3703 56.2003 64.3282 56.7054C64.3282 56.9579 64.2861 57.2525 64.2861 57.505C64.2019 57.8838 64.2861 58.2205 64.4965 58.5152C64.6649 58.3047 64.3703 58.0101 64.2019 58.2205L64.1598 58.2626C64.0756 58.3468 64.0756 58.4731 64.1598 58.5572L64.2019 58.5993C64.2861 58.6835 64.4123 58.6835 64.4965 58.5993C64.7911 58.3468 64.6649 57.8418 64.707 57.463C64.749 56.5791 64.8332 55.6532 64.8332 54.7273C64.8332 52.9175 64.5386 51.1498 64.7911 49.3401C65.212 45.931 66.7272 42.7323 69.0841 40.2071C69.2524 40.0808 68.9578 39.7862 68.7894 39.9966Z" fill="black"/>
</g>
<mask id="mask21_782_2133" style="mask-type:luminance" maskUnits="userSpaceOnUse" x="-6" y="-6" width="125" height="126">
<path d="M56.5 119.5C91.0178 119.5 119 91.5178 119 57C119 22.4822 91.0178 -5.5 56.5 -5.5C21.9822 -5.5 -6 22.4822 -6 57C-6 91.5178 21.9822 119.5 56.5 119.5Z" fill="white"/>
</mask>
<g mask="url(#mask21_782_2133)">
<path d="M69.5893 60.409C69.1263 57.042 68.4529 53.6329 68.8317 50.2239C69.2105 46.7727 70.5573 43.8265 72.367 40.9225C72.4091 40.8383 72.4091 40.67 72.2829 40.6279C71.3569 40.1228 70.0522 40.0808 69 39.9545C68.7475 39.9124 68.7475 40.3333 69 40.3754C69.9681 40.4595 71.2307 40.5016 72.0724 41.0067C72.0303 40.9225 72.0303 40.7962 71.9883 40.7121C70.2206 43.574 68.8738 46.4781 68.4529 49.8451C67.9899 53.4225 68.6633 56.9579 69.1684 60.4932C69.2526 60.7878 69.6314 60.6616 69.5893 60.409Z" fill="black"/>
</g>
<mask id="mask22_782_2133" style="mask-type:luminance" maskUnits="userSpaceOnUse" x="-6" y="-6" width="125" height="126">
<path d="M56.5 119.5C91.0178 119.5 119 91.5178 119 57C119 22.4822 91.0178 -5.5 56.5 -5.5C21.9822 -5.5 -6 22.4822 -6 57C-6 91.5178 21.9822 119.5 56.5 119.5Z" fill="white"/>
</mask>
<g mask="url(#mask22_782_2133)">
<path d="M41.8534 57.5892C41.9376 57.3788 42.2743 57.3788 42.4426 57.3367C42.7373 57.2946 43.0319 57.2946 43.2844 57.4209C43.8315 57.7576 43.4527 58.431 43.0319 58.6835C42.6531 58.894 42.0639 58.894 41.8113 58.5152C41.5588 58.1785 41.6009 57.6734 41.9797 57.463C42.2322 57.3367 42.0218 56.9579 41.7692 57.0842C41.18 57.3788 41.0538 58.2206 41.4746 58.7256C41.9376 59.3148 42.9056 59.3148 43.4527 58.894C43.9999 58.4731 44.2524 57.5892 43.6211 57.0842C43.2844 56.8317 42.8635 56.7896 42.4847 56.8737C42.148 56.9158 41.643 56.9579 41.4746 57.3367C41.3484 57.6313 41.7272 57.8418 41.8534 57.5892Z" fill="black"/>
</g>
<mask id="mask23_782_2133" style="mask-type:luminance" maskUnits="userSpaceOnUse" x="-6" y="-6" width="125" height="126">
<path d="M56.5 119.5C91.0178 119.5 119 91.5178 119 57C119 22.4822 91.0178 -5.5 56.5 -5.5C21.9822 -5.5 -6 22.4822 -6 57C-6 91.5178 21.9822 119.5 56.5 119.5Z" fill="white"/>
</mask>
<g mask="url(#mask23_782_2133)">
<path d="M65.9697 58.5994C66.2644 58.0943 67.3586 58.0101 67.4007 58.8098C67.4007 59.1465 67.064 59.399 66.8115 59.5253C66.3906 59.6936 66.2644 59.3569 66.1802 59.0202C66.1381 58.7677 65.7172 58.8519 65.7593 59.1465C65.8435 59.6095 66.1381 60.1566 66.6852 60.0303C67.1903 59.9462 67.7795 59.4832 67.8216 58.9361C67.9058 57.7155 66.1802 57.5051 65.633 58.431C65.4647 58.6414 65.8014 58.8519 65.9697 58.5994Z" fill="black"/>
</g>
<mask id="mask24_782_2133" style="mask-type:luminance" maskUnits="userSpaceOnUse" x="-6" y="-6" width="125" height="126">
<path d="M56.5 119.5C91.0178 119.5 119 91.5178 119 57C119 22.4822 91.0178 -5.5 56.5 -5.5C21.9822 -5.5 -6 22.4822 -6 57C-6 91.5178 21.9822 119.5 56.5 119.5Z" fill="white"/>
</mask>
<g mask="url(#mask24_782_2133)">
<path d="M55.069 57.6313C51.702 57.8838 48.4191 57.6313 45.0942 57.1262C44.8417 57.0842 44.7154 57.505 44.968 57.5471C48.335 58.0522 51.6599 58.3468 55.069 58.0943C55.3636 58.0101 55.3636 57.5892 55.069 57.6313Z" fill="black"/>
</g>
<mask id="mask25_782_2133" style="mask-type:luminance" maskUnits="userSpaceOnUse" x="-6" y="-6" width="125" height="126">
<path d="M56.5 119.5C91.0178 119.5 119 91.5178 119 57C119 22.4822 91.0178 -5.5 56.5 -5.5C21.9822 -5.5 -6 22.4822 -6 57C-6 91.5178 21.9822 119.5 56.5 119.5Z" fill="white"/>
</mask>
<g mask="url(#mask25_782_2133)">
<path d="M40.6329 60.6616C38.4444 68.6583 40.5909 76.9074 40.4646 85.0303C40.4225 88.3552 39.9175 92.1852 42.1902 94.963C44.2946 97.5724 47.872 97.4041 50.9023 97.0674C51.1548 97.0253 51.1548 96.6044 50.9023 96.6465C47.5774 96.9832 43.7474 97.1094 41.8956 93.7845C40.0858 90.5859 40.9696 86.5455 40.8855 83.0101C40.7171 75.6027 39.0757 68.069 41.0538 60.7458C41.0959 60.4933 40.675 60.4091 40.6329 60.6616Z" fill="black"/>
</g>
<mask id="mask26_782_2133" style="mask-type:luminance" maskUnits="userSpaceOnUse" x="-6" y="-6" width="125" height="126">
<path d="M56.5 119.5C91.0178 119.5 119 91.5178 119 57C119 22.4822 91.0178 -5.5 56.5 -5.5C21.9822 -5.5 -6 22.4822 -6 57C-6 91.5178 21.9822 119.5 56.5 119.5Z" fill="white"/>
</mask>
<g mask="url(#mask26_782_2133)">
<path d="M50.0184 73.2037C49.2609 72.1936 48.9242 70.5522 49.7659 69.4158C50.4814 68.4057 51.9965 69.1633 52.9646 69.5421C55.1531 70.3838 57.1733 71.6465 58.941 73.2458C59.1514 73.4142 59.446 73.1195 59.2356 72.9512C56.9208 70.8468 54.1851 69.2896 51.1548 68.4899C50.8181 68.4057 50.3972 68.2374 50.0605 68.3636C49.6817 68.532 49.345 69.2475 49.2188 69.6263C48.7137 70.8889 48.9242 72.2778 49.7238 73.3721C49.808 73.6246 50.1868 73.4142 50.0184 73.2037Z" fill="black"/>
</g>
<mask id="mask27_782_2133" style="mask-type:luminance" maskUnits="userSpaceOnUse" x="-6" y="-6" width="125" height="126">
<path d="M56.5 119.5C91.0178 119.5 119 91.5178 119 57C119 22.4822 91.0178 -5.5 56.5 -5.5C21.9822 -5.5 -6 22.4822 -6 57C-6 91.5178 21.9822 119.5 56.5 119.5Z" fill="white"/>
</mask>
<g mask="url(#mask27_782_2133)">
<path d="M51.66 68.7846C52.2913 67.6061 54.3957 68.6583 55.1111 69.0371C55.9108 69.5001 56.7105 69.963 57.468 70.5102C59.1095 71.6465 60.6667 72.9091 62.0135 74.4243C62.0556 74.298 62.0977 74.1718 62.1819 74.0455C61.8452 74.0455 61.4664 74.0455 61.1297 74.0455C60.8771 74.0455 60.8771 74.4664 61.1297 74.4664C61.4664 74.4664 61.8452 74.4664 62.1819 74.4664C62.3923 74.4664 62.4344 74.2559 62.3502 74.0876C60.6246 72.1095 58.4781 70.5102 56.2475 69.1213C55.1532 68.4479 52.2913 66.7223 51.3233 68.4899C51.197 68.8266 51.5337 69.0371 51.66 68.7846Z" fill="black"/>
</g>
<mask id="mask28_782_2133" style="mask-type:luminance" maskUnits="userSpaceOnUse" x="-6" y="-6" width="125" height="126">
<path d="M56.5 119.5C91.0178 119.5 119 91.5178 119 57C119 22.4822 91.0178 -5.5 56.5 -5.5C21.9822 -5.5 -6 22.4822 -6 57C-6 91.5178 21.9822 119.5 56.5 119.5Z" fill="white"/>
</mask>
<g mask="url(#mask28_782_2133)">
<path d="M33.1413 51.4024C32.8046 55.99 30.4477 60.2829 29.0168 64.6179C28.3434 66.7223 27.67 68.8267 26.8282 70.8889C26.3652 72.0253 25.9023 73.1196 25.3551 74.1718C24.9343 74.9293 24.2188 76.8654 23.1245 76.5287C22.872 76.4445 22.7457 76.8654 22.9982 76.9495C23.5454 77.1179 24.0083 77.1179 24.3871 76.6549C25.1026 75.8132 25.6077 74.5506 26.0706 73.5825C27.1649 71.3098 28.0067 68.8687 28.7642 66.4698C29.606 63.9445 30.4898 61.4192 31.4578 58.9361C32.4259 56.495 33.3097 54.0118 33.478 51.3603C33.6043 51.1499 33.1834 51.1499 33.1413 51.4024Z" fill="black"/>
</g>
<mask id="mask29_782_2133" style="mask-type:luminance" maskUnits="userSpaceOnUse" x="-6" y="-6" width="125" height="126">
<path d="M56.5 119.5C91.0178 119.5 119 91.5178 119 57C119 22.4822 91.0178 -5.5 56.5 -5.5C21.9822 -5.5 -6 22.4822 -6 57C-6 91.5178 21.9822 119.5 56.5 119.5Z" fill="white"/>
</mask>
<g mask="url(#mask29_782_2133)">
<path d="M10.7087 70.005C11.2559 70.5942 11.298 71.8569 11.5505 72.6145C11.803 73.3299 11.9714 74.0875 12.3081 74.7609C12.771 75.6868 13.6128 76.3182 14.5808 76.6128C15.8434 76.9916 17.2323 76.8232 18.537 76.6128C19.4209 76.4865 20.3047 76.1498 21.1885 75.9815C21.904 75.8552 21.9882 75.9394 22.4091 76.5707C22.6616 76.9074 22.872 77.2441 23.0404 77.5808C23.9663 79.2222 24.6818 81.4107 24.2189 83.3047C23.9663 84.2727 23.5034 85.1565 22.872 85.9141C22.7037 86.1245 22.4512 86.4192 22.2407 86.5875C21.7778 86.9242 21.399 86.7559 20.8939 86.6717C19.1263 86.3771 17.3165 86.335 15.5067 86.4192C14.665 86.4612 13.8653 86.5033 13.0236 86.6296C12.2239 86.7559 11.7188 86.8821 10.9192 86.6717C10.6667 86.5875 10.5404 87.0084 10.7929 87.0926C11.5505 87.303 12.0135 87.2609 12.7289 87.1347C14.1599 86.8821 15.6751 86.84 17.1061 86.84C18.537 86.84 20.0101 86.9242 21.399 87.2609C22.1145 87.4293 22.2407 87.2188 22.7458 86.6717C24.1768 85.1144 24.9764 83.2626 24.6818 81.1161C24.3451 78.9697 23.3771 77.0336 21.9882 75.3922C21.9461 75.3501 21.8619 75.3081 21.7778 75.3501C19.505 76.1498 16.138 77.202 13.9074 75.8973C12.6448 75.1818 12.3502 73.7929 11.9293 72.4882C11.6347 71.6044 11.6347 70.4259 10.9613 69.7104C10.835 69.5 10.5404 69.8367 10.7087 70.005Z" fill="black"/>
</g>
<mask id="mask30_782_2133" style="mask-type:luminance" maskUnits="userSpaceOnUse" x="-6" y="-6" width="125" height="126">
<path d="M56.5 119.5C91.0178 119.5 119 91.5178 119 57C119 22.4822 91.0178 -5.5 56.5 -5.5C21.9822 -5.5 -6 22.4822 -6 57C-6 91.5178 21.9822 119.5 56.5 119.5Z" fill="white"/>
</mask>
<g mask="url(#mask30_782_2133)">
<path d="M7.29949 74.3822C5.82643 74.5926 4.2271 74.9293 3.34326 76.1078C2.79612 76.8233 2.66986 77.7913 2.5436 78.6751C2.50151 79.096 2.41734 79.5169 2.37525 79.9378C2.24899 80.9899 2.16481 82.0421 2.37525 83.0943C2.5436 83.8098 2.92239 85.4091 3.63787 85.7458C4.26919 86.0405 5.44764 85.9142 6.12104 85.9142C7.04697 85.9142 7.97289 85.83 8.89882 85.7038C9.65639 85.5775 10.414 85.4091 11.0032 84.9462C11.0874 84.862 11.1715 84.7778 11.1295 84.6516C11.0874 84.5674 11.0032 84.5674 10.919 84.5674C8.77255 84.2728 6.584 84.0203 4.43754 83.7256" fill="#FCC730"/>
<path d="M7.25751 74.1718C5.32148 74.4664 3.30128 75.0135 2.66997 77.1179C2.03865 79.2223 1.78613 81.8738 2.41744 84.0203C2.58579 84.6516 2.83832 85.4512 3.42754 85.83C4.10094 86.3351 5.15313 86.1667 5.9528 86.1246C6.92081 86.0825 11.34 86.2509 11.3821 84.6516C11.3821 84.5674 11.34 84.4832 11.2979 84.4832C10.4562 84.1044 9.27771 84.1465 8.35179 84.0203C7.04707 83.8519 5.78445 83.6836 4.47973 83.5152C4.22721 83.4731 4.22721 83.894 4.47973 83.9361C5.70027 84.1044 6.92081 84.2307 8.14135 84.399C8.73057 84.4832 9.36189 84.5674 9.95111 84.6516C11.0033 84.7778 10.6245 85.0724 9.86694 85.325C8.68849 85.6617 7.42586 85.7038 6.20532 85.7458C5.15313 85.7879 3.84842 86.0405 3.25919 84.9462C2.16492 83.0102 2.54371 80.6533 2.83832 78.591C3.00667 77.3704 3.34337 76.1499 4.47973 75.4765C5.36357 74.9293 6.41576 74.761 7.42586 74.6347C7.6363 74.5506 7.51004 74.1297 7.25751 74.1718Z" fill="black"/>
<path d="M4.43767 83.2206C6.66831 83.1785 8.89895 83.0944 11.0875 83.0523C11.2979 83.0523 11.5505 83.0102 11.6767 82.8418C11.9292 82.5472 11.5084 82.1264 11.1717 81.958C10.5824 81.7055 9.95114 81.6634 9.31982 81.5792C7.51006 81.3688 5.74238 81.1583 3.93262 80.99" fill="#FCC730"/>
<path d="M4.43761 83.4311C6.37364 83.389 8.30966 83.3469 10.2878 83.2627C10.7928 83.2627 12.0134 83.4311 11.9713 82.5893C11.9292 81.6213 10.3299 81.4951 9.69855 81.4109C7.80461 81.1584 5.86858 80.99 3.93256 80.7796C3.68003 80.7375 3.68003 81.1584 3.93256 81.2004C5.02683 81.3267 6.12111 81.453 7.21539 81.5792C7.76252 81.6213 8.30966 81.7055 8.8568 81.7476C9.57229 81.8318 10.5824 81.7476 10.9191 82.421C11.1716 83.0102 10.9612 82.7998 10.4561 82.8419C10.1615 82.8419 9.90899 82.8419 9.61438 82.8839C9.06724 82.8839 8.5201 82.926 7.93087 82.926C6.75242 82.9681 5.57397 82.9681 4.39552 83.0102C4.18508 83.0102 4.18508 83.4311 4.43761 83.4311Z" fill="black"/>
<path d="M4.35337 80.9057H4.31128C4.98468 80.9899 5.65808 81.0741 6.33148 81.1583C8.09916 81.3687 9.86684 81.5791 11.5924 81.2004C11.9712 81.1162 12.4342 80.8637 12.3921 80.4849C12.35 80.1903 11.9712 80.0219 11.6766 79.9798C9.27761 79.3906 6.83653 79.0118 4.39545 78.7593" fill="#FCC730"/>
<path d="M4.43762 80.6953H4.39553C4.39553 80.8215 4.35344 80.9899 4.35344 81.1162C6.24738 81.3687 8.2255 81.7054 10.1194 81.6212C10.7928 81.5791 12.3922 81.6212 12.6026 80.6953C12.813 79.601 10.7507 79.5168 10.1194 79.3906C8.2255 79.0118 6.28947 78.7172 4.39553 78.5067C4.14301 78.4647 4.14301 78.8855 4.39553 78.9276C5.74233 79.0539 7.08913 79.2643 8.39385 79.4747C8.98307 79.601 9.61439 79.6852 10.2036 79.8114C10.6245 79.8956 12.4763 80.064 11.5504 80.9478C11.2558 81.2424 10.1615 81.1582 9.74065 81.1582C9.15142 81.1582 8.60428 81.1162 8.01506 81.0741C6.79452 80.9478 5.53189 80.7795 4.31136 80.6532C4.05883 80.6111 4.01674 81.032 4.26927 81.0741H4.31136C4.56388 81.1582 4.69014 80.7374 4.43762 80.6953Z" fill="black"/>
<path d="M4.85859 78.2543C4.85859 78.2964 4.77441 78.2964 4.77441 78.2543C4.77441 78.2122 4.85859 78.1701 4.90068 78.1701C7.25758 77.623 9.69866 77.7492 12.0976 77.4125C12.3081 77.3704 12.6448 77.2442 12.5606 77.0337C12.5185 76.9496 12.4764 76.9075 12.3923 76.8654C10.3721 75.5607 7.8468 75.5607 5.44781 75.6028C5.53199 75.6028 5.61616 75.6028 5.74243 75.5607" fill="#FCC730"/>
<path d="M4.73229 78.0859C4.77438 78.0859 4.85855 78.0859 4.90064 78.0859C4.90064 78.2122 4.85855 78.2963 4.85855 78.4226C5.32152 78.0859 6.37371 78.0859 6.87876 78.0438C7.29963 78.0017 7.67842 77.9596 8.09929 77.9596C9.02522 77.8755 9.99323 77.8334 10.9192 77.7492C11.34 77.7071 12.9394 77.7913 12.771 76.9495C12.6447 76.2341 10.5404 75.7711 9.99323 75.6448C8.52017 75.3081 7.00502 75.3502 5.48987 75.3502C5.48987 75.4765 5.48987 75.6448 5.48987 75.7711C5.57404 75.7711 5.65822 75.7711 5.78448 75.729C6.037 75.6869 6.037 75.266 5.78448 75.3081C5.7003 75.3081 5.61613 75.3081 5.48987 75.3502C5.23734 75.3923 5.19525 75.7711 5.48987 75.7711C6.71041 75.7711 7.97303 75.729 9.19357 75.9394C9.69862 76.0236 10.2037 76.1078 10.6666 76.2761C11.1717 76.4445 12.6447 76.8233 11.5084 77.2862C11.0033 77.4967 10.2458 77.4125 9.69862 77.4546C9.02522 77.4967 8.35182 77.5388 7.67842 77.5809C6.83667 77.665 5.3636 77.6229 4.64812 78.0859C4.52185 78.1701 4.52185 78.2963 4.60603 78.4226L4.64812 78.4647C4.6902 78.5068 4.81647 78.5489 4.90064 78.5068L4.94273 78.4647C5.15317 78.2543 4.94273 77.9176 4.73229 78.0859Z" fill="black"/>
</g>
<mask id="mask31_782_2133" style="mask-type:luminance" maskUnits="userSpaceOnUse" x="-6" y="-6" width="125" height="126">
<path d="M56.5 119.5C91.0178 119.5 119 91.5178 119 57C119 22.4822 91.0178 -5.5 56.5 -5.5C21.9822 -5.5 -6 22.4822 -6 57C-6 91.5178 21.9822 119.5 56.5 119.5Z" fill="white"/>
</mask>
<g mask="url(#mask31_782_2133)">
<path d="M46.9883 40.3334C47.3671 40.2913 48.3351 39.9546 48.6718 40.1229C48.7139 40.1229 48.9243 40.5859 49.0927 40.7543C49.3452 41.0489 49.6398 41.3014 49.9765 41.5118C51.4917 42.5219 53.3435 42.564 55.0691 42.4378C57.1314 42.2694 59.4883 42.0169 61.3401 41.0489C62.224 40.5859 63.8233 39.197 63.1078 38.0186C63.0236 38.1027 62.8974 38.229 62.8132 38.3132C64.7913 39.2391 67.2745 40.7122 69.5472 40.4176C69.7997 40.3755 69.7997 39.9546 69.5472 39.9967C67.3587 40.2913 64.9176 38.8603 63.0236 37.9765C62.8553 37.8923 62.6028 38.0607 62.729 38.2711C63.0657 38.8603 62.3923 39.7862 61.9715 40.165C61.5506 40.5438 60.9614 40.7963 60.4142 41.0068C58.9412 41.5118 57.3418 41.8064 55.8267 41.9748C53.3435 42.2694 50.3553 42.2694 48.9243 39.8283C48.8822 39.7442 48.7981 39.7021 48.6718 39.7442C48.1247 39.8283 47.5354 39.9125 46.9883 39.9546C46.6937 39.9546 46.6937 40.3755 46.9883 40.3334Z" fill="black"/>
</g>
<mask id="mask32_782_2133" style="mask-type:luminance" maskUnits="userSpaceOnUse" x="-6" y="-6" width="125" height="126">
<path d="M56.5 119.5C91.0178 119.5 119 91.5178 119 57C119 22.4822 91.0178 -5.5 56.5 -5.5C21.9822 -5.5 -6 22.4822 -6 57C-6 91.5178 21.9822 119.5 56.5 119.5Z" fill="white"/>
</mask>
<g mask="url(#mask32_782_2133)">
<path d="M60.8771 38.734C61.5505 38.8182 62.2239 38.8603 62.8973 38.9024C63.1499 38.9024 63.1499 38.4815 62.8973 38.4815C62.2239 38.4394 61.5505 38.3973 60.8771 38.3131C60.6246 38.271 60.6246 38.6919 60.8771 38.734Z" fill="black"/>
</g>
<mask id="mask33_782_2133" style="mask-type:luminance" maskUnits="userSpaceOnUse" x="-6" y="-6" width="125" height="126">
<path d="M56.5 119.5C91.0178 119.5 119 91.5178 119 57C119 22.4822 91.0178 -5.5 56.5 -5.5C21.9822 -5.5 -6 22.4822 -6 57C-6 91.5178 21.9822 119.5 56.5 119.5Z" fill="white"/>
</mask>
<g mask="url(#mask33_782_2133)">
<path d="M71.9041 41.638C75.4816 40.4175 78.4277 44.7104 79.9429 47.3199C81.4159 49.8451 82.7206 52.4124 84.6567 54.6431C86.7189 57 89.1179 59.1044 90.6752 61.8821C91.559 63.4394 91.8957 65.0387 92.2324 66.7643C92.527 68.4057 92.99 69.8367 93.8317 71.2677C94.926 73.0774 96.357 75.0135 96.0624 77.2862C95.8099 79.3064 93.8317 80.1902 92.9479 81.8737C92.8216 82.1263 93.2004 82.3367 93.3267 82.0842C94.0843 80.6953 95.6415 79.8535 96.2728 78.3384C96.862 76.8232 96.4412 75.1397 95.7678 73.7508C94.8839 71.899 93.5371 70.3417 92.99 68.3215C92.527 66.5118 92.4008 64.6599 91.6853 62.9343C90.3806 59.904 87.8974 57.6313 85.7509 55.2323C84.5725 53.9276 83.4782 52.5387 82.5523 50.9815C81.6684 49.5084 80.8688 47.9512 79.9429 46.436C78.3435 43.8687 75.3553 40.0387 71.82 41.2592C71.5674 41.3013 71.6516 41.7222 71.9041 41.638Z" fill="black"/>
</g>
<mask id="mask34_782_2133" style="mask-type:luminance" maskUnits="userSpaceOnUse" x="-6" y="-6" width="125" height="126">
<path d="M56.5 119.5C91.0178 119.5 119 91.5178 119 57C119 22.4822 91.0178 -5.5 56.5 -5.5C21.9822 -5.5 -6 22.4822 -6 57C-6 91.5178 21.9822 119.5 56.5 119.5Z" fill="white"/>
</mask>
<g mask="url(#mask34_782_2133)">
<path d="M78.6801 70.005C80.1532 71.436 81.2054 73.1616 81.7946 75.1397C81.8788 75.3922 82.2576 75.308 82.2155 75.0134C81.6263 72.9511 80.532 71.1834 78.9747 69.6683C78.8064 69.542 78.4697 69.8366 78.6801 70.005Z" fill="black"/>
</g>
<mask id="mask35_782_2133" style="mask-type:luminance" maskUnits="userSpaceOnUse" x="-6" y="-6" width="125" height="126">
<path d="M56.5 119.5C91.0178 119.5 119 91.5178 119 57C119 22.4822 91.0178 -5.5 56.5 -5.5C21.9822 -5.5 -6 22.4822 -6 57C-6 91.5178 21.9822 119.5 56.5 119.5Z" fill="white"/>
</mask>
<g mask="url(#mask35_782_2133)">
<path d="M80.7425 90.1229C83.9833 88.7761 87.0977 87.1347 90.0018 85.1986C91.3486 84.3148 92.6954 83.3468 93.958 82.2946C94.7997 81.6212 95.9782 80.7374 95.4311 79.5168C95.3048 79.2643 94.9681 79.4747 95.0523 79.7273C95.6415 81.032 92.7375 82.7155 91.8957 83.3047C90.7593 84.1465 89.5388 84.9461 88.3183 85.7037C85.8351 87.2188 83.2257 88.5656 80.5742 89.702C80.4058 89.8283 80.49 90.2071 80.7425 90.1229Z" fill="black"/>
</g>
<mask id="mask36_782_2133" style="mask-type:luminance" maskUnits="userSpaceOnUse" x="-6" y="-6" width="125" height="126">
<path d="M56.5 119.5C91.0178 119.5 119 91.5178 119 57C119 22.4822 91.0178 -5.5 56.5 -5.5C21.9822 -5.5 -6 22.4822 -6 57C-6 91.5178 21.9822 119.5 56.5 119.5Z" fill="white"/>
</mask>
<g mask="url(#mask36_782_2133)">
<path d="M81.3317 75.4764C79.5641 79.1801 75.1028 80.5269 73.4193 84.2727C73.5455 84.3148 73.6718 84.3569 73.7981 84.399C73.7981 84.3148 73.7981 84.2306 73.7981 84.1465C73.7981 83.8939 73.3772 83.8939 73.3772 84.1465C73.3772 84.2306 73.3772 84.3148 73.3772 84.399C73.3772 84.5674 73.6718 84.6936 73.756 84.5253C75.4395 80.7795 79.9008 79.4327 81.6684 75.729C81.8368 75.4344 81.458 75.2239 81.3317 75.4764Z" fill="black"/>
</g>
<mask id="mask37_782_2133" style="mask-type:luminance" maskUnits="userSpaceOnUse" x="-6" y="-6" width="125" height="126">
<path d="M56.5 119.5C91.0178 119.5 119 91.5178 119 57C119 22.4822 91.0178 -5.5 56.5 -5.5C21.9822 -5.5 -6 22.4822 -6 57C-6 91.5178 21.9822 119.5 56.5 119.5Z" fill="white"/>
</mask>
<g mask="url(#mask37_782_2133)">
<path d="M80.5741 91.2592C81.6684 86.6717 75.8182 85.0724 72.5354 83.9781C72.2829 83.8939 72.1566 84.3148 72.4091 84.399C74.2189 84.9882 76.0287 85.7037 77.7542 86.6296C79.5219 87.5555 80.6583 89.1128 80.1532 91.2172C80.0691 91.3855 80.4899 91.5118 80.5741 91.2592Z" fill="black"/>
</g>
<mask id="mask38_782_2133" style="mask-type:luminance" maskUnits="userSpaceOnUse" x="-6" y="-6" width="125" height="126">
<path d="M56.5 119.5C91.0178 119.5 119 91.5178 119 57C119 22.4822 91.0178 -5.5 56.5 -5.5C21.9822 -5.5 -6 22.4822 -6 57C-6 91.5178 21.9822 119.5 56.5 119.5Z" fill="white"/>
</mask>
<g mask="url(#mask38_782_2133)">
<path d="M72.0304 84.5674C71.0624 86.1246 69.7577 87.3451 68.4109 88.6078C67.1061 89.8283 65.9698 91.133 64.7492 92.3956C64.5809 92.6061 64.8755 92.9007 65.0439 92.6903C66.3486 91.3435 67.5691 89.9546 68.958 88.6499C70.2206 87.4714 71.4412 86.2509 72.3671 84.7778C72.5354 84.5253 72.1987 84.3148 72.0304 84.5674Z" fill="black"/>
</g>
<mask id="mask39_782_2133" style="mask-type:luminance" maskUnits="userSpaceOnUse" x="-6" y="-6" width="125" height="126">
<path d="M56.5 119.5C91.0178 119.5 119 91.5178 119 57C119 22.4822 91.0178 -5.5 56.5 -5.5C21.9822 -5.5 -6 22.4822 -6 57C-6 91.5178 21.9822 119.5 56.5 119.5Z" fill="white"/>
</mask>
<g mask="url(#mask39_782_2133)">
<path d="M65.2121 92.3535C63.1077 92.6482 60.7508 93.0269 59.1515 94.6263C57.5522 96.2256 57.2575 98.6667 55.6161 100.266C55.532 100.35 55.532 100.476 55.6161 100.561C57.468 102.244 59.3198 99.2138 61.0033 98.8771C60.9192 98.7929 60.835 98.7088 60.7508 98.6246C60.2037 100.14 59.7407 102.623 58.1835 103.423C57.005 104.012 55.574 103.843 54.8586 105.148C54.8165 105.274 54.8586 105.443 54.9848 105.443C56.5421 105.695 58.2256 105.99 59.7828 105.569C61.5084 105.106 62.2239 103.591 63.6969 102.749C63.9495 102.623 63.739 102.244 63.4865 102.37C62.1818 103.128 61.4663 104.559 59.9932 105.064C58.436 105.569 56.7104 105.317 55.1111 105.022C55.1532 105.106 55.1953 105.232 55.2373 105.317C56.0791 103.801 58.3518 104.306 59.404 102.918C60.2878 101.739 60.6666 100.056 61.1717 98.7088C61.2138 98.5404 61.0454 98.4142 60.9192 98.4562C59.5303 98.7509 58.7727 100.098 57.4259 100.476C57.1313 100.561 56.7946 100.603 56.5 100.561C56.1212 100.434 56.037 100.308 56.3737 100.098C56.4158 99.9714 56.6683 99.7189 56.7525 99.5926C57.1734 98.9613 57.5101 98.2879 57.8047 97.6145C58.4781 96.1414 59.1936 94.7946 60.6666 93.9529C62.0976 93.1532 63.739 92.9007 65.3384 92.6903C65.5909 92.7323 65.5067 92.3115 65.2121 92.3535Z" fill="black"/>
</g>
<mask id="mask40_782_2133" style="mask-type:luminance" maskUnits="userSpaceOnUse" x="-6" y="-6" width="125" height="126">
<path d="M56.5 119.5C91.0178 119.5 119 91.5178 119 57C119 22.4822 91.0178 -5.5 56.5 -5.5C21.9822 -5.5 -6 22.4822 -6 57C-6 91.5178 21.9822 119.5 56.5 119.5Z" fill="white"/>
</mask>
<g mask="url(#mask40_782_2133)">
<path d="M61.2559 104.896C62.8131 106.074 64.665 104.348 65.8855 103.465C66.0959 103.296 65.8855 102.96 65.6751 103.086C64.6229 103.885 62.8131 105.569 61.4663 104.517C61.2559 104.348 61.0454 104.727 61.2559 104.896Z" fill="black"/>
</g>
<mask id="mask41_782_2133" style="mask-type:luminance" maskUnits="userSpaceOnUse" x="-6" y="-6" width="125" height="126">
<path d="M56.5 119.5C91.0178 119.5 119 91.5178 119 57C119 22.4822 91.0178 -5.5 56.5 -5.5C21.9822 -5.5 -6 22.4822 -6 57C-6 91.5178 21.9822 119.5 56.5 119.5Z" fill="white"/>
</mask>
<g mask="url(#mask41_782_2133)">
<path d="M62.9395 105.022C63.5708 105.569 64.4546 105.779 65.2543 105.485C65.7173 105.316 66.054 104.938 66.3907 104.559C66.6011 104.348 67.022 104.054 66.9799 103.675C66.9799 103.549 66.8957 103.465 66.7694 103.465C66.6432 103.465 66.559 103.507 66.5169 103.591C66.4748 103.675 66.4748 103.801 66.559 103.843C66.559 103.843 66.559 103.843 66.6011 103.885C66.8115 104.096 67.1061 103.759 66.8957 103.591C66.8957 103.591 66.8957 103.591 66.8536 103.549C66.8536 103.633 66.8957 103.717 66.8957 103.801C66.8536 103.843 66.8115 103.843 66.8115 103.885C66.7274 103.801 66.6853 103.759 66.6011 103.675C66.6432 104.012 65.5068 104.896 65.2964 105.022C64.623 105.359 63.8233 105.19 63.2762 104.727C63.0237 104.559 62.729 104.853 62.9395 105.022Z" fill="black"/>
</g>
<mask id="mask42_782_2133" style="mask-type:luminance" maskUnits="userSpaceOnUse" x="-6" y="-6" width="125" height="126">
<path d="M56.5 119.5C91.0178 119.5 119 91.5178 119 57C119 22.4822 91.0178 -5.5 56.5 -5.5C21.9822 -5.5 -6 22.4822 -6 57C-6 91.5178 21.9822 119.5 56.5 119.5Z" fill="white"/>
</mask>
<g mask="url(#mask42_782_2133)">
<path d="M65.2543 105.527C66.096 105.779 66.7694 105.443 67.4007 104.811C68.2004 104.012 69 103.044 69.5051 102.034C70.5573 100.013 70.0943 97.4882 71.4411 95.5942C71.6095 95.3838 71.2307 95.1734 71.0623 95.3838C70.0943 96.7727 70.0522 98.372 69.7576 99.9713C69.5472 100.981 69.1684 101.907 68.5792 102.749C67.9058 103.675 66.7273 105.527 65.3805 105.106C65.0859 105.064 65.0017 105.485 65.2543 105.527Z" fill="black"/>
</g>
<mask id="mask43_782_2133" style="mask-type:luminance" maskUnits="userSpaceOnUse" x="-6" y="-6" width="125" height="126">
<path d="M56.5 119.5C91.0178 119.5 119 91.5178 119 57C119 22.4822 91.0178 -5.5 56.5 -5.5C21.9822 -5.5 -6 22.4822 -6 57C-6 91.5178 21.9822 119.5 56.5 119.5Z" fill="white"/>
</mask>
<g mask="url(#mask43_782_2133)">
<path d="M71.1885 95.5942C74.4713 94.4158 77.7541 93.3215 80.6582 91.3855C80.8686 91.2171 80.6582 90.8804 80.4477 91.0067C77.5437 92.9427 74.303 93.9949 71.0622 95.1734C70.8097 95.2996 70.9359 95.6784 71.1885 95.5942Z" fill="black"/>
</g>
<mask id="mask44_782_2133" style="mask-type:luminance" maskUnits="userSpaceOnUse" x="-6" y="-6" width="125" height="126">
<path d="M56.5 119.5C91.0178 119.5 119 91.5178 119 57C119 22.4822 91.0178 -5.5 56.5 -5.5C21.9822 -5.5 -6 22.4822 -6 57C-6 91.5178 21.9822 119.5 56.5 119.5Z" fill="white"/>
</mask>
<g mask="url(#mask44_782_2133)">
<path d="M51.7019 68.4057C51.3652 67.7744 52.1228 66.638 52.4595 66.0909C52.8383 65.4596 53.3013 64.8704 53.8063 64.3232C54.4376 63.6077 55.111 62.9764 55.2794 62.0084C55.3215 61.7559 54.9006 61.6296 54.8585 61.8822C54.6481 63.3131 53.0487 64.4074 52.2912 65.5859C51.7861 66.3855 50.8602 67.6481 51.3232 68.6162C51.4494 68.8687 51.7861 68.6582 51.7019 68.4057Z" fill="black"/>
</g>
<mask id="mask45_782_2133" style="mask-type:luminance" maskUnits="userSpaceOnUse" x="-6" y="-6" width="125" height="126">
<path d="M56.5 119.5C91.0178 119.5 119 91.5178 119 57C119 22.4822 91.0178 -5.5 56.5 -5.5C21.9822 -5.5 -6 22.4822 -6 57C-6 91.5178 21.9822 119.5 56.5 119.5Z" fill="white"/>
</mask>
<g mask="url(#mask45_782_2133)">
<path d="M63.3602 68.6162C61.9713 69.8788 62.5184 72.5303 62.4763 74.1717C62.4763 74.298 62.6026 74.4243 62.7289 74.3822C62.813 74.3401 62.9393 74.298 63.0235 74.2559C63.276 74.1717 63.1497 73.7509 62.8972 73.835C62.813 73.8771 62.6868 73.9192 62.6026 73.9613C62.6868 74.0455 62.7709 74.0876 62.8551 74.1717C62.8551 72.6566 62.3501 70.0051 63.6127 68.9108C63.8652 68.7424 63.5706 68.4478 63.3602 68.6162Z" fill="black"/>
</g>
<mask id="mask46_782_2133" style="mask-type:luminance" maskUnits="userSpaceOnUse" x="-6" y="-6" width="125" height="126">
<path d="M56.5 119.5C91.0178 119.5 119 91.5178 119 57C119 22.4822 91.0178 -5.5 56.5 -5.5C21.9822 -5.5 -6 22.4822 -6 57C-6 91.5178 21.9822 119.5 56.5 119.5Z" fill="white"/>
</mask>
<g mask="url(#mask46_782_2133)">
<path d="M74.9345 60.8721C75.692 61.6718 76.5759 62.4293 77.1651 63.3553C77.7964 64.3654 77.8806 65.5017 77.8806 66.6802C77.8806 67.4798 77.8806 68.3216 78.0068 69.1213C78.1331 69.7947 79.1853 72.5303 78.0068 72.7829C77.7543 72.825 77.8385 73.2458 78.1331 73.2037C78.8486 73.0354 78.9749 71.9832 78.9328 71.3519C78.8907 70.7206 78.6802 70.1314 78.5119 69.5421C78.3015 68.7846 78.2594 67.9849 78.2594 67.1852C78.2594 66.0489 78.2594 64.8283 77.7964 63.7761C77.2493 62.5135 76.0708 61.5455 75.187 60.5775C75.0607 60.4091 74.7661 60.7038 74.9345 60.8721Z" fill="black"/>
</g>
<mask id="mask47_782_2133" style="mask-type:luminance" maskUnits="userSpaceOnUse" x="-6" y="-6" width="125" height="126">
<path d="M56.5 119.5C91.0178 119.5 119 91.5178 119 57C119 22.4822 91.0178 -5.5 56.5 -5.5C21.9822 -5.5 -6 22.4822 -6 57C-6 91.5178 21.9822 119.5 56.5 119.5Z" fill="white"/>
</mask>
<g mask="url(#mask47_782_2133)">
<path d="M48.8401 72.6145C49.8502 74.4663 52.7543 74.2138 54.5219 74.298C57.6785 74.4663 60.793 74.5505 63.9495 74.4663C67.1061 74.3822 70.2206 74.1717 73.3351 73.835C74.7239 73.7088 76.1128 73.5404 77.4596 73.33C78.2172 73.2037 78.9327 72.9933 79.2273 72.1936C79.3115 71.9411 78.8906 71.8148 78.8064 72.0673C78.4277 73.2037 75.8603 73.1195 74.9765 73.2458C73.6718 73.4141 72.4091 73.5404 71.1044 73.6667C68.5792 73.8771 66.0539 74.0034 63.5287 74.0875C61.0876 74.1296 58.6044 74.1296 56.1633 74.0034C54.8586 73.9613 53.5539 73.8771 52.2913 73.7508C51.1549 73.6667 49.8081 73.5404 49.2189 72.404C49.0926 72.1936 48.7138 72.404 48.8401 72.6145Z" fill="black"/>
</g>
<mask id="mask48_782_2133" style="mask-type:luminance" maskUnits="userSpaceOnUse" x="-6" y="-6" width="125" height="126">
<path d="M56.5 119.5C91.0178 119.5 119 91.5178 119 57C119 22.4822 91.0178 -5.5 56.5 -5.5C21.9822 -5.5 -6 22.4822 -6 57C-6 91.5178 21.9822 119.5 56.5 119.5Z" fill="white"/>
</mask>
<g mask="url(#mask48_782_2133)">
<path d="M48.7558 72.404C47.872 73.1616 48.0404 74.4663 48.84 75.266C50.1026 76.5286 52.5437 76.697 54.1851 76.9495C58.6885 77.7071 63.3181 77.7491 67.8636 77.1599C68.1161 77.1178 68.1161 76.697 67.8636 76.739C64.3703 77.202 60.8771 77.2862 57.3838 76.9495C55.574 76.7811 53.7643 76.4865 51.9545 76.1077C51.1969 75.9394 50.3552 75.771 49.6818 75.3922C48.7558 74.8451 48.0824 73.5825 49.0505 72.6986C49.2609 72.5303 48.9663 72.2357 48.7558 72.404Z" fill="black"/>
</g>
<mask id="mask49_782_2133" style="mask-type:luminance" maskUnits="userSpaceOnUse" x="-6" y="-6" width="125" height="126">
<path d="M56.5 119.5C91.0178 119.5 119 91.5178 119 57C119 22.4822 91.0178 -5.5 56.5 -5.5C21.9822 -5.5 -6 22.4822 -6 57C-6 91.5178 21.9822 119.5 56.5 119.5Z" fill="white"/>
</mask>
<g mask="url(#mask49_782_2133)">
<path d="M70.2205 77.3283C71.6935 77.202 73.1245 77.1178 74.5976 76.9916C75.8181 76.9074 77.1228 76.9074 78.2592 76.3603C78.9747 76.0236 79.6481 75.4764 79.9427 74.6768C80.3215 73.6667 79.9427 72.6986 79.4797 71.8148C79.3535 71.5623 79.0168 71.7727 79.1009 72.0252C79.6481 73.2037 79.9427 74.3821 78.9326 75.3922C78.1329 76.1919 76.9545 76.3603 75.9023 76.4444C74.0083 76.6128 72.1144 76.739 70.2205 76.8653C69.9259 76.9074 69.9259 77.3283 70.2205 77.3283Z" fill="black"/>
</g>
<mask id="mask50_782_2133" style="mask-type:luminance" maskUnits="userSpaceOnUse" x="-6" y="-6" width="125" height="126">
<path d="M56.5 119.5C91.0178 119.5 119 91.5178 119 57C119 22.4822 91.0178 -5.5 56.5 -5.5C21.9822 -5.5 -6 22.4822 -6 57C-6 91.5178 21.9822 119.5 56.5 119.5Z" fill="white"/>
</mask>
<g mask="url(#mask50_782_2133)">
<path d="M48.6297 75.3502C49.2189 77.5387 49.3873 79.8536 49.6398 82.1263C49.7661 83.2206 49.8923 84.3148 50.0186 85.367C50.187 86.6296 50.3974 87.8923 50.187 89.1549C50.1449 89.4074 50.5657 89.5337 50.6078 89.2812C50.9866 86.9663 50.3132 84.399 50.0607 82.1263C49.8082 79.8536 49.6398 77.4967 49.0506 75.266C48.9664 74.9714 48.5455 75.0977 48.6297 75.3502Z" fill="black"/>
</g>
<mask id="mask51_782_2133" style="mask-type:luminance" maskUnits="userSpaceOnUse" x="-6" y="-6" width="125" height="126">
<path d="M56.5 119.5C91.0178 119.5 119 91.5178 119 57C119 22.4822 91.0178 -5.5 56.5 -5.5C21.9822 -5.5 -6 22.4822 -6 57C-6 91.5178 21.9822 119.5 56.5 119.5Z" fill="white"/>
</mask>
<g mask="url(#mask51_782_2133)">
<path d="M50.1448 90.8383C50.6919 94.3316 50.9024 97.867 50.9024 101.402C50.9024 102.497 51.4074 102.96 52.4596 103.338C53.9327 103.843 55.6162 103.928 57.1313 104.138C57.3839 104.18 57.5101 103.759 57.2576 103.717C55.9108 103.507 54.5219 103.423 53.2172 103.086C52.165 102.833 51.4495 102.37 51.3653 101.15C51.3233 100.434 51.3653 99.6767 51.3653 98.9192C51.2812 96.1414 51.0286 93.4057 50.6078 90.67C50.5236 90.4596 50.1027 90.5437 50.1448 90.8383Z" fill="black"/>
</g>
<mask id="mask52_782_2133" style="mask-type:luminance" maskUnits="userSpaceOnUse" x="-6" y="-6" width="125" height="126">
<path d="M56.5 119.5C91.0178 119.5 119 91.5178 119 57C119 22.4822 91.0178 -5.5 56.5 -5.5C21.9822 -5.5 -6 22.4822 -6 57C-6 91.5178 21.9822 119.5 56.5 119.5Z" fill="white"/>
</mask>
<g mask="url(#mask52_782_2133)">
<path d="M67.9899 104.601C70.7677 104.433 73.5455 104.264 76.2391 103.465C76.4916 103.38 76.4074 103.002 76.1128 103.044C73.4613 103.801 70.7256 104.012 67.9899 104.138C67.7374 104.18 67.7374 104.601 67.9899 104.601Z" fill="black"/>
</g>
<mask id="mask53_782_2133" style="mask-type:luminance" maskUnits="userSpaceOnUse" x="-6" y="-6" width="125" height="126">
<path d="M56.5 119.5C91.0178 119.5 119 91.5178 119 57C119 22.4822 91.0178 -5.5 56.5 -5.5C21.9822 -5.5 -6 22.4822 -6 57C-6 91.5178 21.9822 119.5 56.5 119.5Z" fill="white"/>
</mask>
<g mask="url(#mask53_782_2133)">
<path d="M77.712 92.8165C77.4174 94.4158 77.3753 95.9731 77.3332 97.5724C77.2911 98.4562 77.5437 103.38 75.9443 103.086C75.6918 103.044 75.5655 103.423 75.8181 103.507C77.4174 103.801 77.5016 101.655 77.5857 100.561C77.7962 98.0354 77.6699 95.468 78.0908 92.9428C78.175 92.6482 77.7541 92.564 77.712 92.8165Z" fill="black"/>
</g>
<mask id="mask54_782_2133" style="mask-type:luminance" maskUnits="userSpaceOnUse" x="-6" y="-6" width="125" height="126">
<path d="M56.5 119.5C91.0178 119.5 119 91.5178 119 57C119 22.4822 91.0178 -5.5 56.5 -5.5C21.9822 -5.5 -6 22.4822 -6 57C-6 91.5178 21.9822 119.5 56.5 119.5Z" fill="white"/>
</mask>
<g mask="url(#mask54_782_2133)">
<path d="M79.059 75.3502C78.8065 76.4024 78.6802 77.4967 78.554 78.5489C78.5119 78.8014 78.9328 78.8014 78.9749 78.5489C79.059 77.4967 79.2274 76.4866 79.4378 75.4344C79.522 75.1819 79.1432 75.0977 79.059 75.3502Z" fill="black"/>
</g>
<mask id="mask55_782_2133" style="mask-type:luminance" maskUnits="userSpaceOnUse" x="-6" y="-6" width="125" height="126">
<path d="M56.5 119.5C91.0178 119.5 119 91.5178 119 57C119 22.4822 91.0178 -5.5 56.5 -5.5C21.9822 -5.5 -6 22.4822 -6 57C-6 91.5178 21.9822 119.5 56.5 119.5Z" fill="white"/>
</mask>
<g mask="url(#mask55_782_2133)">
<path d="M47.8299 74.8873C46.5251 77.4967 46.0622 80.527 46.1884 83.431C46.3147 86.3772 47.1144 89.3654 49.9763 90.7122C52.5016 91.9327 55.5319 91.5539 58.0571 90.5017C60.8349 89.3654 62.8551 87.2189 64.6228 84.862C66.7272 82.0842 69.3366 79.3065 70.3888 75.9395C70.7255 74.8873 69.0841 74.4664 68.7474 75.4765C67.7794 78.6331 65.212 81.2846 63.276 83.8519C61.2558 86.5034 58.8568 88.7762 55.4898 89.4916C54.0167 89.8283 52.4174 89.8283 51.0285 89.2812C49.2608 88.5657 48.3349 86.9664 48.0403 85.1566C47.5352 82.0421 47.8299 78.5068 49.2608 75.6869C49.7659 74.761 48.3349 73.9192 47.8299 74.8873Z" fill="black"/>
</g>
<mask id="mask56_782_2133" style="mask-type:luminance" maskUnits="userSpaceOnUse" x="-6" y="-6" width="125" height="126">
<path d="M56.5 119.5C91.0178 119.5 119 91.5178 119 57C119 22.4822 91.0178 -5.5 56.5 -5.5C21.9822 -5.5 -6 22.4822 -6 57C-6 91.5178 21.9822 119.5 56.5 119.5Z" fill="white"/>
</mask>
<g mask="url(#mask56_782_2133)">
<path d="M55.6162 55.7374H60.2458C60.4983 55.7374 60.6667 55.9058 60.6667 56.1583V57.8418C60.6667 58.0943 60.4983 58.2627 60.2458 58.2627H55.6162C55.3637 58.2627 55.1953 58.0943 55.1953 57.8418V56.1583C55.1953 55.9058 55.3637 55.7374 55.6162 55.7374Z" stroke="black" stroke-miterlimit="10"/>
</g>
<mask id="mask57_782_2133" style="mask-type:luminance" maskUnits="userSpaceOnUse" x="-6" y="-6" width="125" height="126">
<path d="M56.5 119.5C91.0178 119.5 119 91.5178 119 57C119 22.4822 91.0178 -5.5 56.5 -5.5C21.9822 -5.5 -6 22.4822 -6 57C-6 91.5178 21.9822 119.5 56.5 119.5Z" fill="white"/>
</mask>
<g mask="url(#mask57_782_2133)">
<path d="M68.958 66.6802H63.4866V68.7846H68.958V66.6802Z" stroke="black" stroke-miterlimit="10"/>
</g>
<mask id="mask58_782_2133" style="mask-type:luminance" maskUnits="userSpaceOnUse" x="-6" y="-6" width="125" height="126">
<path d="M56.5 119.5C91.0178 119.5 119 91.5178 119 57C119 22.4822 91.0178 -5.5 56.5 -5.5C21.9822 -5.5 -6 22.4822 -6 57C-6 91.5178 21.9822 119.5 56.5 119.5Z" fill="white"/>
</mask>
<g mask="url(#mask58_782_2133)">
<path d="M70.2206 73.835C70.2206 73.835 71.0624 70.0472 68.958 68.7845" stroke="black" stroke-miterlimit="10"/>
</g>
<mask id="mask59_782_2133" style="mask-type:luminance" maskUnits="userSpaceOnUse" x="-6" y="-6" width="125" height="126">
<path d="M56.5 119.5C91.0178 119.5 119 91.5178 119 57C119 22.4822 91.0178 -5.5 56.5 -5.5C21.9822 -5.5 -6 22.4822 -6 57C-6 91.5178 21.9822 119.5 56.5 119.5Z" fill="white"/>
</mask>
<g mask="url(#mask59_782_2133)">
<path d="M74.8501 57.4209H70.6413C70.3888 57.4209 70.2205 57.2526 70.2205 57V55.7374C70.2205 55.4849 70.3888 55.3165 70.6413 55.3165H74.8501C75.1026 55.3165 75.271 55.4849 75.271 55.7374V57C75.271 57.2526 75.1026 57.4209 74.8501 57.4209Z" stroke="black" stroke-miterlimit="10"/>
</g>
<mask id="mask60_782_2133" style="mask-type:luminance" maskUnits="userSpaceOnUse" x="-6" y="-6" width="125" height="126">
<path d="M56.5 119.5C91.0178 119.5 119 91.5178 119 57C119 22.4822 91.0178 -5.5 56.5 -5.5C21.9822 -5.5 -6 22.4822 -6 57C-6 91.5178 21.9822 119.5 56.5 119.5Z" fill="white"/>
</mask>
<g mask="url(#mask60_782_2133)">
<path d="M75.271 60.7879H70.2205V59.5252C70.2205 59.2727 70.3888 59.1044 70.6413 59.1044H74.8501C75.1026 59.1044 75.271 59.2727 75.271 59.5252V60.7879Z" stroke="black" stroke-miterlimit="10"/>
</g>
<mask id="mask61_782_2133" style="mask-type:luminance" maskUnits="userSpaceOnUse" x="-6" y="-6" width="125" height="126">
<path d="M56.5 119.5C91.0178 119.5 119 91.5178 119 57C119 22.4822 91.0178 -5.5 56.5 -5.5C21.9822 -5.5 -6 22.4822 -6 57C-6 91.5178 21.9822 119.5 56.5 119.5Z" fill="white"/>
</mask>
<g mask="url(#mask61_782_2133)">
<path d="M74.0084 57.4209H71.4832V59.1044H74.0084V57.4209Z" stroke="black" stroke-miterlimit="10"/>
</g>
<mask id="mask62_782_2133" style="mask-type:luminance" maskUnits="userSpaceOnUse" x="-6" y="-6" width="125" height="126">
<path d="M56.5 119.5C91.0178 119.5 119 91.5178 119 57C119 22.4822 91.0178 -5.5 56.5 -5.5C21.9822 -5.5 -6 22.4822 -6 57C-6 91.5178 21.9822 119.5 56.5 119.5Z" fill="white"/>
</mask>
<g mask="url(#mask62_782_2133)">
<path d="M61.3823 57.7997C62.4345 57.7576 63.4866 57.6314 64.5388 57.463C64.7914 57.4209 64.7072 57.0001 64.4126 57.0421C63.4025 57.2105 62.3924 57.3367 61.3823 57.3788C61.1297 57.3788 61.1297 57.7997 61.3823 57.7997Z" fill="black"/>
</g>
<mask id="mask63_782_2133" style="mask-type:luminance" maskUnits="userSpaceOnUse" x="-6" y="-6" width="125" height="126">
<path d="M56.5 119.5C91.0178 119.5 119 91.5178 119 57C119 22.4822 91.0178 -5.5 56.5 -5.5C21.9822 -5.5 -6 22.4822 -6 57C-6 91.5178 21.9822 119.5 56.5 119.5Z" fill="white"/>
</mask>
<g mask="url(#mask63_782_2133)">
<path d="M59.6146 58.2626H56.2476V59.9461H59.6146V58.2626Z" stroke="black" stroke-miterlimit="10"/>
</g>
<mask id="mask64_782_2133" style="mask-type:luminance" maskUnits="userSpaceOnUse" x="-6" y="-6" width="125" height="126">
<path d="M56.5 119.5C91.0178 119.5 119 91.5178 119 57C119 22.4822 91.0178 -5.5 56.5 -5.5C21.9822 -5.5 -6 22.4822 -6 57C-6 91.5178 21.9822 119.5 56.5 119.5Z" fill="white"/>
</mask>
<g mask="url(#mask64_782_2133)">
<path d="M60.9613 61.6297H54.6482C54.3956 61.6297 54.2273 61.4613 54.2273 61.2088V60.367C54.2273 60.1145 54.3956 59.9462 54.6482 59.9462H60.9613C61.2138 59.9462 61.3822 60.1145 61.3822 60.367V61.2088C61.3822 61.4613 61.2138 61.6297 60.9613 61.6297Z" stroke="black" stroke-miterlimit="10"/>
</g>
<mask id="mask65_782_2133" style="mask-type:luminance" maskUnits="userSpaceOnUse" x="-6" y="-6" width="125" height="126">
<path d="M56.5 119.5C91.0178 119.5 119 91.5178 119 57C119 22.4822 91.0178 -5.5 56.5 -5.5C21.9822 -5.5 -6 22.4822 -6 57C-6 91.5178 21.9822 119.5 56.5 119.5Z" fill="white"/>
</mask>
<g mask="url(#mask65_782_2133)">
<path d="M60.9614 61.2088V63.734C60.9614 63.734 64.3284 64.1549 64.7493 66.6802H68.1163C68.1163 66.6802 68.1163 64.1549 68.9581 63.734C69.7998 63.3132 68.5372 61.2088 68.5372 61.2088C68.5372 61.2088 64.7493 60.7879 60.9614 61.2088Z" fill="black"/>
<path d="M60.9614 61.6296H59.6987V63.3131H60.9614V61.6296Z" fill="#E27817"/>
<path d="M62.4344 63.9445C62.4344 63.9445 62.5606 66.133 61.2559 67.101C59.9512 68.069 61.4243 67.8165 61.5926 67.7744C62.3081 67.3956 63.2761 66.0488 63.5286 64.6179" fill="#E27817"/>
</g>
<mask id="mask66_782_2133" style="mask-type:luminance" maskUnits="userSpaceOnUse" x="-6" y="-6" width="125" height="126">
<path d="M56.5 119.5C91.0178 119.5 119 91.5178 119 57C119 22.4822 91.0178 -5.5 56.5 -5.5C21.9822 -5.5 -6 22.4822 -6 57C-6 91.5178 21.9822 119.5 56.5 119.5Z" fill="white"/>
</mask>
<g mask="url(#mask66_782_2133)">
<path d="M39.2441 73.9613C39.0757 75.6027 38.9074 77.2441 38.739 78.8855C38.5707 80.4849 38.5707 82.2525 37.6447 83.6414C36.4663 85.4091 34.5302 86.1246 32.51 86.2509C29.2272 86.4613 25.9444 86.2929 22.6616 86.2509C22.409 86.2509 22.409 86.6717 22.6616 86.6717C26.2811 86.7138 29.9427 87.0084 33.5201 86.5876C35.372 86.3771 37.1818 85.1987 38.1498 83.5993C38.8232 82.4209 38.9494 81.032 39.0757 79.7273C39.2861 77.8333 39.4545 75.8973 39.6649 74.0034C39.707 73.7088 39.2861 73.7088 39.2441 73.9613Z" fill="black"/>
</g>
<mask id="mask67_782_2133" style="mask-type:luminance" maskUnits="userSpaceOnUse" x="-6" y="-6" width="125" height="126">
<path d="M56.5 119.5C91.0178 119.5 119 91.5178 119 57C119 22.4822 91.0178 -5.5 56.5 -5.5C21.9822 -5.5 -6 22.4822 -6 57C-6 91.5178 21.9822 119.5 56.5 119.5Z" fill="white"/>
</mask>
<g mask="url(#mask67_782_2133)">
<path d="M42.064 94.5421C42.064 94.5421 39.4125 111.503 39.8334 120.131" stroke="black" stroke-miterlimit="10"/>
</g>
<mask id="mask68_782_2133" style="mask-type:luminance" maskUnits="userSpaceOnUse" x="-6" y="-6" width="125" height="126">
<path d="M56.5 119.5C91.0178 119.5 119 91.5178 119 57C119 22.4822 91.0178 -5.5 56.5 -5.5C21.9822 -5.5 -6 22.4822 -6 57C-6 91.5178 21.9822 119.5 56.5 119.5Z" fill="white"/>
</mask>
<g mask="url(#mask68_782_2133)">
<path d="M73.5876 103.928C73.5876 103.928 75.187 118.153 75.2711 123.835" stroke="black" stroke-miterlimit="10"/>
</g>
<mask id="mask69_782_2133" style="mask-type:luminance" maskUnits="userSpaceOnUse" x="-6" y="-6" width="125" height="126">
<path d="M56.5 119.5C91.0178 119.5 119 91.5178 119 57C119 22.4822 91.0178 -5.5 56.5 -5.5C21.9822 -5.5 -6 22.4822 -6 57C-6 91.5178 21.9822 119.5 56.5 119.5Z" fill="white"/>
</mask>
<g mask="url(#mask69_782_2133)">
<path d="M51.239 102.244C51.239 102.244 50.9022 107.084 52.3753 108.01C53.8484 108.936 54.606 112.85 55.2373 120.131" stroke="black" stroke-miterlimit="10"/>
</g>
<path d="M80.9107 33.8939C80.9528 34.4832 81.1211 35.9562 81.1211 35.9562C81.1211 35.9562 81.2895 34.4411 81.3315 33.8939C81.7103 34.1885 82.3837 34.7778 82.3837 34.7778C82.3837 34.7778 81.8366 34.1044 81.542 33.7256C81.9208 33.6835 82.7204 33.6414 83.6464 33.5151C82.7204 33.3889 81.9208 33.3047 81.542 33.3047C81.7524 33.0522 82.047 32.6734 82.4258 32.2104C81.9629 32.5471 81.542 32.8838 81.3315 33.0943C81.2895 32.505 81.1211 31.032 81.1211 31.032C81.1211 31.032 80.9528 32.5471 80.9107 33.0943C80.5319 32.7997 79.8585 32.2104 79.8585 32.2104C79.8585 32.2104 80.4056 32.8838 80.7423 33.2626C80.3635 33.3047 79.5639 33.3468 78.6379 33.4731C79.5639 33.5993 80.3635 33.6835 80.7423 33.6835C80.5319 33.936 80.2373 34.3148 79.8585 34.7778C80.2794 34.4411 80.7002 34.1044 80.9107 33.8939Z" fill="black"/>
<path d="M35.288 31.6633C35.3722 32.5472 35.6247 34.8199 35.6247 34.8199C35.6247 34.8199 35.8772 32.5051 35.9193 31.6212C36.4664 32.1263 37.5607 32.968 37.5607 32.968L36.2139 31.3687C36.7611 31.3687 38.0237 31.2425 39.4967 31.032C38.0658 30.8216 36.8031 30.7374 36.256 30.6953C36.5506 30.3586 37.0557 29.7273 37.6028 29.0118C36.8452 29.559 36.256 30.064 35.8772 30.4007C35.793 29.5169 35.5826 27.2441 35.5826 27.2441C35.5826 27.2441 35.3301 29.601 35.2459 30.4428L33.6045 29.096C33.6045 29.096 34.4462 30.1482 34.9513 30.6953C34.4041 30.6953 33.1415 30.8216 31.6685 31.032C33.0994 31.2425 34.3621 31.3266 34.9092 31.3687C34.5725 31.7054 34.0674 32.3367 33.5624 33.0522C34.32 32.5051 34.9092 31.9579 35.288 31.6633Z" fill="black"/>
<path d="M75.8602 23.2879C75.9865 24.9714 76.4495 29.2222 76.4495 29.2222C76.4495 29.2222 76.9124 24.8451 77.0387 23.2037C78.0909 24.1296 80.1532 25.7711 80.1532 25.7711L77.67 22.7408C78.7222 22.7408 81.0791 22.5303 83.8569 22.1094C81.1633 21.6886 78.8484 21.5202 77.7963 21.436C78.3855 20.7626 79.3114 19.6263 80.3215 18.2795C78.9326 19.3317 77.7542 20.2997 77.1229 20.8468C76.9966 19.1633 76.5336 14.9125 76.5336 14.9125C76.5336 14.9125 76.0286 19.2896 75.9444 20.931L72.8299 18.3637C72.8299 18.3637 74.3872 20.3418 75.3131 21.394C74.2609 21.394 71.904 21.6044 69.1262 22.0674C71.8198 22.4461 74.1346 22.6566 75.2289 22.6987C74.6397 23.3721 73.6717 24.5084 72.6616 25.8552C74.0505 24.803 75.1868 23.835 75.8602 23.2879Z" fill="black"/>
</g>
<rect x="0.5" y="1" width="111" height="111" rx="55.5" stroke="#462270"/>
<defs>
<clipPath id="clip0_782_2133">
<rect y="0.5" width="112" height="112" rx="56" fill="white"/>
</clipPath>
</defs>
</svg>
