<svg xmlns="http://www.w3.org/2000/svg" width="37" height="49" viewBox="0 0 37 49" fill="none">
    <path d="M11.6448 38.2817C11.859 41.1728 12.6353 48.4676 12.6353 48.4676C12.6353 48.4676 13.4384 40.9854 13.6392 38.1612C15.4595 39.7005 18.9931 42.5247 18.9931 42.5247C18.9931 42.5247 16.3162 39.1517 14.71 37.318C16.5169 37.1975 20.5592 36.903 25.284 36.207C20.6663 35.5244 16.6909 35.2165 14.8304 35.1094C15.8343 33.945 17.5074 32.0175 19.1671 29.7555C16.7846 31.5223 14.8037 33.1954 13.6526 34.1859C13.4384 31.2948 12.6621 24 12.6621 24C12.6621 24 11.8724 31.4821 11.6582 34.3064C9.85127 32.7671 6.30428 29.9429 6.30428 29.9429C6.30428 29.9429 8.98125 33.3025 10.5741 35.1496C8.7671 35.2567 4.72486 35.5645 0 36.2605C4.63117 36.9432 8.60648 37.2376 10.4536 37.3581C9.46311 38.5226 7.84354 40.45 6.11689 42.7121C8.52617 40.9319 10.5071 39.2721 11.6448 38.2817Z" fill="#529335"/>
    <path d="M31.0662 5.83698C31.1593 7.0186 31.4971 10 31.4971 10C31.4971 10 31.8465 6.94201 31.9338 5.78775C32.7258 6.41685 34.2631 7.57111 34.2631 7.57111C34.2631 7.57111 33.0985 6.19256 32.3997 5.44311C33.1858 5.39387 34.9444 5.27352 37 4.98906C34.991 4.71007 33.2615 4.58424 32.4521 4.54048C32.8888 4.06455 33.6167 3.2768 34.3388 2.3523C33.3023 3.0744 32.4404 3.75821 31.9397 4.16302C31.8465 2.9814 31.5087 0 31.5087 0C31.5087 0 31.1652 3.05799 31.072 4.21225C30.2859 3.58315 28.7427 2.42889 28.7427 2.42889C28.7427 2.42889 29.9074 3.80197 30.6003 4.55689C29.8142 4.60066 28.0556 4.72648 26 5.01094C28.0148 5.28993 29.7443 5.41028 30.5479 5.45952C30.117 5.93545 29.4124 6.72319 28.6612 7.6477C29.7094 6.92013 30.5712 6.24179 31.0662 5.83698Z" fill="#529335"/>
    <path d="M31.2239 43.5022C31.2832 44.2112 31.4981 46 31.4981 46C31.4981 46 31.7205 44.1652 31.7761 43.4726C32.28 43.8501 33.2583 44.5427 33.2583 44.5427C33.2583 44.5427 32.5172 43.7155 32.0725 43.2659C32.5728 43.2363 33.6919 43.1641 35 42.9934C33.7215 42.826 32.621 42.7505 32.1059 42.7243C32.3838 42.4387 32.847 41.9661 33.3065 41.4114C32.6469 41.8446 32.0985 42.2549 31.7798 42.4978C31.7205 41.7888 31.5056 40 31.5056 40C31.5056 40 31.2869 41.8348 31.2276 42.5274C30.7274 42.1499 29.7454 41.4573 29.7454 41.4573C29.7454 41.4573 30.4865 42.2812 30.9275 42.7341C30.4272 42.7604 29.3081 42.8359 28 43.0066C29.2822 43.174 30.3827 43.2462 30.8941 43.2757C30.6199 43.5613 30.1715 44.0339 29.6935 44.5886C30.3605 44.1521 30.9089 43.7451 31.2239 43.5022Z" fill="#529335"/>
</svg>