<svg width="56" height="48" viewBox="0 0 56 48" fill="none" xmlns="http://www.w3.org/2000/svg">
<path fill-rule="evenodd" clip-rule="evenodd" d="M18.5493 6.85714V0C12.3348 1.54441 7.68964 5.03472 4.61377 10.471C1.53791 15.9074 0 23.2895 0 32.6178V48H20.9032V27.4286H11.9582V25.2973C11.9582 20.2934 12.5074 16.2626 13.6059 13.2046C14.7045 10.1467 16.3522 8.03089 18.5493 6.85714ZM53.3877 6.85714V0C47.1732 1.54441 42.528 5.03472 39.4522 10.471C36.3763 15.9074 34.8384 23.2895 34.8384 32.6178V48H55.7416V27.4286H46.7966V25.2973C46.7966 20.2934 47.3458 16.2626 48.4443 13.2046C49.5429 10.1467 51.1906 8.03089 53.3877 6.85714Z" fill="#EDE9F1"/>
</svg>
