<svg width="112" height="113" viewBox="0 0 112 113" fill="none" xmlns="http://www.w3.org/2000/svg">
<g clip-path="url(#clip0_782_2595)">
<path d="M32.2077 51.9164L29.9808 54.7008L57.0378 76.0849L86.9899 38.3287V72.5209C81.4226 83.6584 73.183 92.0115 63.1619 98.8054C58.9307 101.59 53.4748 101.701 49.355 98.9168C39.5566 92.2343 32.0964 82.9901 26.1951 72.5209V32.4258C46.46 23.293 66.6136 23.6271 86.9899 32.4258V32.6485L56.3698 71.073L32.2077 51.9164Z" fill="#8139EA" stroke="black" stroke-width="2" stroke-miterlimit="10"/>
<path d="M66.0569 41.1131C66.1682 42.6723 66.6136 46.5705 66.6136 46.5705C66.6136 46.5705 67.059 42.5609 67.1703 41.1131C68.1724 41.8927 69.954 43.4519 69.954 43.4519C69.954 43.4519 68.5065 41.6699 67.727 40.6676C68.7292 40.5562 70.8447 40.4448 73.2943 40.1107C70.8447 39.7766 68.7292 39.5538 67.727 39.5538C68.2838 38.8856 69.0632 37.8832 70.0653 36.6581C68.8405 37.5491 67.727 38.4401 67.1703 38.9969C67.059 37.4377 66.6136 33.5396 66.6136 33.5396C66.6136 33.5396 66.1682 37.5491 66.0569 38.9969C65.0548 38.2173 63.2732 36.6581 63.2732 36.6581C63.2732 36.6581 64.7207 38.4401 65.6115 39.4424C64.6094 39.5538 62.4938 39.6652 60.0442 39.9993C62.4938 40.3334 64.6094 40.5562 65.6115 40.5562C65.0547 41.2244 64.2753 42.2268 63.2732 43.4519C64.498 42.4496 65.5001 41.5586 66.0569 41.1131Z" fill="white"/>
<path d="M30.5468 21.8993C30.7 23.7056 31.1594 28.2213 31.1594 28.2213C31.1594 28.2213 31.6954 23.5551 31.7719 21.8241C32.9205 22.8025 35.141 24.5335 35.141 24.5335C35.141 24.5335 33.4565 22.4262 32.4611 21.2973C33.6096 21.222 36.1365 21.0715 39.1227 20.6199C36.1365 20.1683 33.6862 20.0178 32.5376 19.9426C33.1502 19.19 34.2222 17.9858 35.2942 16.5558C33.7628 17.6847 32.5376 18.6631 31.8485 19.3405C31.6954 17.5342 31.2359 13.0186 31.2359 13.0186C31.2359 13.0186 30.6234 17.6847 30.4702 19.4157C29.3217 18.4373 27.1777 16.7063 27.1777 16.7063C27.1777 16.7063 28.9388 18.8136 29.9342 19.9426C28.7091 20.0178 26.1823 20.1683 23.196 20.6199C26.1057 21.0715 28.6325 21.222 29.7811 21.2973C29.1685 22.0499 28.0966 23.254 27.0246 24.684C28.556 23.5551 29.7811 22.5014 30.5468 21.8993Z" fill="black"/>
<path d="M17.6583 37.4724C17.7225 38.2242 17.9154 40.1663 17.9154 40.1663C17.9154 40.1663 18.1082 38.1616 18.1725 37.4098C18.6867 37.8483 19.6508 38.6001 19.6508 38.6001C19.6508 38.6001 18.8795 37.723 18.4938 37.2218C19.008 37.2218 20.1007 37.0965 21.3862 36.9086C20.1007 36.7207 19.008 36.658 18.5581 36.5954C18.8152 36.2821 19.2651 35.7809 19.7151 35.1544C19.0723 35.6556 18.4938 36.0942 18.2367 36.3448C18.1725 35.593 17.9796 33.6509 17.9796 33.6509C17.9796 33.6509 17.7868 35.6556 17.7225 36.4074C17.2083 35.9689 16.2442 35.2797 16.2442 35.2797C16.2442 35.2797 17.0155 36.1568 17.4012 36.658C16.887 36.658 15.7943 36.7833 14.5088 36.9713C15.7943 37.1592 16.887 37.2218 17.3369 37.2845C17.0798 37.5977 16.6299 38.0989 16.1799 38.7254C16.8227 38.2242 17.3369 37.7857 17.6583 37.4724Z" fill="black"/>
<path fill-rule="evenodd" clip-rule="evenodd" d="M101.038 21.8736L56.9412 76.4354L29.6489 55.1893L32.3171 51.7618L56.2439 70.388L97.6602 19.1433L101.038 21.8736Z" fill="#529335"/>
<rect x="-5.5" y="-5" width="124" height="124" rx="62" stroke="black"/>
</g>
<rect x="0.5" y="1" width="111" height="111" rx="55.5" stroke="#462270"/>
<defs>
<clipPath id="clip0_782_2595">
<rect y="0.5" width="112" height="112" rx="56" fill="white"/>
</clipPath>
</defs>
</svg>
