<svg width="112" height="112" viewBox="0 0 112 112" fill="none" xmlns="http://www.w3.org/2000/svg">
<g clip-path="url(#clip0_782_2607)">
<path d="M90.2683 43.5103V87.2251H25.5005V43.9893" stroke="black" stroke-miterlimit="10"/>
<path d="M25.5005 32.2523V24.4674C25.5005 22.3116 27.2963 20.5151 29.4512 20.5151H86.3176C88.4725 20.5151 90.2683 22.3116 90.2683 24.4674V32.2523" stroke="black" stroke-miterlimit="10"/>
<path d="M93.8597 91.6567H22.3877V89.3811C22.3877 88.1835 23.3454 87.2253 24.5426 87.2253H91.7048C92.902 87.2253 93.8597 88.1835 93.8597 89.3811V91.6567Z" stroke="black" stroke-miterlimit="10"/>
<path d="M25.6201 95.01H37.1131" stroke="black" stroke-miterlimit="10" stroke-linecap="round"/>
<path d="M44.5356 95.01H64.5287" stroke="black" stroke-miterlimit="10" stroke-linecap="round"/>
<path d="M70.7542 95.01H90.7472" stroke="black" stroke-miterlimit="10" stroke-linecap="round"/>
<path d="M18.7961 91.6567H97.571" stroke="black" stroke-miterlimit="10" stroke-linecap="round"/>
<path d="M95.2964 43.9893H20.9512L25.5005 32.2522H90.7471L95.2964 43.9893Z" fill="#8139EA"/>
<path d="M25.1412 43.9895C25.1412 45.1872 24.5426 46.3848 23.3455 46.3848C22.1483 46.3848 21.0708 45.4267 21.0708 44.1093" fill="#8139EA"/>
<path d="M30.5287 43.9895C30.5287 45.1872 29.9301 46.3848 28.7329 46.3848C27.5357 46.3848 26.4583 45.4267 26.4583 44.1093" fill="#8139EA"/>
<path d="M35.9159 43.9895C35.9159 45.1872 35.3173 46.3848 34.1201 46.3848C32.9229 46.3848 31.8455 45.4267 31.8455 44.1093" fill="#8139EA"/>
<path d="M41.3033 43.9895C41.3033 45.1872 40.7048 46.3848 39.5076 46.3848C38.3104 46.3848 37.2329 45.4267 37.2329 44.1093" fill="#8139EA"/>
<path d="M46.8104 43.9895C46.8104 45.1872 46.2118 46.3848 45.0146 46.3848C43.8175 46.3848 42.74 45.4267 42.74 44.1093" fill="#8139EA"/>
<path d="M52.1976 43.9895C52.1976 45.1872 51.599 46.3848 50.4019 46.3848C49.2047 46.3848 48.1272 45.4267 48.1272 44.1093" fill="#8139EA"/>
<path d="M57.5851 43.9895C57.5851 45.1872 56.9865 46.3848 55.7893 46.3848C54.5921 46.3848 53.5146 45.4267 53.5146 44.1093" fill="#8139EA"/>
<path d="M62.9723 43.9895C62.9723 45.1872 62.3737 46.3848 61.1765 46.3848C59.9793 46.3848 58.9019 45.4267 58.9019 44.1093" fill="#8139EA"/>
<path d="M68.3597 43.9895C68.3597 45.1872 67.7611 46.3848 66.564 46.3848C65.3668 46.3848 64.2893 45.4267 64.2893 44.1093" fill="#8139EA"/>
<path d="M73.7469 43.9895C73.7469 45.1872 73.1484 46.3848 71.9512 46.3848C70.754 46.3848 69.6765 45.3069 69.6765 44.1093" fill="#8139EA"/>
<path d="M79.1344 43.9895C79.1344 45.1872 78.5358 46.3848 77.3386 46.3848C76.1414 46.3848 75.064 45.4267 75.064 44.1093" fill="#8139EA"/>
<path d="M84.5216 43.9895C84.5216 45.1872 83.923 46.3848 82.7258 46.3848C81.5286 46.3848 80.4512 45.4267 80.4512 44.1093" fill="#8139EA"/>
<path d="M90.0287 43.9895C90.0287 45.1872 89.4301 46.3848 88.2329 46.3848C87.0357 46.3848 85.9583 45.4267 85.9583 44.1093" fill="#8139EA"/>
<path d="M95.4161 43.9895C95.4161 45.1872 94.8175 46.3848 93.6204 46.3848C92.4232 46.3848 91.3457 45.4267 91.3457 44.1093" fill="#8139EA"/>
<path d="M95.2964 43.9893H20.9512L25.5005 32.2522H90.7471L95.2964 43.9893Z" stroke="black" stroke-miterlimit="10"/>
<path d="M86.6766 32.2522L90.6273 43.9893H25.6201" stroke="black" stroke-miterlimit="10"/>
<path d="M82.6062 32.2522L85.9583 43.9893H30.1694" stroke="black" stroke-miterlimit="10"/>
<path d="M78.4162 32.2522L81.2895 43.9893H34.8386" stroke="black" stroke-miterlimit="10"/>
<path d="M74.3458 32.2522L76.6204 43.9893H39.3879" stroke="black" stroke-miterlimit="10"/>
<path d="M70.1556 32.2522L71.9513 43.9893H44.0569" stroke="black" stroke-miterlimit="10"/>
<path d="M66.0851 32.2522L67.2823 43.9893H48.6062" stroke="black" stroke-miterlimit="10"/>
<path d="M62.0146 32.2522L62.6132 43.9893H53.2751" stroke="black" stroke-miterlimit="10"/>
<path d="M29.0921 32.2522L25.1414 43.9893H90.1486" stroke="black" stroke-miterlimit="10"/>
<path d="M33.1624 32.2522L29.8103 43.9893H85.4795" stroke="black" stroke-miterlimit="10"/>
<path d="M37.3527 32.2522L34.4795 43.9893H80.9303" stroke="black" stroke-miterlimit="10"/>
<path d="M41.4231 32.2522L39.1484 43.9893H76.2612" stroke="black" stroke-miterlimit="10"/>
<path d="M45.4934 32.2522L43.8174 43.9893H71.7118" stroke="black" stroke-miterlimit="10"/>
<path d="M49.6838 32.2522L48.4866 43.9893H67.043" stroke="black" stroke-miterlimit="10"/>
<path d="M53.7541 32.2522L53.1555 43.9893H62.4936" stroke="black" stroke-miterlimit="10"/>
<path d="M57.8245 32.2522V43.9893" stroke="black" stroke-miterlimit="10"/>
<path d="M25.1412 43.9893C25.1412 45.1869 24.5426 46.3846 23.3455 46.3846C22.1483 46.3846 21.0708 45.4265 21.0708 44.109" stroke="black" stroke-miterlimit="10"/>
<path d="M30.5287 43.9893C30.5287 45.1869 29.9301 46.3846 28.7329 46.3846C27.5357 46.3846 26.4583 45.4265 26.4583 44.109" stroke="black" stroke-miterlimit="10"/>
<path d="M35.9159 43.9893C35.9159 45.1869 35.3173 46.3846 34.1201 46.3846C32.9229 46.3846 31.8455 45.4265 31.8455 44.109" stroke="black" stroke-miterlimit="10"/>
<path d="M41.3033 43.9893C41.3033 45.1869 40.7047 46.3846 39.5076 46.3846C38.3104 46.3846 37.2329 45.4265 37.2329 44.109" stroke="black" stroke-miterlimit="10"/>
<path d="M46.6906 43.9893C46.6906 45.1869 46.092 46.3846 44.8948 46.3846C43.6976 46.3846 42.6201 45.4265 42.6201 44.109" stroke="black" stroke-miterlimit="10"/>
<path d="M52.078 43.9893C52.078 45.1869 51.4794 46.3846 50.2822 46.3846C49.085 46.3846 48.0076 45.4265 48.0076 44.109" stroke="black" stroke-miterlimit="10"/>
<path d="M57.4652 43.9893C57.4652 45.1869 56.8666 46.3846 55.6694 46.3846C54.4722 46.3846 53.3948 45.4265 53.3948 44.109" stroke="black" stroke-miterlimit="10"/>
<path d="M62.9723 43.9893C62.9723 45.1869 62.3737 46.3846 61.1765 46.3846C59.9793 46.3846 58.9019 45.4265 58.9019 44.109" stroke="black" stroke-miterlimit="10"/>
<path d="M68.3597 43.9893C68.3597 45.1869 67.7611 46.3846 66.564 46.3846C65.3668 46.3846 64.2893 45.4265 64.2893 44.109" stroke="black" stroke-miterlimit="10"/>
<path d="M73.747 43.9893C73.747 45.1869 73.1484 46.3846 71.9512 46.3846C70.754 46.3846 69.6765 45.4265 69.6765 44.109" stroke="black" stroke-miterlimit="10"/>
<path d="M79.1344 43.9893C79.1344 45.1869 78.5358 46.3846 77.3386 46.3846C76.1414 46.3846 75.064 45.4265 75.064 44.109" stroke="black" stroke-miterlimit="10"/>
<path d="M84.5216 43.9893C84.5216 45.1869 83.923 46.3846 82.7258 46.3846C81.5286 46.3846 80.4512 45.3067 80.4512 44.109" stroke="black" stroke-miterlimit="10"/>
<path d="M89.9091 43.9893C89.9091 45.1869 89.3105 46.3846 88.1133 46.3846C86.9161 46.3846 85.8386 45.4265 85.8386 44.109" stroke="black" stroke-miterlimit="10"/>
<path d="M95.2963 43.9893C95.2963 45.1869 94.6977 46.3846 93.5005 46.3846C92.3033 46.3846 91.2258 45.4265 91.2258 44.109" stroke="black" stroke-miterlimit="10"/>
<path d="M55.4302 57.5232H35.916V87.2254H55.4302V57.5232Z" stroke="black" stroke-miterlimit="10"/>
<path d="M51.5989 83.1531H39.1482V62.4334C39.1482 61.7148 39.7468 61.116 40.4651 61.116H50.1623C50.8806 61.116 51.4792 61.7148 51.4792 62.4334V83.1531H51.5989Z" stroke="black" stroke-miterlimit="10"/>
<path d="M51.5989 67.4636C51.5989 67.7031 51.3595 67.9427 51.1201 67.9427H45.3736H39.6271C39.3876 67.9427 39.1482 67.7031 39.1482 67.4636V61.595C39.1482 61.3555 39.3876 61.116 39.6271 61.116H51.1201C51.3595 61.116 51.5989 61.3555 51.5989 61.595V67.4636Z" stroke="black" stroke-miterlimit="10"/>
<path d="M45.4934 67.9429V83.1533" stroke="black" stroke-miterlimit="10"/>
<path d="M57.8244 57.2835H33.1624C32.9229 57.2835 32.8032 57.0439 32.9229 56.8044L35.7962 53.2114C36.1553 52.8521 36.6342 52.6125 37.1131 52.6125H54.2329C54.8315 52.6125 55.3103 52.8521 55.5498 53.3311L58.0639 56.9242C58.3033 57.0439 58.0639 57.2835 57.8244 57.2835Z" stroke="black" stroke-miterlimit="10"/>
<path d="M83.5639 62.3138C83.5639 67.344 74.4653 80.1591 74.4653 80.1591C74.4653 80.1591 65.1272 67.344 65.1272 62.3138C65.1272 57.2836 69.1976 53.0918 74.3455 53.0918C79.4934 53.0918 83.5639 57.2836 83.5639 62.3138Z" stroke="black" stroke-miterlimit="10"/>
<path d="M74.3456 66.7453C76.792 66.7453 78.7752 64.7613 78.7752 62.3139C78.7752 59.8666 76.792 57.8826 74.3456 57.8826C71.8992 57.8826 69.916 59.8666 69.916 62.3139C69.916 64.7613 71.8992 66.7453 74.3456 66.7453Z" stroke="black" stroke-miterlimit="10"/>
<path d="M100.838 33.2915C100.959 34.6916 101.323 38.192 101.323 38.192C101.323 38.192 101.748 34.575 101.809 33.2332C102.719 33.9916 104.48 35.3334 104.48 35.3334C104.48 35.3334 103.144 33.6999 102.355 32.8248C103.266 32.7664 105.269 32.6498 107.636 32.2997C105.269 31.9497 103.326 31.833 102.416 31.7747C102.901 31.1913 103.751 30.2579 104.601 29.1494C103.387 30.0245 102.416 30.7829 101.869 31.308C101.748 29.9078 101.384 26.4075 101.384 26.4075C101.384 26.4075 100.898 30.0245 100.777 31.3663C99.8663 30.6079 98.1666 29.2661 98.1666 29.2661C98.1666 29.2661 99.5627 30.8996 100.352 31.7747C99.3806 31.833 97.3774 31.9497 95.01 32.2997C97.3167 32.6498 99.3199 32.7664 100.23 32.8248C99.7449 33.4082 98.895 34.3416 98.0452 35.45C99.2592 34.575 100.23 33.7582 100.838 33.2915Z" fill="black"/>
<path d="M68.7216 11.681C68.7702 12.2811 68.9159 13.7812 68.9159 13.7812C68.9159 13.7812 69.0858 12.2311 69.1101 11.656C69.4743 11.981 70.1785 12.5561 70.1785 12.5561C70.1785 12.5561 69.6443 11.856 69.3287 11.481C69.6929 11.456 70.4942 11.406 71.4411 11.256C70.4942 11.106 69.7172 11.0559 69.3529 11.0309C69.5472 10.7809 69.8871 10.3809 70.2271 9.90583C69.7414 10.2809 69.3529 10.6059 69.1344 10.8309C69.0858 10.2309 68.9402 8.73071 68.9402 8.73071C68.9402 8.73071 68.7459 10.2809 68.6973 10.8559C68.3331 10.5309 67.6533 9.95584 67.6533 9.95584C67.6533 9.95584 68.2117 10.6559 68.5274 11.0309C68.1389 11.0559 67.3376 11.106 66.3906 11.256C67.3133 11.406 68.1146 11.456 68.4788 11.481C68.2846 11.731 67.9446 12.1311 67.6047 12.6061C68.0903 12.2311 68.4788 11.881 68.7216 11.681Z" fill="black"/>
<path d="M13.9844 31.501C14.0487 32.2528 14.2415 34.1949 14.2415 34.1949C14.2415 34.1949 14.4344 32.1901 14.4986 31.4384C15.0128 31.8769 15.977 32.6287 15.977 32.6287C15.977 32.6287 15.2057 31.7516 14.82 31.2504C15.3342 31.2504 16.4269 31.1251 17.7124 30.9372C16.4269 30.7492 15.3342 30.6866 14.8843 30.6239C15.1414 30.3107 15.5913 29.8095 16.0412 29.183C15.3985 29.6842 14.82 30.1227 14.5629 30.3733C14.4986 29.6215 14.3058 27.6794 14.3058 27.6794C14.3058 27.6794 14.113 29.6842 14.0487 30.436C13.5345 29.9974 12.5704 29.3083 12.5704 29.3083C12.5704 29.3083 13.3417 30.1854 13.7273 30.6866C13.2131 30.6866 12.1205 30.8119 10.835 30.9998C12.1205 31.1878 13.2131 31.2504 13.6631 31.3131C13.406 31.6263 12.956 32.1275 12.5061 32.754C13.1489 32.2528 13.6631 31.8142 13.9844 31.501Z" fill="black"/>
<rect x="-5.5" y="-5.5" width="124" height="124" rx="62" stroke="black"/>
</g>
<rect x="0.5" y="0.5" width="111" height="111" rx="55.5" stroke="#462270"/>
<defs>
<clipPath id="clip0_782_2607">
<rect width="112" height="112" rx="56" fill="white"/>
</clipPath>
</defs>
</svg>
