<svg width="1482" height="114" viewBox="0 0 1482 114" fill="none" xmlns="http://www.w3.org/2000/svg">
<path d="M1469.64 56.2817C1469.43 59.1728 1468.65 66.4676 1468.65 66.4676C1468.65 66.4676 1467.85 58.9854 1467.64 56.1612C1465.82 57.7005 1462.29 60.5247 1462.29 60.5247C1462.29 60.5247 1464.97 57.1517 1466.57 55.318C1464.77 55.1975 1460.73 54.903 1456 54.207C1460.62 53.5244 1464.59 53.2165 1466.45 53.1094C1465.45 51.945 1463.78 50.0175 1462.12 47.7555C1464.5 49.5223 1466.48 51.1954 1467.63 52.1859C1467.85 49.2948 1468.62 42 1468.62 42C1468.62 42 1469.41 49.4821 1469.63 52.3064C1471.43 50.7671 1474.98 47.9429 1474.98 47.9429C1474.98 47.9429 1472.3 51.3025 1470.71 53.1496C1472.52 53.2567 1476.56 53.5645 1481.28 54.2605C1476.65 54.9432 1472.68 55.2376 1470.83 55.3581C1471.82 56.5226 1473.44 58.45 1475.17 60.7121C1472.76 58.9319 1470.78 57.2721 1469.64 56.2817Z" fill="#EEF4EB"/>
<path d="M21.6393 103.282C21.4252 106.173 20.6489 113.468 20.6489 113.468C20.6489 113.468 19.8458 105.985 19.645 103.161C17.8246 104.7 14.291 107.525 14.291 107.525C14.291 107.525 16.968 104.152 18.5742 102.318C16.7672 102.197 12.725 101.903 8.00015 101.207C12.6179 100.524 16.5932 100.217 18.4537 100.109C17.4499 98.945 15.7768 97.0175 14.117 94.7555C16.4995 96.5223 18.4805 98.1954 19.6316 99.1859C19.8458 96.2948 20.6221 89 20.6221 89C20.6221 89 21.4118 96.4821 21.626 99.3064C23.4329 97.7671 26.9799 94.9429 26.9799 94.9429C26.9799 94.9429 24.3029 98.3025 22.7101 100.15C24.5171 100.257 28.5593 100.565 33.2842 101.261C28.653 101.943 24.6777 102.238 22.8306 102.358C23.8211 103.523 25.4406 105.45 27.1673 107.712C24.758 105.932 22.777 104.272 21.6393 103.282Z" fill="#EEF4EB"/>
<path d="M9.17046 30.3392C9.02647 32.2298 8.5045 37 8.5045 37C8.5045 37 7.96453 32.1072 7.82954 30.2604C6.60561 31.267 4.22975 33.1138 4.22975 33.1138C4.22975 33.1138 6.02964 30.9081 7.10958 29.709C5.89465 29.6302 3.17681 29.4376 1.2095e-06 28.9825C3.10482 28.5361 5.77766 28.3348 7.02859 28.2648C6.35363 27.5033 5.22869 26.2429 4.11276 24.7637C5.71466 25.919 7.04659 27.0131 7.82054 27.6608C7.96453 25.7702 8.4865 21 8.4865 21C8.4865 21 9.01747 25.8928 9.16146 27.7396C10.3764 26.733 12.7613 24.8862 12.7613 24.8862C12.7613 24.8862 10.9614 27.0832 9.89042 28.291C11.1053 28.3611 13.8232 28.5624 17 29.0175C13.8862 29.4639 11.2133 29.6565 9.97141 29.7352C10.6374 30.4967 11.7263 31.7571 12.8872 33.2363C11.2673 32.0722 9.93541 30.9869 9.17046 30.3392Z" fill="#EEF4EB"/>
<path d="M1431.12 6.10602C1431.03 7.28764 1430.69 10.269 1430.69 10.269C1430.69 10.269 1430.34 7.21106 1430.25 6.05679C1429.46 6.68589 1427.92 7.84016 1427.92 7.84016C1427.92 7.84016 1429.09 6.4616 1429.79 5.71215C1429 5.66291 1427.24 5.54257 1425.19 5.2581C1427.2 4.97911 1428.93 4.85329 1429.74 4.80952C1429.3 4.33359 1428.57 3.54585 1427.85 2.62134C1428.89 3.34344 1429.75 4.02725 1430.25 4.43206C1430.34 3.25044 1430.68 0.269042 1430.68 0.269042C1430.68 0.269042 1431.02 3.32703 1431.12 4.4813C1431.9 3.85219 1433.45 2.69793 1433.45 2.69793C1433.45 2.69793 1432.28 4.07101 1431.59 4.82594C1432.37 4.8697 1434.13 4.99552 1436.19 5.27998C1434.17 5.55898 1432.44 5.67933 1431.64 5.72856C1432.07 6.20449 1432.78 6.99224 1433.53 7.91674C1432.48 7.18917 1431.62 6.51084 1431.12 6.10602Z" fill="#EEF4EB"/>
<path d="M1342.78 32.5022C1342.72 33.2112 1342.5 35 1342.5 35C1342.5 35 1342.28 33.1652 1342.22 32.4726C1341.72 32.8501 1340.74 33.5427 1340.74 33.5427C1340.74 33.5427 1341.48 32.7155 1341.93 32.2659C1341.43 32.2363 1340.31 32.1641 1339 31.9934C1340.28 31.826 1341.38 31.7505 1341.89 31.7243C1341.62 31.4387 1341.15 30.9661 1340.69 30.4114C1341.35 30.8446 1341.9 31.2549 1342.22 31.4978C1342.28 30.7888 1342.49 29 1342.49 29C1342.49 29 1342.71 30.8348 1342.77 31.5274C1343.27 31.1499 1344.25 30.4573 1344.25 30.4573C1344.25 30.4573 1343.51 31.2812 1343.07 31.7341C1343.57 31.7604 1344.69 31.8359 1346 32.0066C1344.72 32.174 1343.62 32.2462 1343.11 32.2757C1343.38 32.5613 1343.83 33.0339 1344.31 33.5886C1343.64 33.1521 1343.09 32.7451 1342.78 32.5022Z" fill="#EEF4EB"/>
</svg>
