<svg width="1728" height="236" viewBox="0 0 1728 236" fill="none" xmlns="http://www.w3.org/2000/svg">
<path opacity="0.45" d="M1728 -18.9999C1728 -18.9999 1728 52.0301 1728 184C1477.53 228 1172.66 -67.9999 1020.86 28.0001C1004.42 27.0001 1021.75 37.4401 953.815 48.0001C806.783 70.8601 631.807 71.5001 484.497 65.0001C198.606 87.0001 -5.06055 35.9901 -5.06055 35.9901" fill="white"/>
<path opacity="0.45" d="M-1.26465 -23H236.557H1726.74C1726.74 -23 1729.27 81 1726.74 191C1351.03 181 1242.24 -118 927.251 48C877.916 48 772.92 -3 516.123 65C217.582 -8 -1.26465 235.5 -1.26465 235.5" fill="white"/>
<path d="M0 154C0 154 134.091 20 388.357 53C699.549 116 748.884 92 853.88 75C987.971 42 1138.51 -15 1223.26 13C1361.15 52 1545.84 204 1728 191C1728 63 1728 -23 1728 -23H0V154Z" fill="white"/>
</svg>
