<svg width="48" height="48" viewBox="0 0 48 48" fill="none" xmlns="http://www.w3.org/2000/svg">
<rect width="48" height="48" rx="24" fill="#EC407A"/>
<path d="M27.4886 12.2045H30.9886V28.7045C30.9886 30.197 30.6932 31.4735 30.1023 32.5341C29.5189 33.5947 28.697 34.4053 27.6364 34.9659C26.5757 35.5189 25.3333 35.7955 23.9091 35.7955C22.5985 35.7955 21.4204 35.5568 20.375 35.0795C19.3371 34.6023 18.5151 33.9091 17.9091 33C17.3106 32.0833 17.0114 30.9697 17.0114 29.6591H20.5C20.5 30.303 20.6477 30.8598 20.9432 31.3295C21.2462 31.7992 21.6591 32.1667 22.1818 32.4318C22.7121 32.6894 23.3182 32.8182 24 32.8182C24.7424 32.8182 25.3712 32.6629 25.8864 32.3523C26.4091 32.0341 26.8068 31.5682 27.0795 30.9545C27.3523 30.3409 27.4886 29.5909 27.4886 28.7045V12.2045Z" fill="white"/>
</svg>
