<svg width="160" height="79" viewBox="0 0 160 79" fill="none" xmlns="http://www.w3.org/2000/svg">
<path d="M59.2594 71.0709C43.2594 71.0709 30.2988 58.0837 30.2988 42.0626C30.2988 26.0415 43.269 13.0542 59.269 13.0542C66.1698 13.0542 72.5067 15.4756 77.4769 19.5048C71.5223 13.2744 63.1495 9.37915 53.8592 9.37915C35.8329 9.37915 21.2188 24.0125 21.2188 42.0626C21.2188 60.1126 35.8329 74.746 53.8592 74.746C63.1495 74.746 71.5318 70.8508 77.4769 64.6108C72.4972 68.6496 66.1603 71.0709 59.2594 71.0709Z" fill="white"/>
<path d="M38.5376 51.2694C38.1552 51.2694 37.8972 51.2311 37.7538 51.1546C37.6104 51.078 37.534 50.944 37.534 50.743C37.534 50.5325 37.7347 50.3219 38.1266 50.1018C38.289 50.0157 38.4229 49.9391 38.5089 49.8817C38.6522 49.786 38.7478 49.6424 38.8147 49.451C38.8816 49.2596 38.9103 48.9534 38.9103 48.5514V36.7701C38.9103 36.4351 38.8912 36.1767 38.853 36.014C38.8147 35.8513 38.7574 35.7173 38.6714 35.612C38.5949 35.5163 38.3846 35.3728 38.0405 35.1909C37.6965 35.0091 37.5244 34.8177 37.5244 34.5975C37.5244 34.4157 37.6009 34.2817 37.7442 34.1956C37.8876 34.119 38.1552 34.0712 38.528 34.0712H41.4049C41.8828 34.0712 42.1982 34.1094 42.3512 34.1764C42.5041 34.2434 42.5806 34.3679 42.5806 34.5497C42.5806 34.8081 42.3798 35.0187 41.9689 35.1813C41.749 35.2771 41.577 35.3536 41.4623 35.4206C41.2998 35.5259 41.1851 35.6694 41.1182 35.8704C41.0513 36.0714 41.0226 36.3681 41.0226 36.7605V48.1399C41.0226 48.9629 41.166 49.4797 41.4623 49.6616C41.7586 49.853 42.6092 49.9487 44.0334 49.9487C45.295 49.9487 46.2508 49.8913 46.9008 49.786C47.5507 49.6807 48.1337 49.4893 48.6594 49.2309C48.8601 49.1256 49.1564 48.9438 49.5387 48.6854C49.9211 48.427 50.1982 48.293 50.3607 48.293C50.5041 48.293 50.5997 48.3313 50.657 48.4078C50.7144 48.4844 50.743 48.6184 50.743 48.7907C50.743 49.2309 50.6953 49.6616 50.6092 50.0827C50.5232 50.5038 50.4372 50.7718 50.3607 50.8866C50.2556 51.011 50.1122 51.0972 49.9115 51.1546C49.7108 51.212 49.3094 51.2407 48.6976 51.2407H38.5376V51.2694Z" fill="white"/>
<path d="M61.2946 41.1055V47.5943C61.2946 48.1399 61.3042 48.5897 61.3329 48.9342C61.352 49.2788 61.3807 49.4893 61.4189 49.5563C61.5049 49.7381 61.6005 49.8817 61.7248 49.987C61.8394 50.0923 62.0306 50.1975 62.3078 50.3028C62.346 50.3219 62.3938 50.3411 62.4607 50.3602C62.7379 50.4655 62.8813 50.6282 62.8813 50.8292C62.8813 51.0493 62.7475 51.2024 62.4798 51.279C62.2122 51.3651 61.6578 51.4034 60.8167 51.4034C60.3866 51.4034 60.0808 51.3077 59.9087 51.1163C59.7367 50.9249 59.6507 50.5804 59.6507 50.0827C59.6507 50.0444 59.6507 49.9774 59.6602 49.8817C59.6698 49.786 59.6698 49.719 59.6698 49.6712C59.1823 50.3219 58.628 50.81 58.0067 51.1259C57.3854 51.4417 56.6686 51.6044 55.8657 51.6044C54.4989 51.6044 53.5145 51.1929 52.8932 50.3794C52.2719 49.5563 51.9661 48.2356 51.9661 46.4076V42.7421C51.9661 42.3593 51.9183 42.1009 51.8323 41.9573C51.7463 41.8137 51.5646 41.6606 51.3066 41.4883L51.2875 41.4788C50.9721 41.2969 50.8096 41.1055 50.8096 40.9237C50.8096 40.7036 51.0485 40.4834 51.5169 40.2825C51.9852 40.0815 52.5204 39.9762 53.0939 39.9762C53.352 39.9762 53.5336 40.0719 53.6387 40.2537C53.7439 40.4356 53.8012 40.7705 53.8012 41.2395V46.4554C53.8012 47.7475 54.021 48.695 54.4607 49.2979C54.9004 49.9008 55.5885 50.2071 56.5252 50.2071C57.4332 50.2071 58.1501 49.9487 58.6758 49.4415C59.2015 48.9246 59.4691 48.226 59.4691 47.3455V42.5698C59.4691 42.321 59.4404 42.1391 59.3926 42.0147C59.3353 41.8903 59.2492 41.7946 59.125 41.718C59.0772 41.6893 59.0103 41.6415 58.9147 41.5936C58.5802 41.4022 58.4081 41.2108 58.4081 41.029C58.4081 40.7801 58.6471 40.5409 59.1154 40.3207C59.5838 40.1006 60.0808 39.9858 60.5969 39.9858C60.855 39.9858 61.0366 40.0719 61.1417 40.2442C61.2373 40.3782 61.2946 40.6748 61.2946 41.1055Z" fill="white"/>
<path d="M72.4205 48.3695C72.5925 48.3695 72.7264 48.4078 72.8315 48.4748C72.9366 48.5418 72.9844 48.6375 72.9844 48.7524C72.9844 48.9725 72.8697 49.2596 72.6403 49.5946C72.4109 49.9295 72.1051 50.2454 71.7228 50.542C71.2831 50.8866 70.7956 51.1546 70.2604 51.3268C69.7252 51.4991 69.1326 51.5852 68.4826 51.5852C67.0394 51.5852 65.8446 51.0684 64.9079 50.0444C63.9713 49.0203 63.5029 47.7187 63.5029 46.1396C63.5029 44.3691 64.0191 42.8952 65.0513 41.718C66.0836 40.5408 67.3835 39.957 68.9318 39.957C69.9737 39.957 70.853 40.1772 71.5603 40.6078C72.2676 41.0481 72.6308 41.5553 72.6308 42.1391C72.6308 42.3975 72.5352 42.6176 72.344 42.8091C72.1529 43.0005 71.9235 43.0962 71.6654 43.0962C71.35 43.0962 71.0155 42.8665 70.6714 42.4167C70.614 42.3497 70.5758 42.3018 70.5567 42.2635C70.2126 41.8233 69.9163 41.5457 69.6582 41.4213C69.4002 41.2969 69.0848 41.2299 68.7025 41.2299C67.7658 41.2299 67.0107 41.6606 66.4277 42.5219C65.8446 43.3833 65.5579 44.5222 65.5579 45.929C65.5579 47.2115 65.8733 48.2355 66.4946 49.0108C67.1158 49.7764 67.9569 50.1688 68.9892 50.1688C69.295 50.1688 69.6009 50.1305 69.9068 50.0444C70.2126 49.9582 70.4993 49.8338 70.7765 49.6711C71.1206 49.4797 71.4551 49.2117 71.7897 48.8768C72.1338 48.5322 72.344 48.3695 72.4205 48.3695Z" fill="white"/>
<path d="M75.0489 42.8856C75.0489 42.6081 75.0202 42.4166 74.9629 42.3018C74.9055 42.1965 74.7908 42.0817 74.6188 41.9764C74.5519 41.9286 74.4467 41.8711 74.3034 41.8041C74.0262 41.6701 73.8828 41.517 73.8828 41.3639C73.8828 41.249 73.921 41.1438 74.0071 41.0481C74.0931 40.9524 74.2269 40.8566 74.4276 40.7514L74.5901 40.6557C75.5363 40.158 76.1672 39.9187 76.473 39.9187C76.6355 39.9187 76.7502 39.9953 76.8075 40.1389C76.8649 40.2824 76.9031 40.627 76.9031 41.1533V49.2979C76.9031 49.4988 76.9222 49.6615 76.97 49.7955C77.0178 49.9295 77.0847 50.0157 77.1803 50.0635C77.2854 50.1114 77.4193 50.1688 77.5722 50.2262C77.9736 50.3889 78.1743 50.5803 78.1743 50.8004C78.1743 50.9727 78.1074 51.0876 77.9832 51.1546C77.8494 51.2215 77.6104 51.2503 77.2472 51.2503H74.7526C74.4181 51.2503 74.1887 51.2215 74.0644 51.1546C73.9402 51.0876 73.8828 50.9823 73.8828 50.8196C73.8828 50.7047 73.9115 50.5995 73.9784 50.5133C74.0357 50.4272 74.1504 50.3506 74.3129 50.2645C74.3703 50.2358 74.4563 50.1975 74.571 50.1496C74.8864 50.0157 75.0489 49.7477 75.0489 49.3362V42.8856ZM74.4276 36.569C74.4276 36.2149 74.5519 35.9183 74.8004 35.6981C75.0489 35.4684 75.3739 35.3632 75.7753 35.3632C76.1672 35.3632 76.4921 35.478 76.7311 35.6981C76.97 35.9278 77.0943 36.2149 77.0943 36.569C77.0943 36.9423 76.97 37.239 76.7215 37.4591C76.473 37.6792 76.148 37.7941 75.7466 37.7941C75.3356 37.7941 75.0107 37.6792 74.7717 37.4591C74.5519 37.239 74.4276 36.9423 74.4276 36.569Z" fill="white"/>
<path d="M87.866 49.9966C87.3212 50.5229 86.719 50.9249 86.0691 51.1929C85.4191 51.4609 84.7118 51.5948 83.9568 51.5948C82.4848 51.5948 81.271 51.078 80.3247 50.054C79.3785 49.0299 78.9102 47.7092 78.9102 46.1014C78.9102 44.3117 79.4263 42.8474 80.4585 41.6893C81.4908 40.5313 82.8002 39.9571 84.3869 39.9571C84.9699 39.9571 85.5243 40.0336 86.0691 40.1963C86.6139 40.359 87.1396 40.5983 87.6366 40.9237V36.8466C87.6366 36.5404 87.5888 36.3011 87.5028 36.148C87.4072 35.9853 87.2542 35.8609 87.0344 35.7556C86.9388 35.7077 86.8146 35.6599 86.6521 35.5929C86.3176 35.4589 86.1551 35.3154 86.1551 35.1622C86.1551 35.0857 86.1933 34.9995 86.2602 34.8943C86.3367 34.7985 86.4323 34.7028 86.5565 34.6071C86.9771 34.32 87.3785 34.0999 87.7799 33.9372C88.1814 33.7745 88.5063 33.6979 88.7548 33.6979C89.0129 33.6979 89.2041 33.7936 89.3092 33.9946C89.4143 34.186 89.4717 34.5497 89.4717 35.0665V48.3696C89.4717 48.7715 89.4812 49.0874 89.5099 49.3075C89.5386 49.5276 89.5864 49.6903 89.6533 49.7764C89.7489 49.9104 89.9783 50.054 90.3415 50.2263C90.7142 50.3985 90.8958 50.5899 90.8958 50.8101C90.8958 50.9632 90.8385 51.078 90.7142 51.1546C90.59 51.2312 90.4084 51.2599 90.1407 51.2599H88.9556C88.5924 51.2599 88.3439 51.1929 88.2292 51.0493C88.1145 50.9153 87.9902 50.5612 87.866 49.9966ZM87.627 42.4071C87.2542 42.0052 86.805 41.6893 86.2793 41.4788C85.7632 41.2587 85.2184 41.1534 84.6449 41.1534C83.5266 41.1534 82.6378 41.5841 81.9591 42.4454C81.2901 43.3068 80.946 44.4744 80.946 45.9291C80.946 47.2594 81.2614 48.3121 81.8827 49.0682C82.5039 49.8339 83.3642 50.2167 84.4442 50.2167C84.9795 50.2167 85.486 50.1305 85.983 49.9678C86.4801 49.7956 86.891 49.5659 87.216 49.2788C87.3594 49.1544 87.4645 49.0108 87.5314 48.8385C87.5888 48.6663 87.627 48.3983 87.627 48.025V47.8432V42.4071Z" fill="white"/>
<path d="M105.224 51.7766C102.71 51.7766 100.703 50.9727 99.2022 49.3649C97.7016 47.757 96.9561 45.5941 96.9561 42.8952C96.9561 41.5649 97.1472 40.359 97.5391 39.2775C97.931 38.196 98.514 37.2294 99.2978 36.3872C100.129 35.4876 101.076 34.8176 102.156 34.3774C103.236 33.9372 104.43 33.7075 105.768 33.7075C106.925 33.7075 108.034 33.8702 109.076 34.1956C110.117 34.521 110.806 34.8846 111.14 35.277C111.274 35.4206 111.369 35.746 111.427 36.2532C111.484 36.7605 111.522 37.44 111.522 38.3205C111.522 38.5597 111.494 38.7224 111.427 38.8086C111.369 38.8947 111.255 38.933 111.092 38.933C110.806 38.933 110.576 38.7128 110.395 38.2822C110.261 37.9663 110.127 37.7079 110.003 37.507C109.458 36.6743 108.808 36.0331 108.043 35.6024C107.279 35.1717 106.418 34.9612 105.472 34.9612C103.675 34.9612 102.222 35.679 101.104 37.105C99.9859 38.5406 99.422 40.4164 99.422 42.7325C99.422 45.0485 99.9859 46.8765 101.104 48.226C102.222 49.5754 103.742 50.2453 105.663 50.2453C106.438 50.2453 107.154 50.1305 107.804 49.9008C108.464 49.6711 109.123 49.3074 109.802 48.7906C110.079 48.5705 110.414 48.2355 110.796 47.7857C111.178 47.3359 111.455 47.1062 111.628 47.1062C111.78 47.1062 111.924 47.1636 112.039 47.288C112.163 47.4125 112.22 47.5464 112.22 47.6996C112.22 47.9676 112.086 48.3121 111.828 48.7236C111.561 49.1352 111.226 49.518 110.806 49.853C110.012 50.5037 109.152 50.9823 108.244 51.2981C107.336 51.6139 106.313 51.7766 105.224 51.7766Z" fill="white"/>
<path d="M113.949 36.5978C113.949 36.3298 113.921 36.1384 113.863 36.0331C113.806 35.9279 113.691 35.813 113.529 35.7077C113.462 35.6599 113.357 35.6025 113.223 35.5355C112.946 35.3919 112.803 35.2483 112.803 35.0856C112.803 34.9708 112.841 34.856 112.927 34.7507C113.013 34.6454 113.156 34.5401 113.347 34.4444L113.414 34.4061C114.389 33.8893 115.049 33.6309 115.374 33.6309C115.536 33.6309 115.651 33.7075 115.708 33.851C115.765 33.9946 115.804 34.3296 115.804 34.856V49.317C115.804 49.518 115.832 49.6903 115.89 49.8243C115.947 49.9583 116.014 50.0444 116.1 50.0827C116.176 50.1114 116.301 50.1593 116.463 50.2262C116.912 50.3985 117.132 50.5995 117.132 50.8196C117.132 50.9823 117.065 51.0972 116.932 51.1737C116.798 51.2407 116.54 51.279 116.176 51.279H113.672C113.338 51.279 113.108 51.2503 112.984 51.1833C112.86 51.1163 112.793 51.011 112.793 50.8483C112.793 50.7431 112.822 50.6378 112.889 50.5612C112.955 50.4751 113.07 50.3889 113.242 50.3028C113.3 50.2741 113.386 50.2358 113.491 50.1975C113.797 50.0731 113.959 49.7956 113.959 49.3745V36.5978H113.949Z" fill="white"/>
<path d="M119.924 47.1828C120.115 48.0824 120.526 48.7907 121.166 49.317C121.797 49.8434 122.562 50.1018 123.441 50.1018C123.909 50.1018 124.359 50.0444 124.769 49.9296C125.19 49.8147 125.591 49.6329 126.002 49.384C126.194 49.2692 126.433 49.0969 126.719 48.8864C127.111 48.5992 127.369 48.4557 127.494 48.4557C127.618 48.4557 127.723 48.5035 127.799 48.5992C127.876 48.695 127.924 48.8098 127.924 48.9629C127.924 49.2022 127.761 49.4893 127.446 49.8338C127.121 50.1688 126.7 50.4942 126.165 50.81C125.716 51.078 125.247 51.2694 124.741 51.4034C124.244 51.5374 123.718 51.6044 123.173 51.6044C121.539 51.6044 120.239 51.1163 119.264 50.1497C118.289 49.1735 117.802 47.8815 117.802 46.2545C117.802 44.4743 118.375 42.9813 119.532 41.7754C120.688 40.5696 122.112 39.9666 123.804 39.9666C125.094 39.9666 126.088 40.2346 126.786 40.7705C127.484 41.3065 127.828 42.0626 127.828 43.0388C127.828 44.1968 127.188 45.106 125.897 45.7759C124.607 46.4363 122.619 46.9053 119.924 47.1828ZM119.752 45.9865C121.854 45.7855 123.393 45.4314 124.378 44.9146C125.362 44.4073 125.859 43.7183 125.859 42.8473C125.859 42.2731 125.658 41.8233 125.267 41.4883C124.865 41.1629 124.32 41.0002 123.623 41.0002C122.485 41.0002 121.558 41.4405 120.832 42.3305C120.105 43.2206 119.752 44.3691 119.752 45.7855V45.9865Z" fill="white"/>
<path d="M137.415 49.4319C136.908 50.1497 136.277 50.6856 135.541 51.0493C134.796 51.413 133.945 51.5948 132.98 51.5948C131.833 51.5948 130.915 51.2886 130.237 50.676C129.558 50.0635 129.224 49.2405 129.224 48.1973C129.224 46.7808 129.845 45.6994 131.097 44.9433C132.349 44.1872 134.156 43.8044 136.507 43.8044H137.023C136.927 42.9813 136.583 42.3401 135.991 41.8711C135.389 41.4118 134.605 41.1725 133.63 41.1725C133.075 41.1725 132.483 41.3543 131.843 41.7276C131.212 42.1008 130.801 42.2827 130.619 42.2827C130.399 42.2827 130.227 42.2253 130.084 42.1008C129.94 41.9764 129.874 41.8329 129.874 41.6414C129.874 41.1534 130.237 40.7514 130.954 40.4356C131.67 40.1197 132.607 39.957 133.773 39.957C135.685 39.957 137.061 40.4068 137.902 41.3065C138.753 42.2061 139.173 43.6704 139.173 45.7185V49.25C139.173 49.4223 139.193 49.5563 139.24 49.6616C139.288 49.7668 139.403 49.9008 139.604 50.0635C139.67 50.1114 139.785 50.1688 139.938 50.2358C140.292 50.3889 140.464 50.5708 140.464 50.7909C140.464 51.0206 140.34 51.1737 140.081 51.2598C139.833 51.3364 139.202 51.3843 138.189 51.3843C137.893 51.3843 137.692 51.3268 137.577 51.2216C137.463 51.1067 137.405 50.9057 137.405 50.6186V49.4319H137.415ZM137.271 44.8763H136.956C135.15 44.8763 133.754 45.1634 132.77 45.7281C131.785 46.2927 131.298 47.0967 131.298 48.1303C131.298 48.7524 131.508 49.2692 131.938 49.6616C132.368 50.0635 132.923 50.2549 133.611 50.2549C133.993 50.2549 134.375 50.2071 134.748 50.1018C135.121 50.0061 135.455 49.8625 135.752 49.6807C136.325 49.3266 136.717 48.9438 136.937 48.5418C137.157 48.1399 137.262 47.5752 137.262 46.8478V44.8763H137.271Z" fill="white"/>
<path d="M142.681 49.2979V43.9862C142.681 43.2397 142.652 42.7421 142.595 42.5124C142.538 42.2827 142.442 42.12 142.289 42.0051C142.194 41.9381 142.012 41.852 141.754 41.7467C141.486 41.6414 141.353 41.4979 141.353 41.316C141.353 41.1055 141.591 40.8279 142.06 40.4738C142.528 40.1197 142.92 39.9474 143.216 39.9474C143.436 39.9474 143.637 40.1101 143.809 40.4355C143.991 40.7609 144.143 41.2395 144.287 41.8903C144.784 41.249 145.357 40.7705 145.998 40.4451C146.648 40.1197 147.355 39.957 148.12 39.957C149.429 39.957 150.404 40.3877 151.054 41.2395C151.704 42.1008 152.019 43.4024 152.019 45.1538V49.3553C152.019 49.6137 152.038 49.7955 152.067 49.9008C152.096 50.0061 152.153 50.0922 152.239 50.1401C152.306 50.1879 152.411 50.2454 152.545 50.3124C152.86 50.4846 153.023 50.6569 153.023 50.8483C153.023 50.9919 152.965 51.0971 152.841 51.1641C152.717 51.2216 152.516 51.2598 152.229 51.2598H149.869C149.582 51.2598 149.381 51.2311 149.267 51.1737C149.152 51.1163 149.085 51.0206 149.085 50.877C149.085 50.6856 149.209 50.5325 149.467 50.4176C149.544 50.3793 149.601 50.3506 149.63 50.3411C149.897 50.2071 150.06 50.0827 150.117 49.9678C150.175 49.853 150.194 49.6328 150.194 49.317V45.1347C150.194 43.8331 149.974 42.8856 149.534 42.2827C149.094 41.6893 148.406 41.383 147.46 41.383C146.562 41.383 145.845 41.6414 145.31 42.1678C144.774 42.6846 144.507 43.3928 144.507 44.2733V49.585C144.507 49.7477 144.516 49.8721 144.545 49.9487C144.564 50.0348 144.612 50.1018 144.669 50.1497C144.736 50.1975 144.851 50.2549 145.004 50.3315C145.3 50.4846 145.453 50.6473 145.453 50.8292C145.453 50.9919 145.396 51.1067 145.271 51.1641C145.157 51.2216 144.927 51.2598 144.593 51.2598H142.385C142.088 51.2598 141.888 51.2311 141.773 51.1833C141.668 51.1258 141.611 51.0397 141.611 50.9057C141.611 50.7909 141.639 50.6952 141.697 50.6186C141.754 50.542 141.888 50.4463 142.098 50.3315C142.127 50.3124 142.175 50.2932 142.222 50.2645C142.528 50.1114 142.681 49.786 142.681 49.2979Z" fill="white"/>
<path d="M36.5013 57.385C36.4248 57.3467 36.4248 57.3276 36.4248 57.184C36.4248 56.9256 36.4439 56.7151 36.4535 56.6289C36.463 56.5715 36.4726 56.5428 36.4917 56.5428C36.5204 56.5428 36.5299 56.5619 36.5299 56.6002C36.5299 56.6481 36.5299 56.7246 36.5491 56.7916C36.6255 57.1745 36.9696 57.318 37.3137 57.318C37.8107 57.318 38.0592 56.9639 38.0592 56.6289C38.0592 56.2748 37.9063 56.0643 37.4666 55.691L37.2372 55.4996C36.6829 55.0498 36.5586 54.7244 36.5586 54.3703C36.5586 53.8152 36.9696 53.4324 37.6291 53.4324C37.8298 53.4324 37.9827 53.4515 38.107 53.4802C38.2026 53.4994 38.2504 53.5089 38.2886 53.5089C38.3268 53.5089 38.3364 53.5185 38.3364 53.5472C38.3364 53.5759 38.3173 53.7482 38.3173 54.1023C38.3173 54.1884 38.3077 54.2172 38.279 54.2172C38.2504 54.2172 38.2408 54.1884 38.2408 54.1502C38.2313 54.0927 38.2026 53.9492 38.1739 53.8918C38.1452 53.8343 38.0019 53.6142 37.524 53.6142C37.1703 53.6142 36.8836 53.8343 36.8836 54.2172C36.8836 54.5138 37.0174 54.7053 37.5144 55.0881L37.6578 55.2029C38.2695 55.6815 38.4129 56.0069 38.4129 56.428C38.4129 56.6385 38.3268 57.0309 37.9732 57.2893C37.7534 57.4424 37.4666 57.5094 37.1894 57.5094C36.96 57.519 36.7211 57.4807 36.5013 57.385Z" fill="white"/>
<path d="M40.9937 54.0449C42.0164 54.0449 42.8002 54.6765 42.8002 55.7006C42.8002 56.6863 42.0642 57.4998 40.9651 57.4998C39.713 57.4998 39.1777 56.5619 39.1777 55.7676C39.1777 55.0593 39.7321 54.0449 40.9937 54.0449ZM41.0893 57.3276C41.5003 57.3276 42.3223 57.1074 42.3223 55.8346C42.3223 54.7722 41.6819 54.2171 40.9555 54.2171C40.1909 54.2171 39.6461 54.6957 39.6461 55.6527C39.6556 56.6768 40.2673 57.3276 41.0893 57.3276Z" fill="white"/>
<path d="M45.82 57.0309C45.3708 56.648 45.2656 56.1408 45.2656 55.7197C45.2656 55.423 45.3708 54.9062 45.7818 54.5138C46.0589 54.2458 46.4699 54.0449 47.1772 54.0449C47.3588 54.0449 47.6169 54.064 47.8367 54.0927C48.0088 54.1214 48.1521 54.1501 48.305 54.1597C48.3528 54.1597 48.3624 54.1788 48.3624 54.2076C48.3624 54.2458 48.3528 54.2937 48.3433 54.4564C48.3337 54.6 48.3337 54.8488 48.3337 54.9062C48.3242 54.9732 48.3051 55.0019 48.2859 55.0019C48.2573 55.0019 48.2477 54.9732 48.2477 54.9062C48.2477 54.7339 48.1712 54.5617 48.0565 54.466C47.8941 54.332 47.5595 54.2171 47.1581 54.2171C46.5751 54.2171 46.2883 54.3703 46.1354 54.5234C45.8009 54.8392 45.7244 55.2316 45.7244 55.6814C45.7244 56.5236 46.3935 57.2797 47.3684 57.2797C47.7125 57.2797 47.9418 57.251 48.1234 57.0691C48.219 56.9734 48.2859 56.782 48.2955 56.6959C48.305 56.648 48.3146 56.6289 48.3433 56.6289C48.3624 56.6289 48.3815 56.6576 48.3815 56.6959C48.3815 56.7246 48.3242 57.1074 48.2764 57.2606C48.2477 57.3467 48.2381 57.3563 48.1617 57.3945C47.9705 57.4711 47.636 57.4903 47.3397 57.4903C46.642 57.5094 46.1736 57.3467 45.82 57.0309Z" fill="white"/>
<path d="M49.9015 56.1791C49.9015 56.8299 49.9111 57.0979 49.9971 57.1745C50.0735 57.251 50.2456 57.2797 50.6088 57.2797C50.8477 57.2797 51.0485 57.2702 51.1631 57.1458C51.2205 57.0788 51.2587 56.9831 51.2683 56.8969C51.2778 56.8682 51.2874 56.8395 51.3161 56.8395C51.3352 56.8395 51.3447 56.8586 51.3447 56.9065C51.3447 56.9543 51.3161 57.2223 51.2778 57.3467C51.2492 57.452 51.2301 57.4712 50.9911 57.4712C50.6661 57.4712 50.4081 57.4616 50.1978 57.452C49.9875 57.4424 49.8346 57.4424 49.7008 57.4424C49.6817 57.4424 49.6052 57.4424 49.5096 57.452C49.414 57.4616 49.3185 57.4616 49.242 57.4616C49.1942 57.4616 49.1655 57.452 49.1655 57.4233C49.1655 57.4042 49.1751 57.385 49.2038 57.385C49.242 57.385 49.2993 57.3754 49.3471 57.3659C49.4332 57.3467 49.4427 57.2606 49.4618 57.1362C49.4905 56.9543 49.4905 56.6098 49.4905 56.1791V55.4039C49.4905 54.7148 49.4905 54.5904 49.481 54.4564C49.4714 54.3033 49.4427 54.2363 49.2898 54.2076C49.2516 54.198 49.1751 54.198 49.1369 54.198C49.1177 54.198 49.0986 54.1789 49.0986 54.1597C49.0986 54.131 49.1177 54.1215 49.1751 54.1215C49.3854 54.1215 49.6721 54.131 49.6912 54.131C49.7103 54.131 50.0544 54.1215 50.1978 54.1215C50.2456 54.1215 50.2743 54.131 50.2743 54.1597C50.2743 54.1789 50.2551 54.1885 50.236 54.1885C50.2074 54.1885 50.1404 54.198 50.0831 54.198C49.9493 54.2267 49.9206 54.2937 49.9111 54.4469C49.9015 54.5904 49.9015 54.7148 49.9015 55.3943V56.1791Z" fill="white"/>
<path d="M52.3196 55.3848C52.3196 54.6957 52.3196 54.5713 52.3101 54.4373C52.3005 54.2841 52.2718 54.2172 52.1189 54.1884C52.0807 54.1789 52.0042 54.1789 51.966 54.1789C51.9469 54.1789 51.9277 54.1597 51.9277 54.1406C51.9277 54.1119 51.9468 54.1023 52.0042 54.1023C52.2145 54.1023 52.5108 54.1119 52.5299 54.1119C52.5586 54.1119 53.5144 54.1214 53.6195 54.1119C53.7055 54.1023 53.7915 54.0927 53.8298 54.0832C53.8489 54.0736 53.868 54.064 53.8967 54.064C53.9158 54.064 53.9158 54.0832 53.9158 54.1023C53.9158 54.131 53.8871 54.1884 53.8776 54.3129C53.868 54.3511 53.8584 54.5521 53.8489 54.6C53.8393 54.6191 53.8298 54.6478 53.8106 54.6478C53.782 54.6478 53.7724 54.6287 53.7724 54.5904C53.7724 54.5617 53.7629 54.4851 53.7437 54.4373C53.7151 54.3607 53.6673 54.332 53.4188 54.3033C53.3423 54.2937 52.8071 54.2841 52.7593 54.2841C52.7402 54.2841 52.7306 54.3033 52.7306 54.332V55.5283C52.7306 55.557 52.7306 55.5762 52.7593 55.5762C52.8166 55.5762 53.4188 55.5762 53.5239 55.5666C53.629 55.557 53.696 55.5475 53.7437 55.5092C53.7724 55.4805 53.7915 55.4518 53.8106 55.4518C53.8298 55.4518 53.8393 55.4613 53.8393 55.49C53.8393 55.5187 53.8107 55.5857 53.8011 55.7389C53.7915 55.825 53.782 55.9973 53.782 56.026C53.782 56.0643 53.7724 56.1121 53.7437 56.1121C53.7246 56.1121 53.7151 56.093 53.7151 56.0738C53.7151 56.0356 53.7151 55.9877 53.696 55.9303C53.6768 55.8633 53.6386 55.8154 53.4666 55.7963C53.3423 55.7772 52.8549 55.7772 52.7784 55.7772C52.7497 55.7772 52.7497 55.7963 52.7497 55.8059V56.1791C52.7497 56.3322 52.7402 56.8395 52.7497 56.9352C52.7593 57.2319 52.8453 57.2893 53.2945 57.2893C53.4188 57.2893 53.6291 57.2893 53.7533 57.2414C53.8776 57.1936 53.9349 57.1075 53.9636 56.9352C53.9731 56.8873 53.9827 56.8682 54.0114 56.8682C54.04 56.8682 54.04 56.9065 54.04 56.9352C54.04 56.9639 54.0018 57.2702 53.9827 57.3563C53.954 57.4711 53.9062 57.4711 53.7246 57.4711C53.3805 57.4711 53.1129 57.4616 52.9313 57.452C52.7402 57.4424 52.6159 57.4424 52.549 57.4424C52.5394 57.4424 52.4534 57.4424 52.3483 57.452C52.2623 57.4616 52.1571 57.4616 52.0807 57.4616C52.0329 57.4616 52.0042 57.452 52.0042 57.4233C52.0042 57.4041 52.0138 57.385 52.0424 57.385C52.0807 57.385 52.138 57.3659 52.1858 57.3659C52.2718 57.3467 52.2814 57.2606 52.3005 57.1362C52.3292 56.9543 52.3292 56.6098 52.3292 56.1791V55.3848H52.3196Z" fill="white"/>
<path d="M56.1237 54.198C56.181 54.0545 56.2001 54.0258 56.2288 54.0258C56.2766 54.0258 56.2957 54.0832 56.3339 54.1885C56.42 54.3799 57.1464 56.1983 57.4331 56.8682C57.5956 57.2606 57.7198 57.318 57.825 57.3563C57.8919 57.3754 57.9588 57.385 58.0066 57.385C58.0353 57.385 58.0639 57.3946 58.0639 57.4233C58.0639 57.452 58.0161 57.4616 57.9588 57.4616C57.8919 57.4616 57.5574 57.4616 57.2419 57.452C57.1559 57.4424 57.0795 57.4424 57.0795 57.4233C57.0795 57.4042 57.089 57.4042 57.1081 57.3946C57.1368 57.385 57.1846 57.3467 57.1464 57.2702L56.7354 56.2557C56.7258 56.2366 56.7163 56.227 56.6971 56.227H55.6458C55.6267 56.227 55.6075 56.2366 55.598 56.2653L55.3399 56.9735C55.3017 57.0788 55.273 57.1936 55.273 57.2702C55.273 57.3563 55.3495 57.3946 55.4259 57.3946H55.4642C55.5024 57.3946 55.512 57.4137 55.512 57.4329C55.512 57.4616 55.4833 57.4712 55.4451 57.4712C55.3399 57.4712 55.0914 57.452 55.0341 57.452C54.9863 57.452 54.7569 57.4712 54.5753 57.4712C54.5179 57.4712 54.4893 57.4616 54.4893 57.4329C54.4893 57.4137 54.5084 57.3946 54.5275 57.3946C54.5562 57.3946 54.6231 57.385 54.6613 57.385C54.8716 57.3563 54.9576 57.2032 55.0436 56.9831L56.1237 54.198ZM56.6398 56.0356C56.6589 56.0356 56.6589 56.026 56.6589 56.0069L56.2097 54.801C56.181 54.734 56.1619 54.734 56.1332 54.801L55.7031 56.0069C55.6936 56.026 55.7031 56.0356 55.7222 56.0356H56.6398Z" fill="white"/>
<path d="M59.1726 56.849C59.1822 57.2127 59.2204 57.318 59.3447 57.3563C59.4307 57.3754 59.5358 57.385 59.574 57.385C59.5932 57.385 59.6123 57.4041 59.6123 57.4233C59.6123 57.452 59.5836 57.4615 59.5263 57.4615C59.2682 57.4615 59.0866 57.4424 59.0484 57.4424C59.0101 57.4424 58.819 57.4615 58.6087 57.4615C58.5609 57.4615 58.5322 57.452 58.5322 57.4233C58.5322 57.4041 58.5513 57.385 58.5705 57.385C58.6087 57.385 58.6947 57.3754 58.7616 57.3563C58.8763 57.3276 58.8954 57.2031 58.8954 56.8012V54.265C58.8954 54.0927 58.9241 54.0449 58.9623 54.0449C59.0101 54.0449 59.0961 54.131 59.1344 54.1788C59.2108 54.2554 59.8703 54.9541 60.5776 55.6814C61.0268 56.1504 61.5143 56.6768 61.6577 56.8203L61.6099 54.6095C61.6003 54.3224 61.5812 54.2267 61.4378 54.198C61.3518 54.1788 61.2467 54.1788 61.218 54.1788C61.1893 54.1788 61.1798 54.1501 61.1798 54.1406C61.1798 54.1119 61.218 54.1119 61.2658 54.1119C61.4761 54.1119 61.6959 54.1214 61.7437 54.1214C61.7915 54.1214 61.9444 54.1119 62.1356 54.1119C62.1834 54.1119 62.2216 54.1214 62.2216 54.1406C62.2216 54.1597 62.2025 54.1788 62.1738 54.1788C62.1547 54.1788 62.1165 54.1788 62.0687 54.1884C61.9157 54.2171 61.9062 54.3128 61.9062 54.5712L61.8966 57.1553C61.8966 57.4424 61.8871 57.4711 61.8584 57.4711C61.8106 57.4711 61.7628 57.4328 61.5143 57.2031C61.4665 57.1649 60.807 56.5141 60.3291 56.0068C59.8034 55.4517 59.2873 54.9062 59.1439 54.7531L59.1726 56.849Z" fill="white"/>
<path d="M65.7196 56.3035C65.7196 56.0643 65.6909 55.9781 65.624 55.8537C65.5858 55.7867 64.9741 54.801 64.8116 54.5713C64.7065 54.4086 64.5918 54.3033 64.5153 54.2459C64.4484 54.2076 64.3624 54.1885 64.3242 54.1885C64.2955 54.1885 64.2764 54.1693 64.2764 54.1502C64.2764 54.131 64.2955 54.1215 64.3337 54.1215C64.4197 54.1215 64.7638 54.131 64.7829 54.131C64.8116 54.131 65.0028 54.1215 65.1748 54.1215C65.2226 54.1215 65.2417 54.131 65.2417 54.1502C65.2417 54.1693 65.213 54.1789 65.1653 54.198C65.127 54.2172 65.1079 54.2363 65.1079 54.2746C65.1079 54.3416 65.1366 54.3894 65.1748 54.4469L66.0064 55.825C66.1019 55.6336 66.6659 54.6957 66.7519 54.5426C66.8092 54.4469 66.8283 54.3703 66.8283 54.3129C66.8283 54.2554 66.8092 54.2172 66.7519 54.198C66.7136 54.1885 66.685 54.1693 66.685 54.1502C66.685 54.131 66.7136 54.1215 66.7614 54.1215C66.8857 54.1215 67.0386 54.131 67.0768 54.131C67.1055 54.131 67.4305 54.1215 67.5261 54.1215C67.5547 54.1215 67.5834 54.131 67.5834 54.1502C67.5834 54.1693 67.5643 54.198 67.5261 54.198C67.4783 54.198 67.3827 54.2172 67.3158 54.2555C67.2298 54.3033 67.182 54.3512 67.0864 54.4756C66.9335 54.6478 66.2931 55.691 66.1975 55.8824C66.121 56.0356 66.1402 56.1791 66.1402 56.3227V56.7055C66.1402 56.7821 66.1402 56.9639 66.1593 57.1458C66.1688 57.2797 66.1975 57.3563 66.3313 57.3754C66.3982 57.385 66.4938 57.3946 66.5416 57.3946C66.5703 57.3946 66.5798 57.4137 66.5798 57.4329C66.5798 57.452 66.5512 57.4712 66.5034 57.4712C66.2453 57.4712 65.949 57.452 65.9299 57.452C65.9108 57.452 65.6145 57.4712 65.4807 57.4712C65.4329 57.4712 65.4042 57.4616 65.4042 57.4329C65.4042 57.4137 65.4138 57.3946 65.4424 57.3946C65.4807 57.3946 65.538 57.385 65.5762 57.3754C65.6718 57.3563 65.7005 57.2702 65.7101 57.1458C65.7196 56.9639 65.7196 56.7725 65.7196 56.7055V56.3035Z" fill="white"/>
<path d="M69.4381 54.0449C70.4608 54.0449 71.2445 54.6765 71.2445 55.7006C71.2445 56.6863 70.5086 57.4998 69.4094 57.4998C68.1573 57.4998 67.6221 56.5619 67.6221 55.7676C67.6221 55.0593 68.1764 54.0449 69.4381 54.0449ZM69.5337 57.3276C69.9446 57.3276 70.7666 57.1074 70.7666 55.8346C70.7666 54.7722 70.1262 54.2171 69.3998 54.2171C68.6352 54.2171 68.0904 54.6957 68.0904 55.6527C68.1 56.6768 68.7117 57.3276 69.5337 57.3276Z" fill="white"/>
<path d="M72.1243 55.3847C72.1243 54.6957 72.1243 54.5713 72.1147 54.4373C72.1052 54.2937 72.0765 54.2171 71.9236 54.1884C71.8853 54.1789 71.8089 54.1789 71.7707 54.1789C71.7515 54.1789 71.7324 54.1597 71.7324 54.1406C71.7324 54.1119 71.7515 54.1023 71.8089 54.1023C72.0192 54.1023 72.2868 54.1119 72.3346 54.1119C72.3728 54.1119 72.6595 54.1023 72.7934 54.1023C72.8411 54.1023 72.8698 54.1119 72.8698 54.1406C72.8698 54.1597 72.8507 54.1789 72.8316 54.1789C72.8029 54.1789 72.7742 54.1789 72.7169 54.1884C72.5926 54.2076 72.5735 54.2841 72.564 54.4373C72.5544 54.5808 72.5544 54.7052 72.5544 55.3847V56.0068C72.5544 56.6481 72.6978 56.9065 72.8889 57.0883C73.1088 57.2893 73.3095 57.3276 73.5675 57.3276C73.8447 57.3276 74.1219 57.2032 74.2748 57.0117C74.4851 56.7533 74.5329 56.3897 74.5329 55.9398V55.3847C74.5329 54.6957 74.5233 54.5713 74.5233 54.4373C74.5138 54.2937 74.4947 54.2171 74.3417 54.1884C74.3035 54.1789 74.227 54.1789 74.1888 54.1789C74.1697 54.1789 74.1506 54.1597 74.1506 54.1406C74.1506 54.1119 74.1697 54.1023 74.227 54.1023C74.4278 54.1023 74.6954 54.1119 74.7241 54.1119C74.7527 54.1119 74.9726 54.1023 75.1064 54.1023C75.1542 54.1023 75.1828 54.1119 75.1828 54.1406C75.1828 54.1597 75.1637 54.1789 75.1446 54.1789C75.1159 54.1789 75.0873 54.1789 75.0299 54.1884C74.9057 54.2171 74.877 54.2841 74.8674 54.4373C74.8579 54.5808 74.8579 54.7052 74.8579 55.3847V55.8537C74.8579 56.3322 74.8005 56.8682 74.4373 57.1744C74.1028 57.4616 73.7491 57.4998 73.4815 57.4998C73.3286 57.4998 72.8507 57.4903 72.5353 57.184C72.3155 56.9735 72.1339 56.6672 72.1339 56.026V55.3847H72.1243Z" fill="white"/>
<path d="M76.2238 53.5855C76.2238 53.6716 76.1091 53.93 76.0614 54.5042C76.0422 54.7148 76.0327 54.7339 76.004 54.7339C75.9753 54.7339 75.9658 54.7052 75.9467 54.5042C75.8989 53.93 75.7842 53.6716 75.7842 53.5855C75.7842 53.5089 75.8702 53.5089 76.004 53.5089C76.1378 53.5089 76.2238 53.5089 76.2238 53.5855Z" fill="white"/>
<path d="M77.7531 56.1791C77.7531 56.8299 77.7626 57.0979 77.8486 57.1745C77.9251 57.251 78.0972 57.2797 78.4604 57.2797C78.6993 57.2797 78.9 57.2702 79.0147 57.1458C79.0721 57.0788 79.1103 56.9831 79.1198 56.8969C79.1294 56.8682 79.139 56.8395 79.1676 56.8395C79.1868 56.8395 79.1963 56.8586 79.1963 56.9065C79.1963 56.9543 79.1676 57.2223 79.1294 57.3467C79.1007 57.452 79.0816 57.4712 78.8427 57.4712C78.5177 57.4712 78.2596 57.4616 78.0494 57.452C77.8391 57.4424 77.6862 57.4424 77.5524 57.4424C77.5332 57.4424 77.4568 57.4424 77.3612 57.452C77.2656 57.4616 77.17 57.4616 77.0936 57.4616C77.0458 57.4616 77.0171 57.452 77.0171 57.4233C77.0171 57.4042 77.0267 57.385 77.0553 57.385C77.0936 57.385 77.1509 57.3754 77.1987 57.3659C77.2847 57.3467 77.2943 57.2606 77.3134 57.1362C77.3421 56.9543 77.3421 56.6098 77.3421 56.1791V55.4039C77.3421 54.7148 77.3421 54.5904 77.3325 54.4564C77.323 54.3033 77.2943 54.2363 77.1414 54.2076C77.1031 54.198 77.0267 54.198 76.9884 54.198C76.9693 54.198 76.9502 54.1789 76.9502 54.1597C76.9502 54.131 76.9693 54.1215 77.0267 54.1215C77.2369 54.1215 77.5237 54.131 77.5428 54.131C77.5619 54.131 77.906 54.1215 78.0494 54.1215C78.0971 54.1215 78.1258 54.131 78.1258 54.1597C78.1258 54.1789 78.1067 54.1885 78.0876 54.1885C78.0589 54.1885 77.992 54.198 77.9347 54.198C77.8009 54.2267 77.7722 54.2937 77.7626 54.4469C77.7531 54.5904 77.7531 54.7148 77.7531 55.3943V56.1791Z" fill="white"/>
<path d="M80.5822 56.1791C80.5822 56.8299 80.5917 57.0979 80.6777 57.1745C80.7542 57.251 80.9262 57.2797 81.2895 57.2797C81.5284 57.2797 81.7291 57.2702 81.8438 57.1458C81.9012 57.0788 81.9394 56.9831 81.949 56.8969C81.9585 56.8682 81.9681 56.8395 81.9967 56.8395C82.0159 56.8395 82.0254 56.8586 82.0254 56.9065C82.0254 56.9543 81.9967 57.2223 81.9585 57.3467C81.9298 57.452 81.9107 57.4712 81.6718 57.4712C81.3468 57.4712 81.0887 57.4616 80.8785 57.452C80.6682 57.4424 80.5153 57.4424 80.3814 57.4424C80.3623 57.4424 80.2859 57.4424 80.1903 57.452C80.0947 57.4616 79.9991 57.4616 79.9227 57.4616C79.8749 57.4616 79.8462 57.452 79.8462 57.4233C79.8462 57.4042 79.8558 57.385 79.8844 57.385C79.9227 57.385 79.98 57.3754 80.0278 57.3659C80.1138 57.3467 80.1234 57.2606 80.1425 57.1362C80.1712 56.9543 80.1712 56.6098 80.1712 56.1791V55.4039C80.1712 54.7148 80.1712 54.5904 80.1616 54.4564C80.1521 54.3033 80.1234 54.2363 79.9705 54.2076C79.9322 54.198 79.8558 54.198 79.8175 54.198C79.7984 54.198 79.7793 54.1789 79.7793 54.1597C79.7793 54.131 79.7984 54.1215 79.8558 54.1215C80.066 54.1215 80.3528 54.131 80.3719 54.131C80.391 54.131 80.7351 54.1215 80.8785 54.1215C80.9262 54.1215 80.9549 54.131 80.9549 54.1597C80.9549 54.1789 80.9358 54.1885 80.9167 54.1885C80.888 54.1885 80.8211 54.198 80.7638 54.198C80.63 54.2267 80.6013 54.2937 80.5917 54.4469C80.5822 54.5904 80.5822 54.7148 80.5822 55.3943V56.1791Z" fill="white"/>
<path d="M85.8392 56.1695C85.8392 56.6002 85.8392 56.9447 85.8583 57.1266C85.8774 57.2606 85.8966 57.3371 86.0304 57.3563C86.0877 57.3658 86.1929 57.3754 86.2406 57.3754C86.2693 57.3754 86.2789 57.3945 86.2789 57.4137C86.2789 57.4328 86.2598 57.452 86.2024 57.452C85.9539 57.452 85.6672 57.4328 85.6385 57.4328C85.6194 57.4328 85.304 57.452 85.1702 57.452C85.1224 57.452 85.0937 57.4424 85.0937 57.4137C85.0937 57.3945 85.1033 57.385 85.1319 57.385C85.1702 57.385 85.2275 57.3754 85.2657 57.3658C85.3613 57.3467 85.39 57.2606 85.3995 57.1266C85.4187 56.9447 85.4187 56.6002 85.4187 56.1695V54.3128L84.7592 54.3224C84.4724 54.332 84.3673 54.3607 84.3004 54.466C84.2526 54.5425 84.243 54.5712 84.2239 54.6095C84.2144 54.6478 84.1952 54.6478 84.1761 54.6478C84.1666 54.6478 84.1475 54.6382 84.1475 54.6095C84.1475 54.5617 84.243 54.1693 84.243 54.131C84.2526 54.1023 84.2717 54.0449 84.2908 54.0449C84.3195 54.0449 84.3673 54.0831 84.4915 54.0927C84.6254 54.1119 84.7974 54.1119 84.8452 54.1119H86.5656C86.7185 54.1119 86.8237 54.1023 86.8906 54.0927C86.9575 54.0831 86.9957 54.0736 87.0244 54.0736C87.0435 54.0736 87.0435 54.1023 87.0435 54.1214C87.0435 54.2554 87.0244 54.5712 87.0244 54.6287C87.0244 54.6669 87.0053 54.6861 86.9862 54.6861C86.9671 54.6861 86.9575 54.6669 86.9479 54.6095L86.9384 54.5617C86.9193 54.4277 86.8237 54.332 86.384 54.3224L85.8105 54.3128V56.1695H85.8392Z" fill="white"/>
<path d="M90.9052 56.1695C90.9052 56.6002 90.9148 56.9448 90.9339 57.1266C90.953 57.2606 90.9626 57.3372 91.0964 57.3563C91.1537 57.3659 91.2589 57.3754 91.2971 57.3754C91.3258 57.3754 91.3353 57.3946 91.3353 57.4137C91.3353 57.4329 91.3067 57.452 91.2589 57.452C91.0104 57.452 90.7236 57.4329 90.695 57.4329C90.6759 57.4329 90.3796 57.452 90.2457 57.452C90.198 57.452 90.1693 57.4424 90.1693 57.4137C90.1693 57.3946 90.1788 57.3754 90.2075 57.3754C90.2457 57.3754 90.3031 57.3659 90.3413 57.3563C90.4369 57.3372 90.4465 57.251 90.4656 57.117C90.4847 56.9352 90.4847 56.6002 90.4847 56.1791V55.7389C90.4847 55.7197 90.4751 55.7102 90.456 55.7102H88.554C88.5349 55.7102 88.5253 55.7197 88.5253 55.7389V56.1791C88.5253 56.6098 88.5253 56.9448 88.5444 57.1266C88.5635 57.2606 88.5731 57.3372 88.7069 57.3563C88.7738 57.3659 88.8694 57.3754 88.9172 57.3754C88.9459 57.3754 88.9554 57.3946 88.9554 57.4137C88.9554 57.4329 88.9363 57.452 88.879 57.452C88.6209 57.452 88.3342 57.4329 88.315 57.4329C88.2864 57.4329 87.9996 57.452 87.8563 57.452C87.8085 57.452 87.7798 57.4424 87.7798 57.4137C87.7798 57.3946 87.7894 57.3754 87.818 57.3754C87.8563 57.3754 87.9136 57.3659 87.9614 57.3563C88.0474 57.3372 88.057 57.251 88.0761 57.1266C88.1048 56.9448 88.1048 56.6002 88.1048 56.1695V55.3943C88.1048 54.7052 88.1048 54.5808 88.0952 54.4468C88.0857 54.2937 88.057 54.2267 87.904 54.198C87.8658 54.1884 87.7894 54.1884 87.7511 54.1884C87.732 54.1884 87.7129 54.1693 87.7129 54.1502C87.7129 54.1214 87.732 54.1119 87.7894 54.1119C87.9996 54.1119 88.2864 54.1214 88.315 54.1214C88.3342 54.1214 88.6305 54.1119 88.7643 54.1119C88.8121 54.1119 88.8407 54.1214 88.8407 54.1502C88.8407 54.1693 88.8216 54.1884 88.8025 54.1884C88.7738 54.1884 88.7451 54.1884 88.6878 54.198C88.5635 54.2267 88.5349 54.2841 88.5253 54.4468C88.5158 54.5904 88.5158 54.7244 88.5158 55.4039V55.4996C88.5158 55.5283 88.5253 55.5283 88.5444 55.5283H90.4465C90.4656 55.5283 90.4751 55.5283 90.4751 55.4996V55.4039C90.4751 54.7148 90.4656 54.5808 90.4656 54.4468C90.456 54.2937 90.4369 54.2267 90.284 54.198C90.2457 54.1884 90.1693 54.1884 90.131 54.1884C90.1119 54.1884 90.0928 54.1693 90.0928 54.1502C90.0928 54.1214 90.1119 54.1119 90.1693 54.1119C90.37 54.1119 90.6663 54.1214 90.6854 54.1214C90.7141 54.1214 91.0008 54.1119 91.1346 54.1119C91.1824 54.1119 91.2111 54.1214 91.2111 54.1502C91.2111 54.1693 91.192 54.1884 91.1729 54.1884C91.1442 54.1884 91.1155 54.1884 91.0582 54.198C90.9339 54.2267 90.9148 54.2841 90.9052 54.4468C90.8957 54.5904 90.8957 54.7148 90.8957 55.3943V56.1695H90.9052Z" fill="white"/>
<path d="M92.8928 56.1695C92.8928 56.6002 92.8928 56.9448 92.9119 57.1266C92.931 57.2606 92.9406 57.3372 93.0744 57.3563C93.1413 57.3659 93.2369 57.3754 93.2846 57.3754C93.3133 57.3754 93.3229 57.3946 93.3229 57.4137C93.3229 57.4329 93.3038 57.452 93.2464 57.452C92.9884 57.452 92.6921 57.4329 92.6729 57.4329C92.6443 57.4329 92.3575 57.452 92.2237 57.452C92.1759 57.452 92.1473 57.4424 92.1473 57.4137C92.1473 57.3946 92.1568 57.3754 92.1855 57.3754C92.2237 57.3754 92.2811 57.3659 92.3289 57.3563C92.4149 57.3372 92.434 57.251 92.4436 57.1266C92.4627 56.9448 92.4722 56.6002 92.4722 56.1695V55.3943C92.4722 54.7052 92.4722 54.5808 92.4627 54.4468C92.4531 54.2937 92.4149 54.2267 92.3193 54.2076C92.2715 54.198 92.2142 54.1884 92.1759 54.1884C92.1568 54.1884 92.1377 54.1693 92.1377 54.1502C92.1377 54.1214 92.1568 54.1119 92.2142 54.1119C92.3671 54.1119 92.6538 54.1214 92.6729 54.1214C92.6921 54.1214 92.9884 54.1119 93.1317 54.1119C93.1795 54.1119 93.2082 54.1214 93.2082 54.1502C93.2082 54.1693 93.1891 54.1884 93.17 54.1884C93.1413 54.1884 93.1126 54.1884 93.0553 54.198C92.931 54.2267 92.9023 54.2841 92.8928 54.4468C92.8832 54.5904 92.8832 54.7148 92.8832 55.3943V56.1695H92.8928Z" fill="white"/>
<path d="M94.7185 56.849C94.7281 57.2127 94.7663 57.318 94.8906 57.3563C94.9766 57.3754 95.0817 57.385 95.1199 57.385C95.1391 57.385 95.1582 57.4041 95.1582 57.4233C95.1582 57.452 95.1295 57.4615 95.0722 57.4615C94.8141 57.4615 94.6325 57.4424 94.5943 57.4424C94.556 57.4424 94.3649 57.4615 94.1546 57.4615C94.1068 57.4615 94.0781 57.452 94.0781 57.4233C94.0781 57.4041 94.0972 57.385 94.1164 57.385C94.1546 57.385 94.2406 57.3754 94.3075 57.3563C94.4222 57.3276 94.4413 57.2031 94.4413 56.8012V54.265C94.4413 54.0927 94.47 54.0449 94.5082 54.0449C94.556 54.0449 94.642 54.131 94.6803 54.1788C94.7567 54.2554 95.4162 54.9541 96.1235 55.6814C96.5728 56.1504 97.0602 56.6768 97.2036 56.8203L97.1558 54.6095C97.1462 54.3224 97.1271 54.2267 96.9837 54.198C96.8977 54.1788 96.7926 54.1788 96.7639 54.1788C96.7352 54.1788 96.7257 54.1501 96.7257 54.1406C96.7257 54.1119 96.7639 54.1119 96.8117 54.1119C97.022 54.1119 97.2418 54.1214 97.2896 54.1214C97.3374 54.1214 97.4903 54.1119 97.6815 54.1119C97.7293 54.1119 97.7675 54.1214 97.7675 54.1406C97.7675 54.1597 97.7484 54.1788 97.7197 54.1788C97.7006 54.1788 97.6624 54.1788 97.6146 54.1884C97.4616 54.2171 97.4521 54.3128 97.4521 54.5712L97.4425 57.1553C97.4425 57.4424 97.433 57.4711 97.4043 57.4711C97.3565 57.4711 97.3087 57.4328 97.0602 57.2031C97.0124 57.1649 96.3529 56.5141 95.875 56.0068C95.3493 55.4517 94.8332 54.9062 94.6898 54.7531L94.7185 56.849Z" fill="white"/>
<path d="M98.886 55.3848C98.886 54.6957 98.886 54.5713 98.8765 54.4373C98.8669 54.2841 98.8382 54.2171 98.6853 54.1884C98.6471 54.1789 98.5706 54.1789 98.5324 54.1789C98.5133 54.1789 98.4941 54.1597 98.4941 54.1406C98.4941 54.1119 98.5133 54.1023 98.5706 54.1023C98.7809 54.1023 99.0581 54.1119 99.0867 54.1119C99.125 54.1119 99.4021 54.1023 99.536 54.1023C99.5837 54.1023 99.6124 54.1119 99.6124 54.1406C99.6124 54.1597 99.5933 54.1789 99.5742 54.1789C99.5455 54.1789 99.5168 54.1789 99.4595 54.1884C99.3448 54.2171 99.3066 54.2746 99.297 54.4373C99.2875 54.5808 99.2875 54.7052 99.2875 55.3848V55.6527H99.3066C99.383 55.5666 100.195 54.7627 100.367 54.5904C100.501 54.4564 100.616 54.3416 100.616 54.2746C100.616 54.2171 100.597 54.1884 100.559 54.1884C100.53 54.1789 100.52 54.1597 100.52 54.1501C100.52 54.131 100.54 54.1214 100.568 54.1214C100.664 54.1214 100.798 54.131 100.912 54.131C100.941 54.131 101.237 54.1214 101.352 54.1214C101.4 54.1214 101.419 54.131 101.419 54.1501C101.419 54.1693 101.409 54.1884 101.371 54.1884C101.304 54.1884 101.209 54.2171 101.113 54.2459C100.922 54.332 100.836 54.4277 100.635 54.6191C100.52 54.7244 99.7462 55.4709 99.6411 55.5762C99.7653 55.7101 100.712 56.6576 100.893 56.8299C101.275 57.1744 101.333 57.2319 101.543 57.318C101.667 57.3659 101.792 57.3754 101.82 57.3754C101.849 57.3754 101.878 57.3946 101.878 57.4137C101.878 57.4329 101.859 57.452 101.782 57.452H101.553C101.419 57.452 101.342 57.452 101.237 57.4424C100.998 57.4233 100.884 57.3276 100.683 57.1744C100.473 57.0117 99.5168 55.9973 99.297 55.7389H99.2779V56.1695C99.2779 56.6002 99.2779 56.9448 99.297 57.1266C99.3161 57.2606 99.3352 57.3371 99.469 57.3563C99.5264 57.3659 99.6029 57.3754 99.6411 57.3754C99.6698 57.3754 99.6793 57.3946 99.6793 57.4137C99.6793 57.4329 99.6602 57.452 99.6029 57.452C99.383 57.452 99.1058 57.4328 99.0676 57.4328C99.0294 57.4328 98.7522 57.452 98.6184 57.452C98.5706 57.452 98.5419 57.4424 98.5419 57.4137C98.5419 57.3946 98.5515 57.3754 98.5802 57.3754C98.6184 57.3754 98.6757 57.3659 98.7235 57.3563C98.8096 57.3371 98.8191 57.251 98.8382 57.1266C98.8669 56.9448 98.8669 56.6002 98.8669 56.1695V55.3848H98.886Z" fill="white"/>
<path d="M104.755 56.3035C104.755 56.0643 104.726 55.9781 104.659 55.8537C104.621 55.7867 104.009 54.801 103.847 54.5713C103.742 54.4086 103.627 54.3033 103.55 54.2459C103.484 54.2076 103.398 54.1885 103.359 54.1885C103.331 54.1885 103.312 54.1693 103.312 54.1502C103.312 54.131 103.331 54.1215 103.369 54.1215C103.455 54.1215 103.799 54.131 103.818 54.131C103.847 54.131 104.038 54.1215 104.21 54.1215C104.258 54.1215 104.277 54.131 104.277 54.1502C104.277 54.1693 104.248 54.1789 104.2 54.198C104.162 54.2172 104.143 54.2363 104.143 54.2746C104.143 54.3416 104.172 54.3894 104.21 54.4469L105.042 55.825C105.137 55.6336 105.701 54.6957 105.787 54.5426C105.844 54.4469 105.863 54.3703 105.863 54.3129C105.863 54.2554 105.844 54.2172 105.787 54.198C105.749 54.1885 105.72 54.1693 105.72 54.1502C105.72 54.131 105.749 54.1215 105.797 54.1215C105.921 54.1215 106.074 54.131 106.112 54.131C106.141 54.131 106.466 54.1215 106.561 54.1215C106.59 54.1215 106.619 54.131 106.619 54.1502C106.619 54.1693 106.599 54.198 106.561 54.198C106.513 54.198 106.418 54.2172 106.351 54.2555C106.265 54.3033 106.217 54.3512 106.122 54.4756C105.969 54.6478 105.328 55.691 105.233 55.8824C105.156 56.0356 105.175 56.1791 105.175 56.3227V56.7055C105.175 56.7821 105.175 56.9639 105.194 57.1458C105.204 57.2797 105.233 57.3563 105.366 57.3754C105.433 57.385 105.529 57.3946 105.577 57.3946C105.605 57.3946 105.615 57.4137 105.615 57.4329C105.615 57.452 105.586 57.4712 105.539 57.4712C105.28 57.4712 104.984 57.452 104.965 57.452C104.946 57.452 104.65 57.4712 104.516 57.4712C104.468 57.4712 104.439 57.4616 104.439 57.4329C104.439 57.4137 104.449 57.3946 104.478 57.3946C104.516 57.3946 104.573 57.385 104.611 57.3754C104.707 57.3563 104.736 57.2702 104.745 57.1458C104.755 56.9639 104.755 56.7725 104.755 56.7055V56.3035Z" fill="white"/>
<path d="M108.463 54.0449C109.486 54.0449 110.27 54.6765 110.27 55.7006C110.27 56.6863 109.534 57.4998 108.435 57.4998C107.183 57.4998 106.647 56.5619 106.647 55.7676C106.657 55.0593 107.211 54.0449 108.463 54.0449ZM108.569 57.3276C108.98 57.3276 109.802 57.1074 109.802 55.8346C109.802 54.7722 109.161 54.2171 108.435 54.2171C107.67 54.2171 107.125 54.6957 107.125 55.6527C107.125 56.6768 107.747 57.3276 108.569 57.3276Z" fill="white"/>
<path d="M111.158 55.3847C111.158 54.6957 111.158 54.5713 111.149 54.4373C111.139 54.2937 111.111 54.2171 110.958 54.1884C110.92 54.1789 110.843 54.1789 110.805 54.1789C110.786 54.1789 110.767 54.1597 110.767 54.1406C110.767 54.1119 110.786 54.1023 110.843 54.1023C111.053 54.1023 111.321 54.1119 111.369 54.1119C111.407 54.1119 111.694 54.1023 111.828 54.1023C111.875 54.1023 111.904 54.1119 111.904 54.1406C111.904 54.1597 111.885 54.1789 111.866 54.1789C111.837 54.1789 111.808 54.1789 111.751 54.1884C111.627 54.2076 111.608 54.2841 111.598 54.4373C111.589 54.5808 111.589 54.7052 111.589 55.3847V56.0068C111.589 56.6481 111.732 56.9065 111.923 57.0883C112.143 57.2893 112.344 57.3276 112.602 57.3276C112.879 57.3276 113.156 57.2032 113.309 57.0117C113.519 56.7533 113.567 56.3897 113.567 55.9398V55.3847C113.567 54.6957 113.558 54.5713 113.558 54.4373C113.548 54.2937 113.529 54.2171 113.376 54.1884C113.338 54.1789 113.261 54.1789 113.223 54.1789C113.204 54.1789 113.185 54.1597 113.185 54.1406C113.185 54.1119 113.204 54.1023 113.261 54.1023C113.462 54.1023 113.73 54.1119 113.758 54.1119C113.787 54.1119 114.007 54.1023 114.141 54.1023C114.188 54.1023 114.217 54.1119 114.217 54.1406C114.217 54.1597 114.198 54.1789 114.179 54.1789C114.15 54.1789 114.121 54.1789 114.064 54.1884C113.94 54.2171 113.911 54.2841 113.902 54.4373C113.892 54.5808 113.892 54.7052 113.892 55.3847V55.8537C113.892 56.3322 113.835 56.8682 113.471 57.1744C113.137 57.4616 112.783 57.4998 112.516 57.4998C112.363 57.4998 111.885 57.4903 111.569 57.184C111.35 56.9735 111.168 56.6672 111.168 56.026V55.3847H111.158Z" fill="white"/>
<path d="M115.259 53.5855C115.259 53.6716 115.144 53.93 115.097 54.5042C115.077 54.7148 115.068 54.7339 115.039 54.7339C115.01 54.7339 115.001 54.7052 114.982 54.5042C114.934 53.93 114.819 53.6716 114.819 53.5855C114.819 53.5089 114.905 53.5089 115.039 53.5089C115.173 53.5089 115.259 53.5089 115.259 53.5855Z" fill="white"/>
<path d="M116.367 55.3848C116.367 54.6957 116.367 54.5713 116.358 54.4373C116.348 54.2841 116.32 54.2171 116.167 54.1884C116.129 54.1789 116.052 54.1789 116.014 54.1789C115.995 54.1789 115.976 54.1597 115.976 54.1406C115.976 54.1119 115.995 54.1023 116.052 54.1023C116.262 54.1023 116.568 54.1119 116.587 54.1119C116.635 54.1119 117.017 54.1023 117.161 54.1023C117.448 54.1023 117.772 54.131 118.011 54.2937C118.126 54.3798 118.327 54.5904 118.327 54.8966C118.327 55.222 118.193 55.5379 117.763 55.9016C118.136 56.3705 118.451 56.7725 118.719 57.0405C118.967 57.2893 119.111 57.3276 119.225 57.3467C119.311 57.3659 119.359 57.3659 119.388 57.3659C119.416 57.3659 119.426 57.385 119.426 57.4041C119.426 57.4328 119.397 57.4424 119.321 57.4424H119.034C118.776 57.4424 118.661 57.4137 118.547 57.3563C118.346 57.251 118.183 57.0405 117.925 56.7055C117.734 56.4662 117.534 56.1791 117.428 56.0643C117.409 56.0451 117.4 56.0355 117.371 56.0355L116.788 56.026C116.769 56.026 116.759 56.0355 116.759 56.0643V56.1695C116.759 56.6002 116.759 56.9352 116.778 57.117C116.798 57.251 116.817 57.3276 116.96 57.3467C117.017 57.3563 117.123 57.3659 117.161 57.3659C117.189 57.3659 117.199 57.385 117.199 57.4041C117.199 57.4233 117.18 57.4424 117.123 57.4424C116.874 57.4424 116.587 57.4233 116.559 57.4233C116.549 57.4233 116.243 57.4424 116.109 57.4424C116.062 57.4424 116.033 57.4328 116.033 57.4041C116.033 57.385 116.042 57.3659 116.071 57.3659C116.109 57.3659 116.167 57.3563 116.215 57.3467C116.301 57.3276 116.31 57.2414 116.329 57.117C116.358 56.9352 116.358 56.5906 116.358 56.16V55.3848H116.367ZM116.769 55.758C116.769 55.7867 116.778 55.7963 116.798 55.8154C116.864 55.8537 117.094 55.8824 117.304 55.8824C117.409 55.8824 117.534 55.8728 117.648 55.8059C117.801 55.7006 117.925 55.4709 117.925 55.1263C117.925 54.5713 117.629 54.2554 117.142 54.2554C117.008 54.2554 116.864 54.2746 116.817 54.2841C116.798 54.2937 116.778 54.3128 116.778 54.332V55.758H116.769Z" fill="white"/>
<path d="M120.2 55.3848C120.2 54.6957 120.2 54.5713 120.191 54.4373C120.181 54.2841 120.153 54.2172 120 54.1884C119.962 54.1789 119.885 54.1789 119.847 54.1789C119.828 54.1789 119.809 54.1597 119.809 54.1406C119.809 54.1119 119.828 54.1023 119.885 54.1023C120.095 54.1023 120.392 54.1119 120.411 54.1119C120.439 54.1119 121.395 54.1214 121.5 54.1119C121.586 54.1023 121.672 54.0927 121.711 54.0832C121.73 54.0736 121.749 54.064 121.778 54.064C121.797 54.064 121.797 54.0832 121.797 54.1023C121.797 54.131 121.768 54.1884 121.758 54.3129C121.749 54.3511 121.739 54.5521 121.73 54.6C121.72 54.6191 121.711 54.6478 121.692 54.6478C121.663 54.6478 121.653 54.6287 121.653 54.5904C121.653 54.5617 121.644 54.4851 121.625 54.4373C121.596 54.3607 121.548 54.332 121.3 54.3033C121.223 54.2937 120.688 54.2841 120.64 54.2841C120.621 54.2841 120.611 54.3033 120.611 54.332V55.5283C120.611 55.557 120.611 55.5762 120.64 55.5762C120.697 55.5762 121.3 55.5762 121.405 55.5666C121.51 55.557 121.577 55.5475 121.625 55.5092C121.653 55.4805 121.672 55.4518 121.692 55.4518C121.711 55.4518 121.72 55.4613 121.72 55.49C121.72 55.5187 121.692 55.5857 121.682 55.7389C121.672 55.825 121.663 55.9973 121.663 56.026C121.663 56.0643 121.653 56.1121 121.625 56.1121C121.605 56.1121 121.596 56.093 121.596 56.0738C121.596 56.0356 121.596 55.9877 121.577 55.9303C121.558 55.8633 121.519 55.8154 121.347 55.7963C121.223 55.7772 120.736 55.7772 120.659 55.7772C120.631 55.7772 120.631 55.7963 120.631 55.8059V56.1791C120.631 56.3322 120.621 56.8395 120.631 56.9352C120.64 57.2319 120.726 57.2893 121.175 57.2893C121.3 57.2893 121.51 57.2893 121.634 57.2414C121.758 57.1936 121.816 57.1075 121.844 56.9352C121.854 56.8873 121.864 56.8682 121.892 56.8682C121.921 56.8682 121.921 56.9065 121.921 56.9352C121.921 56.9639 121.883 57.2702 121.864 57.3563C121.835 57.4711 121.787 57.4711 121.605 57.4711C121.261 57.4711 120.994 57.4616 120.812 57.452C120.621 57.4424 120.497 57.4424 120.43 57.4424C120.42 57.4424 120.334 57.4424 120.229 57.452C120.143 57.4616 120.038 57.4616 119.962 57.4616C119.914 57.4616 119.885 57.452 119.885 57.4233C119.885 57.4041 119.895 57.385 119.923 57.385C119.962 57.385 120.019 57.3659 120.067 57.3659C120.153 57.3467 120.162 57.2606 120.181 57.1362C120.21 56.9543 120.21 56.6098 120.21 56.1791V55.3848H120.2Z" fill="white"/>
<path d="M124.95 55.3847C124.95 54.6956 124.95 54.5712 124.941 54.4372C124.931 54.2841 124.903 54.2171 124.75 54.1884C124.712 54.1788 124.635 54.1788 124.597 54.1788C124.578 54.1788 124.559 54.1597 124.559 54.1405C124.559 54.1118 124.578 54.1023 124.635 54.1023C124.845 54.1023 125.142 54.1118 125.161 54.1118C125.209 54.1118 125.505 54.1023 125.772 54.1023C126.231 54.1023 127.063 54.064 127.608 54.6095C127.837 54.8392 128.057 55.2029 128.057 55.7293C128.057 56.2844 127.818 56.715 127.56 56.9734C127.359 57.1744 126.948 57.4807 126.174 57.4807C125.973 57.4807 125.734 57.4615 125.534 57.452C125.333 57.4328 125.18 57.4232 125.161 57.4232C125.151 57.4232 125.065 57.4328 124.97 57.4328C124.874 57.4424 124.769 57.4424 124.692 57.4424C124.645 57.4424 124.616 57.4328 124.616 57.4041C124.616 57.385 124.625 57.3658 124.654 57.3658C124.692 57.3658 124.75 57.3563 124.798 57.3467C124.884 57.3275 124.893 57.2414 124.912 57.117C124.941 56.9351 124.941 56.5906 124.941 56.1599V55.3847H124.95ZM125.361 55.8632C125.361 56.3322 125.361 56.7437 125.371 56.8203C125.381 56.9256 125.39 57.0883 125.419 57.1361C125.476 57.2223 125.639 57.3084 126.174 57.3084C126.594 57.3084 126.967 57.1648 127.244 56.9064C127.483 56.6863 127.598 56.2652 127.598 55.8537C127.598 55.289 127.359 54.9349 127.168 54.7435C126.738 54.3032 126.231 54.2458 125.686 54.2458C125.6 54.2458 125.457 54.265 125.409 54.2745C125.371 54.2937 125.352 54.3128 125.352 54.3607V55.8632H125.361Z" fill="white"/>
<path d="M129.089 55.3848C129.089 54.6957 129.089 54.5713 129.08 54.4373C129.07 54.2841 129.041 54.2171 128.888 54.1884C128.85 54.1789 128.774 54.1789 128.735 54.1789C128.716 54.1789 128.697 54.1597 128.697 54.1406C128.697 54.1119 128.716 54.1023 128.774 54.1023C128.984 54.1023 129.29 54.1119 129.309 54.1119C129.357 54.1119 129.739 54.1023 129.882 54.1023C130.169 54.1023 130.494 54.131 130.733 54.2937C130.848 54.3798 131.049 54.5904 131.049 54.8966C131.049 55.222 130.915 55.5379 130.485 55.9016C130.857 56.3705 131.173 56.7725 131.44 57.0405C131.689 57.2893 131.832 57.3276 131.947 57.3467C132.033 57.3659 132.081 57.3659 132.109 57.3659C132.138 57.3659 132.148 57.385 132.148 57.4041C132.148 57.4328 132.119 57.4424 132.043 57.4424H131.756C131.498 57.4424 131.383 57.4137 131.268 57.3563C131.068 57.251 130.905 57.0405 130.647 56.7055C130.456 56.4662 130.255 56.1791 130.15 56.0643C130.131 56.0451 130.121 56.0355 130.093 56.0355L129.51 56.026C129.491 56.026 129.481 56.0355 129.481 56.0643V56.1695C129.481 56.6002 129.481 56.9352 129.5 57.117C129.519 57.251 129.538 57.3276 129.682 57.3467C129.739 57.3563 129.844 57.3659 129.882 57.3659C129.911 57.3659 129.921 57.385 129.921 57.4041C129.921 57.4233 129.902 57.4424 129.844 57.4424C129.596 57.4424 129.309 57.4233 129.28 57.4233C129.271 57.4233 128.965 57.4424 128.831 57.4424C128.783 57.4424 128.755 57.4328 128.755 57.4041C128.755 57.385 128.764 57.3659 128.793 57.3659C128.831 57.3659 128.888 57.3563 128.936 57.3467C129.022 57.3276 129.032 57.2414 129.051 57.117C129.08 56.9352 129.08 56.5906 129.08 56.16V55.3848H129.089ZM129.481 55.758C129.481 55.7867 129.491 55.7963 129.51 55.8154C129.577 55.8537 129.806 55.8824 130.016 55.8824C130.121 55.8824 130.246 55.8728 130.36 55.8059C130.513 55.7006 130.638 55.4709 130.638 55.1263C130.638 54.5713 130.341 54.2554 129.844 54.2554C129.71 54.2554 129.567 54.2746 129.519 54.2841C129.5 54.2937 129.481 54.3128 129.481 54.332V55.758Z" fill="white"/>
<path d="M132.912 55.3848C132.912 54.6957 132.912 54.5713 132.903 54.4373C132.893 54.2841 132.865 54.2172 132.712 54.1884C132.673 54.1789 132.597 54.1789 132.559 54.1789C132.54 54.1789 132.521 54.1597 132.521 54.1406C132.521 54.1119 132.54 54.1023 132.597 54.1023C132.807 54.1023 133.104 54.1119 133.123 54.1119C133.151 54.1119 134.107 54.1214 134.212 54.1119C134.298 54.1023 134.384 54.0927 134.423 54.0832C134.442 54.0736 134.461 54.064 134.489 54.064C134.509 54.064 134.509 54.0832 134.509 54.1023C134.509 54.131 134.48 54.1884 134.47 54.3129C134.461 54.3511 134.451 54.5521 134.442 54.6C134.432 54.6191 134.423 54.6478 134.403 54.6478C134.375 54.6478 134.365 54.6287 134.365 54.5904C134.365 54.5617 134.356 54.4851 134.337 54.4373C134.308 54.3607 134.26 54.332 134.012 54.3033C133.935 54.2937 133.4 54.2841 133.352 54.2841C133.333 54.2841 133.323 54.3033 133.323 54.332V55.5283C133.323 55.557 133.323 55.5762 133.352 55.5762C133.409 55.5762 134.012 55.5762 134.117 55.5666C134.222 55.557 134.289 55.5475 134.337 55.5092C134.365 55.4805 134.384 55.4518 134.403 55.4518C134.423 55.4518 134.432 55.4613 134.432 55.49C134.432 55.5187 134.403 55.5857 134.394 55.7389C134.384 55.825 134.375 55.9973 134.375 56.026C134.375 56.0643 134.365 56.1121 134.337 56.1121C134.317 56.1121 134.308 56.093 134.308 56.0738C134.308 56.0356 134.308 55.9877 134.289 55.9303C134.27 55.8633 134.231 55.8154 134.059 55.7963C133.935 55.7772 133.448 55.7772 133.371 55.7772C133.342 55.7772 133.342 55.7963 133.342 55.8059V56.1791C133.342 56.3322 133.333 56.8395 133.342 56.9352C133.352 57.2319 133.438 57.2893 133.887 57.2893C134.012 57.2893 134.222 57.2893 134.346 57.2414C134.47 57.1936 134.528 57.1075 134.556 56.9352C134.566 56.8873 134.575 56.8682 134.604 56.8682C134.633 56.8682 134.633 56.9065 134.633 56.9352C134.633 56.9639 134.595 57.2702 134.575 57.3563C134.547 57.4711 134.499 57.4711 134.317 57.4711C133.973 57.4711 133.706 57.4616 133.524 57.452C133.333 57.4424 133.209 57.4424 133.142 57.4424C133.132 57.4424 133.046 57.4424 132.941 57.452C132.855 57.4616 132.75 57.4616 132.673 57.4616C132.626 57.4616 132.597 57.452 132.597 57.4233C132.597 57.4041 132.607 57.385 132.635 57.385C132.673 57.385 132.731 57.3659 132.779 57.3659C132.865 57.3467 132.874 57.2606 132.893 57.1362C132.922 56.9543 132.922 56.6098 132.922 56.1791V55.3848H132.912Z" fill="white"/>
<path d="M136.726 54.198C136.784 54.0545 136.803 54.0258 136.831 54.0258C136.879 54.0258 136.898 54.0832 136.936 54.1885C137.022 54.3799 137.749 56.1983 138.036 56.8682C138.198 57.2606 138.322 57.318 138.428 57.3563C138.494 57.3754 138.561 57.385 138.609 57.385C138.638 57.385 138.666 57.3946 138.666 57.4233C138.666 57.452 138.619 57.4616 138.561 57.4616C138.494 57.4616 138.16 57.4616 137.844 57.452C137.758 57.4424 137.682 57.4424 137.682 57.4233C137.682 57.4042 137.692 57.4042 137.711 57.3946C137.739 57.385 137.787 57.3467 137.749 57.2702L137.338 56.2557C137.328 56.2366 137.319 56.227 137.3 56.227H136.248C136.229 56.227 136.21 56.2366 136.201 56.2653L135.942 56.9735C135.904 57.0788 135.876 57.1936 135.876 57.2702C135.876 57.3563 135.952 57.3946 136.028 57.3946H136.067C136.105 57.3946 136.114 57.4137 136.114 57.4329C136.114 57.4616 136.086 57.4712 136.048 57.4712C135.942 57.4712 135.694 57.452 135.637 57.452C135.589 57.452 135.359 57.4712 135.178 57.4712C135.12 57.4712 135.092 57.4616 135.092 57.4329C135.092 57.4137 135.111 57.3946 135.13 57.3946C135.159 57.3946 135.226 57.385 135.264 57.385C135.474 57.3563 135.56 57.2032 135.646 56.9831L136.726 54.198ZM137.233 56.0356C137.252 56.0356 137.252 56.026 137.252 56.0069L136.803 54.801C136.774 54.734 136.755 54.734 136.726 54.801L136.296 56.0069C136.287 56.026 136.296 56.0356 136.315 56.0356H137.233Z" fill="white"/>
<path d="M143.063 56.8777C143.082 57.0309 143.111 57.2701 143.293 57.3371C143.426 57.3754 143.541 57.3754 143.589 57.3754C143.608 57.3754 143.627 57.385 143.627 57.4041C143.627 57.4328 143.589 57.4424 143.531 57.4424C143.426 57.4424 142.92 57.4328 142.757 57.4137C142.652 57.4041 142.623 57.385 142.623 57.3658C142.623 57.3467 142.633 57.3371 142.652 57.3276C142.681 57.318 142.681 57.251 142.671 57.1744L142.451 54.9445H142.442L141.343 57.2031C141.247 57.3945 141.228 57.4328 141.18 57.4328C141.142 57.4328 141.113 57.3945 141.027 57.2318C140.903 57.0117 140.607 56.4471 140.492 56.2078C140.358 55.9302 139.986 55.1837 139.909 55.0019H139.89L139.718 56.9926C139.708 57.0596 139.708 57.1457 139.708 57.2127C139.708 57.2797 139.747 57.318 139.813 57.3371C139.89 57.3563 139.957 57.3658 139.985 57.3658C140.005 57.3658 140.024 57.385 140.024 57.3945C140.024 57.4233 139.995 57.4328 139.938 57.4328C139.766 57.4328 139.546 57.4137 139.508 57.4137C139.469 57.4137 139.25 57.4328 139.125 57.4328C139.077 57.4328 139.049 57.4233 139.049 57.3945C139.049 57.3754 139.068 57.3658 139.097 57.3658C139.135 57.3658 139.164 57.3563 139.23 57.3467C139.383 57.318 139.383 57.1553 139.402 56.9926L139.737 54.1118C139.747 54.064 139.766 54.0353 139.785 54.0353C139.813 54.0353 139.852 54.0544 139.88 54.1023L141.257 56.849L142.585 54.1118C142.604 54.0736 142.623 54.0353 142.662 54.0353C142.69 54.0353 142.719 54.0736 142.729 54.1597L143.063 56.8777Z" fill="white"/>
<path d="M145.003 56.1695C145.003 56.6002 145.003 56.9448 145.022 57.1266C145.041 57.2606 145.051 57.3372 145.185 57.3563C145.252 57.3659 145.347 57.3754 145.395 57.3754C145.424 57.3754 145.433 57.3946 145.433 57.4137C145.433 57.4329 145.414 57.452 145.357 57.452C145.099 57.452 144.802 57.4329 144.783 57.4329C144.755 57.4329 144.468 57.452 144.334 57.452C144.286 57.452 144.258 57.4424 144.258 57.4137C144.258 57.3946 144.267 57.3754 144.296 57.3754C144.334 57.3754 144.391 57.3659 144.439 57.3563C144.525 57.3372 144.544 57.251 144.554 57.1266C144.573 56.9448 144.583 56.6002 144.583 56.1695V55.3943C144.583 54.7052 144.583 54.5808 144.573 54.4468C144.563 54.2937 144.525 54.2267 144.43 54.2076C144.382 54.198 144.325 54.1884 144.286 54.1884C144.267 54.1884 144.248 54.1693 144.248 54.1502C144.248 54.1214 144.267 54.1119 144.325 54.1119C144.477 54.1119 144.764 54.1214 144.783 54.1214C144.802 54.1214 145.099 54.1119 145.242 54.1119C145.29 54.1119 145.319 54.1214 145.319 54.1502C145.319 54.1693 145.299 54.1884 145.28 54.1884C145.252 54.1884 145.223 54.1884 145.166 54.198C145.041 54.2267 145.013 54.2841 145.003 54.4468C144.994 54.5904 144.994 54.7148 144.994 55.3943V56.1695H145.003Z" fill="white"/>
<path d="M146.819 56.849C146.829 57.2127 146.867 57.318 146.991 57.3563C147.077 57.3754 147.182 57.385 147.221 57.385C147.24 57.385 147.259 57.4041 147.259 57.4233C147.259 57.452 147.23 57.4615 147.173 57.4615C146.915 57.4615 146.733 57.4424 146.695 57.4424C146.657 57.4424 146.465 57.4615 146.255 57.4615C146.207 57.4615 146.179 57.452 146.179 57.4233C146.179 57.4041 146.198 57.385 146.217 57.385C146.255 57.385 146.341 57.3754 146.408 57.3563C146.523 57.3276 146.542 57.2031 146.542 56.8012V54.265C146.542 54.0927 146.571 54.0449 146.609 54.0449C146.657 54.0449 146.743 54.131 146.781 54.1788C146.857 54.2554 147.517 54.9541 148.224 55.6814C148.673 56.1504 149.161 56.6768 149.304 56.8203L149.256 54.6095C149.247 54.3224 149.228 54.2267 149.084 54.198C148.998 54.1788 148.893 54.1788 148.864 54.1788C148.836 54.1788 148.826 54.1501 148.826 54.1406C148.826 54.1119 148.864 54.1119 148.912 54.1119C149.123 54.1119 149.342 54.1214 149.39 54.1214C149.438 54.1214 149.591 54.1119 149.782 54.1119C149.83 54.1119 149.868 54.1214 149.868 54.1406C149.868 54.1597 149.849 54.1788 149.82 54.1788C149.801 54.1788 149.763 54.1788 149.715 54.1884C149.562 54.2171 149.553 54.3128 149.553 54.5712L149.543 57.1553C149.543 57.4424 149.534 57.4711 149.505 57.4711C149.457 57.4711 149.409 57.4328 149.161 57.2031C149.113 57.1649 148.453 56.5141 147.976 56.0068C147.45 55.4517 146.934 54.9062 146.79 54.7531L146.819 56.849Z" fill="white"/>
<path d="M153.128 56.3227C153.128 55.9686 153.118 55.9111 152.927 55.8729C152.889 55.8633 152.812 55.8633 152.774 55.8633C152.755 55.8633 152.736 55.8441 152.736 55.825C152.736 55.7963 152.755 55.7867 152.812 55.7867C153.022 55.7867 153.328 55.7963 153.347 55.7963C153.367 55.7963 153.653 55.7867 153.797 55.7867C153.844 55.7867 153.873 55.7963 153.873 55.825C153.873 55.8441 153.854 55.8633 153.835 55.8633C153.806 55.8633 153.778 55.8633 153.72 55.8729C153.596 55.892 153.558 55.959 153.548 56.1121C153.539 56.2557 153.539 56.3801 153.539 56.5715V57.0692C153.539 57.2702 153.529 57.2797 153.481 57.3084C153.195 57.4616 152.774 57.5094 152.506 57.5094C152.162 57.5094 151.512 57.4711 151.006 57.0405C150.729 56.8108 150.461 56.3322 150.461 55.7867C150.461 55.0785 150.815 54.5808 151.226 54.3416C151.637 54.0927 152.095 54.064 152.439 54.064C152.726 54.064 153.051 54.1119 153.137 54.1406C153.233 54.1597 153.395 54.1884 153.51 54.1884C153.558 54.1884 153.567 54.2076 153.567 54.2267C153.567 54.2841 153.539 54.4086 153.539 54.8488C153.539 54.9254 153.519 54.9445 153.491 54.9445C153.462 54.9445 153.462 54.9158 153.462 54.8775C153.453 54.8201 153.433 54.6861 153.357 54.5904C153.242 54.4277 152.898 54.2459 152.306 54.2459C152.028 54.2459 151.694 54.265 151.35 54.533C151.082 54.734 150.901 55.1264 150.901 55.6432C150.901 56.2653 151.226 56.7151 151.379 56.8682C151.742 57.2032 152.124 57.3276 152.545 57.3276C152.707 57.3276 152.917 57.3084 153.042 57.2414C153.099 57.2127 153.137 57.1936 153.137 57.1075V56.3227H153.128Z" fill="white"/>
<path d="M64.8602 20.3374L65.8924 25.6873L71.0251 23.8976L66.9151 27.4675L71.0251 31.0277L65.8924 29.2476L64.8602 34.5975L63.8375 29.2476L58.6953 31.0277L62.8148 27.4675L58.6953 23.8976L63.8375 25.6873L64.8602 20.3374Z" fill="white"/>
<path d="M82.9723 7.89569L83.5458 10.8817L86.4036 9.88636L84.1193 11.8675L86.4036 13.8581L83.5458 12.8628L82.9723 15.8392L82.4084 12.8628L79.541 13.8581L81.8349 11.8675L79.541 9.88636L82.4084 10.8817L82.9723 7.89569Z" fill="white"/>
<path d="M23.3783 13.6476L24.0091 16.9399L27.1823 15.8392L24.6399 18.0405L27.1823 20.2417L24.0091 19.1411L23.3783 22.4333L22.7475 19.1411L19.5742 20.2417L22.1166 18.0405L19.5742 15.8392L22.7475 16.9399L23.3783 13.6476Z" fill="white"/>
<path d="M12.139 8.45081L12.7698 11.7526L15.9431 10.6425L13.4007 12.8437L15.9431 15.0449L12.7698 13.9443L12.139 17.2366L11.5082 13.9443L8.33496 15.0449L10.8678 12.8437L8.33496 10.6425L11.5082 11.7526L12.139 8.45081Z" fill="white"/>
<path d="M53.1516 18.519L53.9066 22.4429L57.682 21.1317L54.6617 23.7541L57.682 26.3668L53.9066 25.0557L53.1516 28.9892L52.3965 25.0557L48.6211 26.3668L51.651 23.7541L48.6211 21.1317L52.3965 22.4429L53.1516 18.519Z" fill="white"/>
<path d="M14.7291 29.3433L15.5702 33.6883L19.747 32.2432L16.4017 35.1431L19.747 38.0429L15.5702 36.5882L14.7291 40.9333L13.8975 36.5882L9.7207 38.0429L13.066 35.1431L9.7207 32.2432L13.8975 33.6883L14.7291 29.3433Z" fill="white"/>
<g opacity="0.16">
<path d="M21.4385 38.2918C23.9713 40.2537 26.9725 41.9573 30.3274 43.3546C30.3082 42.9239 30.2987 42.4932 30.2987 42.0626C30.2987 26.0415 43.2688 13.0542 59.2688 13.0542C66.1696 13.0542 72.5065 15.4756 77.4767 19.5048C71.5221 13.2744 63.1493 9.37915 53.859 9.37915C37.1039 9.37915 23.3118 22.0218 21.4385 38.2918Z" fill="white"/>
</g>
</svg>
