<svg width="245" height="120" viewBox="0 0 245 120" fill="none" xmlns="http://www.w3.org/2000/svg">
<g id="LUC logo">
<g id="Layer_11">
<g id="Group">
<path id="Vector" d="M90.392 108.409C65.9862 108.409 46.2166 88.5986 46.2166 64.1606C46.2166 39.7227 66.0007 19.9124 90.4066 19.9124C100.933 19.9124 110.599 23.6059 118.18 29.7518C109.097 20.2482 96.3258 14.3066 82.1546 14.3066C54.658 14.3066 32.3662 36.6278 32.3662 64.1606C32.3662 91.6935 54.658 114.015 82.1546 114.015C96.3258 114.015 109.112 108.073 118.18 98.5548C110.584 104.715 100.918 108.409 90.392 108.409Z" fill="#573187"/>
</g>
</g>
<g id="Layer_10">
<g id="Group_2">
<path id="Vector_2" d="M58.7837 78.2043C58.2005 78.2043 57.8069 78.1459 57.5882 78.0291C57.3695 77.9123 57.2529 77.708 57.2529 77.4014C57.2529 77.0802 57.559 76.7591 58.1568 76.4233C58.4046 76.2919 58.6087 76.1751 58.7399 76.0875C58.9586 75.9416 59.1044 75.7226 59.2065 75.4306C59.3085 75.1386 59.3523 74.6715 59.3523 74.0583V56.0876C59.3523 55.5766 59.3231 55.1824 59.2648 54.9343C59.2065 54.6861 59.119 54.4817 58.9878 54.3211C58.8712 54.1751 58.5504 53.9562 58.0256 53.6788C57.5007 53.4014 57.2383 53.1094 57.2383 52.7737C57.2383 52.4963 57.3549 52.2919 57.5736 52.1605C57.7923 52.0438 58.2005 51.9708 58.7691 51.9708H63.1575C63.8864 51.9708 64.3676 52.0292 64.6008 52.1313C64.8341 52.2335 64.9507 52.4233 64.9507 52.7007C64.9507 53.0949 64.6446 53.416 64.0177 53.6642C63.6823 53.8102 63.4199 53.927 63.245 54.0292C62.9971 54.1897 62.8222 54.4087 62.7201 54.7153C62.618 55.0219 62.5743 55.4744 62.5743 56.073V73.4306C62.5743 74.6861 62.793 75.4744 63.245 75.7518C63.6969 76.0437 64.9945 76.1897 67.1668 76.1897C69.0913 76.1897 70.5492 76.1021 71.5406 75.9416C72.532 75.781 73.4213 75.489 74.2232 75.0948C74.5293 74.9343 74.9813 74.6569 75.5645 74.2627C76.1476 73.8686 76.5705 73.6642 76.8183 73.6642C77.037 73.6642 77.1828 73.7226 77.2703 73.8394C77.3577 73.9561 77.4015 74.1605 77.4015 74.4233C77.4015 75.0948 77.3286 75.7518 77.1974 76.3941C77.0661 77.0364 76.9349 77.4452 76.8183 77.6204C76.6579 77.8102 76.4392 77.9415 76.1331 78.0291C75.8269 78.1167 75.2146 78.1605 74.2815 78.1605H58.7837V78.2043Z" fill="#462270"/>
<path id="Vector_3" d="M93.4969 62.7007V72.5985C93.4969 73.4306 93.5115 74.1168 93.5553 74.6423C93.5844 75.1679 93.6282 75.489 93.6865 75.5912C93.8177 75.8686 93.9635 76.0876 94.153 76.2481C94.328 76.4087 94.6196 76.5693 95.0424 76.7299C95.1007 76.7591 95.1736 76.7883 95.2756 76.8175C95.6984 76.9781 95.9171 77.2262 95.9171 77.5328C95.9171 77.8686 95.713 78.1022 95.3048 78.219C94.8966 78.3503 94.051 78.4087 92.768 78.4087C92.1119 78.4087 91.6454 78.2627 91.3829 77.9708C91.1205 77.6788 90.9893 77.1533 90.9893 76.3941C90.9893 76.3357 90.9893 76.2336 91.0039 76.0876C91.0185 75.9416 91.0185 75.8394 91.0185 75.7664C90.2749 76.7591 89.4293 77.5036 88.4817 77.9854C87.534 78.4671 86.4405 78.7153 85.2159 78.7153C83.131 78.7153 81.6294 78.0876 80.6817 76.8467C79.7341 75.5912 79.2675 73.5766 79.2675 70.7883V65.1971C79.2675 64.6131 79.1946 64.219 79.0634 64C78.9322 63.781 78.6552 63.5474 78.2615 63.2847L78.2324 63.2701C77.7513 62.9927 77.5034 62.7007 77.5034 62.4233C77.5034 62.0876 77.8679 61.7518 78.5823 61.4452C79.2967 61.1387 80.1131 60.9781 80.9879 60.9781C81.3815 60.9781 81.6585 61.1241 81.8189 61.4014C81.9793 61.6788 82.0668 62.1898 82.0668 62.9051V70.8613C82.0668 72.8321 82.4021 74.2773 83.0727 75.1971C83.7434 76.1168 84.7931 76.5839 86.2219 76.5839C87.6069 76.5839 88.7003 76.1898 89.5022 75.416C90.3041 74.6277 90.7123 73.562 90.7123 72.219V64.9343C90.7123 64.5547 90.6686 64.2774 90.5957 64.0876C90.5082 63.8978 90.377 63.7518 90.1874 63.635C90.1145 63.5912 90.0125 63.5182 89.8667 63.4452C89.3564 63.1533 89.094 62.8613 89.094 62.5839C89.094 62.2044 89.4585 61.8394 90.1729 61.5036C90.8872 61.1679 91.6454 60.9927 92.4327 60.9927C92.8263 60.9927 93.1033 61.1241 93.2637 61.3868C93.4095 61.5912 93.4969 62.0438 93.4969 62.7007Z" fill="#462270"/>
<path id="Vector_4" d="M110.468 73.781C110.73 73.781 110.934 73.8394 111.094 73.9416C111.255 74.0438 111.328 74.1898 111.328 74.365C111.328 74.7007 111.153 75.1387 110.803 75.6496C110.453 76.1606 109.986 76.6423 109.403 77.0949C108.733 77.6204 107.989 78.0292 107.173 78.292C106.356 78.5547 105.452 78.6861 104.461 78.6861C102.259 78.6861 100.437 77.8978 99.0081 76.3358C97.5794 74.7737 96.865 72.7883 96.865 70.3796C96.865 67.6788 97.6523 65.4307 99.2268 63.635C100.801 61.8394 102.784 60.9489 105.146 60.9489C106.735 60.9489 108.076 61.2847 109.155 61.9416C110.234 62.6131 110.788 63.3869 110.788 64.2774C110.788 64.6715 110.642 65.0073 110.351 65.2993C110.059 65.5912 109.709 65.7372 109.316 65.7372C108.835 65.7372 108.324 65.3869 107.799 64.7007C107.712 64.5985 107.654 64.5256 107.625 64.4672C107.1 63.7956 106.648 63.3723 106.254 63.1825C105.86 62.9927 105.379 62.8905 104.796 62.8905C103.367 62.8905 102.216 63.5475 101.326 64.8613C100.437 66.1752 99.9995 67.9124 99.9995 70.0584C99.9995 72.0146 100.481 73.5766 101.428 74.7591C102.376 75.927 103.659 76.5255 105.234 76.5255C105.7 76.5255 106.167 76.4672 106.633 76.3358C107.1 76.2044 107.537 76.0146 107.96 75.7664C108.485 75.4745 108.995 75.0657 109.505 74.5547C110.03 74.0292 110.351 73.781 110.468 73.781Z" fill="#462270"/>
<path id="Vector_5" d="M114.477 65.416C114.477 64.9927 114.433 64.7007 114.345 64.5255C114.258 64.3649 114.083 64.1898 113.821 64.0292C113.719 63.9562 113.558 63.8686 113.339 63.7664C112.917 63.562 112.698 63.3284 112.698 63.0949C112.698 62.9197 112.756 62.7591 112.888 62.6131C113.019 62.4671 113.223 62.3211 113.529 62.1606L113.777 62.0146C115.22 61.2555 116.182 60.8905 116.649 60.8905C116.897 60.8905 117.072 61.0073 117.159 61.2263C117.247 61.4452 117.305 61.9708 117.305 62.7737V75.1971C117.305 75.5036 117.334 75.7518 117.407 75.9562C117.48 76.1606 117.582 76.2919 117.728 76.3649C117.888 76.4379 118.092 76.5255 118.326 76.6131C118.938 76.8613 119.244 77.1533 119.244 77.489C119.244 77.7518 119.142 77.927 118.953 78.0292C118.748 78.1314 118.384 78.1752 117.83 78.1752H114.025C113.514 78.1752 113.165 78.1314 112.975 78.0292C112.785 77.927 112.698 77.7664 112.698 77.5182C112.698 77.343 112.742 77.1825 112.844 77.0511C112.931 76.9197 113.106 76.8029 113.354 76.6715C113.442 76.6277 113.573 76.5693 113.748 76.4963C114.229 76.2919 114.477 75.8832 114.477 75.2555V65.416ZM113.529 55.781C113.529 55.2409 113.719 54.7883 114.098 54.4525C114.477 54.1022 114.972 53.9416 115.585 53.9416C116.182 53.9416 116.678 54.1168 117.043 54.4525C117.407 54.8029 117.597 55.2409 117.597 55.781C117.597 56.3503 117.407 56.8029 117.028 57.1387C116.649 57.4744 116.153 57.6496 115.541 57.6496C114.914 57.6496 114.418 57.4744 114.054 57.1387C113.719 56.8029 113.529 56.3503 113.529 55.781Z" fill="#462270"/>
<path id="Vector_6" d="M134.028 76.2627C133.197 77.0656 132.278 77.6788 131.287 78.0875C130.295 78.4963 129.216 78.7007 128.065 78.7007C125.819 78.7007 123.968 77.9124 122.524 76.3503C121.081 74.7883 120.367 72.7737 120.367 70.3211C120.367 67.5912 121.154 65.3576 122.729 63.5912C124.303 61.8248 126.3 60.9489 128.721 60.9489C129.61 60.9489 130.456 61.0657 131.287 61.3138C132.118 61.562 132.92 61.927 133.678 62.4233V56.2043C133.678 55.7372 133.605 55.3722 133.474 55.1387C133.328 54.8905 133.094 54.7007 132.759 54.5401C132.613 54.4671 132.424 54.3941 132.176 54.2919C131.666 54.0876 131.418 53.8686 131.418 53.635C131.418 53.5182 131.476 53.3868 131.578 53.2262C131.695 53.0803 131.841 52.9343 132.03 52.7883C132.672 52.3503 133.284 52.0146 133.896 51.7664C134.509 51.5182 135.004 51.4014 135.383 51.4014C135.777 51.4014 136.069 51.5474 136.229 51.854C136.389 52.146 136.477 52.7007 136.477 53.489V73.781C136.477 74.3941 136.491 74.8759 136.535 75.2116C136.579 75.5474 136.652 75.7956 136.754 75.927C136.9 76.1313 137.25 76.3503 137.804 76.6131C138.372 76.8759 138.649 77.1678 138.649 77.5036C138.649 77.7372 138.562 77.9124 138.372 78.0291C138.183 78.1459 137.906 78.1897 137.497 78.1897H135.69C135.136 78.1897 134.756 78.0875 134.582 77.8686C134.407 77.6642 134.217 77.124 134.028 76.2627ZM133.663 64.6861C133.094 64.073 132.409 63.5912 131.607 63.27C130.82 62.9343 129.989 62.7737 129.114 62.7737C127.409 62.7737 126.053 63.4306 125.018 64.7445C123.997 66.0583 123.472 67.8394 123.472 70.0583C123.472 72.0875 123.953 73.6934 124.901 74.8467C125.849 76.0145 127.161 76.5985 128.808 76.5985C129.625 76.5985 130.397 76.4671 131.155 76.2189C131.914 75.9561 132.54 75.6058 133.036 75.1678C133.255 74.9781 133.415 74.7591 133.517 74.4963C133.605 74.2335 133.663 73.8248 133.663 73.2554V72.9781V64.6861Z" fill="#462270"/>
<path id="Vector_7" d="M160.504 78.978C156.669 78.978 153.608 77.7518 151.319 75.2992C149.03 72.8466 147.893 69.5474 147.893 65.4306C147.893 63.4014 148.184 61.562 148.782 59.9124C149.38 58.2627 150.269 56.7883 151.465 55.5036C152.733 54.1313 154.176 53.1094 155.824 52.4379C157.471 51.7664 159.294 51.416 161.335 51.416C163.099 51.416 164.79 51.6642 166.379 52.1605C167.968 52.6569 169.018 53.2116 169.528 53.8102C169.732 54.0292 169.878 54.5255 169.966 55.2992C170.053 56.0729 170.111 57.1094 170.111 58.4525C170.111 58.8175 170.068 59.0656 169.966 59.197C169.878 59.3284 169.703 59.3868 169.455 59.3868C169.018 59.3868 168.668 59.051 168.391 58.3941C168.187 57.9124 167.983 57.5182 167.793 57.2116C166.962 55.9416 165.971 54.9635 164.805 54.3065C163.638 53.6496 162.326 53.3284 160.883 53.3284C158.142 53.3284 155.926 54.4233 154.22 56.5985C152.514 58.7883 151.654 61.6496 151.654 65.1824C151.654 68.7153 152.514 71.5036 154.22 73.562C155.926 75.6204 158.244 76.6423 161.174 76.6423C162.355 76.6423 163.449 76.4671 164.44 76.1167C165.446 75.7664 166.452 75.2116 167.487 74.4233C167.91 74.0875 168.42 73.5766 169.003 72.8904C169.587 72.2043 170.009 71.854 170.272 71.854C170.505 71.854 170.724 71.9415 170.899 72.1313C171.088 72.3211 171.176 72.5255 171.176 72.7591C171.176 73.1678 170.972 73.6934 170.578 74.3211C170.17 74.9488 169.66 75.5328 169.018 76.0437C167.808 77.0364 166.496 77.7663 165.111 78.2481C163.726 78.7299 162.166 78.978 160.504 78.978Z" fill="#462270"/>
<path id="Vector_8" d="M173.814 55.8248C173.814 55.416 173.771 55.1241 173.683 54.9635C173.596 54.8029 173.421 54.6277 173.173 54.4671C173.071 54.3941 172.91 54.3066 172.706 54.2044C172.284 53.9854 172.065 53.7664 172.065 53.5182C172.065 53.3431 172.123 53.1679 172.254 53.0073C172.386 52.8467 172.604 52.6861 172.896 52.5401L172.998 52.4817C174.485 51.6934 175.491 51.2993 175.987 51.2993C176.235 51.2993 176.41 51.416 176.497 51.635C176.584 51.854 176.643 52.365 176.643 53.1679V75.2263C176.643 75.5328 176.687 75.7956 176.774 76C176.861 76.2044 176.964 76.3358 177.095 76.3941C177.211 76.4379 177.401 76.5109 177.649 76.6131C178.334 76.8759 178.669 77.1825 178.669 77.5182C178.669 77.7664 178.567 77.9416 178.363 78.0584C178.159 78.1606 177.765 78.219 177.211 78.219H173.392C172.881 78.219 172.531 78.1752 172.342 78.073C172.152 77.9708 172.05 77.8102 172.05 77.562C172.05 77.4014 172.094 77.2409 172.196 77.1241C172.298 76.9927 172.473 76.8613 172.736 76.7299C172.823 76.6861 172.954 76.6277 173.115 76.5693C173.581 76.3795 173.829 75.9562 173.829 75.3139V55.8248H173.814Z" fill="#462270"/>
<path id="Vector_9" d="M182.927 71.9708C183.218 73.3431 183.845 74.4234 184.822 75.2263C185.784 76.0292 186.951 76.4234 188.292 76.4234C189.006 76.4234 189.692 76.3358 190.319 76.1606C190.96 75.9854 191.572 75.708 192.199 75.3285C192.491 75.1533 192.855 74.8905 193.293 74.5693C193.89 74.1314 194.284 73.9124 194.474 73.9124C194.663 73.9124 194.824 73.9854 194.94 74.1314C195.057 74.2774 195.13 74.4526 195.13 74.6861C195.13 75.0511 194.882 75.4891 194.401 76.0146C193.905 76.5255 193.264 77.0219 192.447 77.5037C191.762 77.9124 191.047 78.2044 190.275 78.4088C189.517 78.6131 188.715 78.7153 187.884 78.7153C185.391 78.7153 183.408 77.9708 181.921 76.4964C180.434 75.0073 179.69 73.0365 179.69 70.5547C179.69 67.8394 180.565 65.562 182.329 63.7226C184.093 61.8832 186.265 60.9635 188.846 60.9635C190.814 60.9635 192.33 61.3723 193.395 62.1898C194.459 63.0073 194.984 64.1606 194.984 65.6496C194.984 67.4161 194.007 68.8029 192.039 69.8248C190.071 70.8321 187.038 71.5474 182.927 71.9708ZM182.664 70.146C185.872 69.8394 188.219 69.2993 189.721 68.5109C191.222 67.7372 191.981 66.6861 191.981 65.3577C191.981 64.4818 191.674 63.7956 191.077 63.2847C190.464 62.7883 189.633 62.5401 188.569 62.5401C186.834 62.5401 185.42 63.2117 184.312 64.5693C183.204 65.927 182.664 67.6788 182.664 69.8394V70.146Z" fill="#462270"/>
<path id="Vector_10" d="M209.607 75.4015C208.834 76.4964 207.872 77.3139 206.749 77.8686C205.612 78.4234 204.315 78.7007 202.842 78.7007C201.092 78.7007 199.693 78.2336 198.658 77.2993C197.623 76.365 197.112 75.1095 197.112 73.5183C197.112 71.3577 198.06 69.708 199.97 68.5548C201.88 67.4015 204.635 66.8175 208.222 66.8175H209.009C208.863 65.5621 208.338 64.584 207.434 63.8686C206.516 63.1679 205.32 62.8029 203.833 62.8029C202.988 62.8029 202.084 63.0803 201.107 63.6496C200.145 64.219 199.518 64.4964 199.241 64.4964C198.906 64.4964 198.643 64.4088 198.424 64.219C198.206 64.0292 198.104 63.8102 198.104 63.5183C198.104 62.7737 198.658 62.1606 199.751 61.6788C200.845 61.1971 202.273 60.9489 204.052 60.9489C206.968 60.9489 209.067 61.635 210.35 63.0073C211.648 64.3796 212.289 66.6132 212.289 69.7372V75.1241C212.289 75.3869 212.319 75.5913 212.391 75.7518C212.464 75.9124 212.639 76.1168 212.945 76.365C213.048 76.438 213.222 76.5256 213.456 76.6278C213.995 76.8613 214.258 77.1387 214.258 77.4745C214.258 77.8248 214.068 78.0584 213.674 78.1898C213.295 78.3066 212.333 78.3796 210.788 78.3796C210.336 78.3796 210.03 78.292 209.855 78.1314C209.68 77.9562 209.592 77.6497 209.592 77.2117V75.4015H209.607ZM209.388 68.4526H208.907C206.151 68.4526 204.023 68.8905 202.521 69.7518C201.02 70.6131 200.276 71.8394 200.276 73.4161C200.276 74.365 200.597 75.1533 201.253 75.7518C201.909 76.365 202.755 76.6569 203.804 76.6569C204.387 76.6569 204.971 76.584 205.539 76.4234C206.108 76.2774 206.618 76.0584 207.07 75.781C207.945 75.2409 208.542 74.657 208.878 74.0438C209.213 73.4307 209.374 72.5694 209.374 71.4599V68.4526H209.388Z" fill="#462270"/>
<path id="Vector_11" d="M217.64 75.197V67.0949C217.64 65.9562 217.596 65.197 217.509 64.8467C217.421 64.4963 217.276 64.2481 217.042 64.073C216.896 63.9708 216.619 63.8394 216.226 63.6788C215.818 63.5182 215.614 63.2992 215.614 63.0219C215.614 62.7007 215.978 62.2773 216.692 61.7372C217.407 61.197 218.005 60.9343 218.456 60.9343C218.792 60.9343 219.098 61.1824 219.36 61.6788C219.637 62.1751 219.871 62.9051 220.089 63.8978C220.847 62.9197 221.722 62.1897 222.699 61.6934C223.69 61.197 224.769 60.9489 225.936 60.9489C227.933 60.9489 229.42 61.6058 230.412 62.9051C231.403 64.2189 231.884 66.2043 231.884 68.8759V75.2846C231.884 75.6788 231.913 75.9562 231.957 76.1168C232.001 76.2773 232.088 76.4087 232.219 76.4817C232.321 76.5547 232.482 76.6423 232.686 76.7445C233.167 77.0073 233.415 77.27 233.415 77.562C233.415 77.781 233.327 77.9416 233.138 78.0438C232.948 78.1313 232.642 78.1897 232.205 78.1897H228.604C228.166 78.1897 227.86 78.146 227.685 78.0584C227.51 77.9708 227.408 77.8248 227.408 77.6058C227.408 77.3138 227.598 77.0803 227.991 76.9051C228.108 76.8467 228.195 76.8029 228.239 76.7883C228.647 76.5839 228.895 76.3941 228.983 76.2189C229.07 76.0438 229.099 75.708 229.099 75.2262V68.8467C229.099 66.8613 228.764 65.416 228.093 64.4963C227.423 63.5912 226.373 63.124 224.93 63.124C223.559 63.124 222.466 63.5182 221.649 64.3211C220.833 65.1095 220.425 66.1897 220.425 67.5328V75.635C220.425 75.8832 220.439 76.073 220.483 76.1897C220.512 76.3211 220.585 76.4233 220.673 76.4963C220.775 76.5693 220.95 76.6569 221.183 76.7737C221.635 77.0073 221.868 77.2554 221.868 77.5328C221.868 77.781 221.781 77.9562 221.591 78.0438C221.416 78.1313 221.066 78.1897 220.556 78.1897H217.188C216.736 78.1897 216.43 78.1459 216.255 78.073C216.095 77.9854 216.007 77.854 216.007 77.6496C216.007 77.4744 216.051 77.3284 216.138 77.2116C216.226 77.0949 216.43 76.9489 216.751 76.7737C216.794 76.7445 216.867 76.7153 216.94 76.6715C217.407 76.4379 217.64 75.9416 217.64 75.197Z" fill="#462270"/>
</g>
</g>
<g id="Layer_9">
<g id="Group_3">
<path id="Vector_12" d="M55.6784 87.5329C55.5618 87.4745 55.5618 87.4453 55.5618 87.2263C55.5618 86.8321 55.5909 86.511 55.6055 86.3796C55.6201 86.292 55.6347 86.2482 55.6638 86.2482C55.7076 86.2482 55.7221 86.2774 55.7221 86.3358C55.7221 86.4088 55.7221 86.5256 55.7513 86.6278C55.8679 87.2117 56.3928 87.4307 56.9176 87.4307C57.6758 87.4307 58.0548 86.8905 58.0548 86.3796C58.0548 85.8394 57.8216 85.5183 57.1509 84.9489L56.801 84.657C55.9554 83.9708 55.7659 83.4745 55.7659 82.9343C55.7659 82.0876 56.3928 81.5037 57.3988 81.5037C57.7049 81.5037 57.9382 81.5329 58.1277 81.5767C58.2735 81.6059 58.3464 81.6204 58.4047 81.6204C58.463 81.6204 58.4776 81.6351 58.4776 81.6788C58.4776 81.7226 58.4485 81.9854 58.4485 82.5256C58.4485 82.6569 58.4339 82.7007 58.3902 82.7007C58.3464 82.7007 58.3318 82.6569 58.3318 82.5986C58.3173 82.511 58.2735 82.292 58.2298 82.2044C58.186 82.1168 57.9674 81.781 57.2384 81.781C56.699 81.781 56.2616 82.1168 56.2616 82.7007C56.2616 83.1533 56.4657 83.4453 57.2238 84.0292L57.4425 84.2044C58.3756 84.9343 58.5943 85.4307 58.5943 86.073C58.5943 86.3942 58.463 86.9927 57.9236 87.3869C57.5883 87.6205 57.1509 87.7227 56.7281 87.7227C56.3782 87.7373 56.0137 87.6788 55.6784 87.5329Z" fill="#195897"/>
<path id="Vector_13" d="M62.5308 82.4379C64.0908 82.4379 65.2863 83.4014 65.2863 84.9635C65.2863 86.4671 64.1637 87.708 62.4871 87.708C60.5772 87.708 59.7607 86.2773 59.7607 85.0657C59.7607 83.9854 60.6063 82.4379 62.5308 82.4379ZM62.6766 87.4452C63.3035 87.4452 64.5573 87.1095 64.5573 85.1679C64.5573 83.5474 63.5805 82.7007 62.4725 82.7007C61.3062 82.7007 60.4751 83.4306 60.4751 84.8905C60.4897 86.4525 61.4228 87.4452 62.6766 87.4452Z" fill="#195897"/>
<path id="Vector_14" d="M69.8932 86.9927C69.208 86.4087 69.0476 85.635 69.0476 84.9927C69.0476 84.5401 69.208 83.7518 69.8349 83.1532C70.2577 82.7445 70.8846 82.4379 71.9635 82.4379C72.2405 82.4379 72.6341 82.4671 72.9694 82.5109C73.2319 82.5547 73.4506 82.5985 73.6838 82.6131C73.7567 82.6131 73.7713 82.6423 73.7713 82.6861C73.7713 82.7445 73.7567 82.8175 73.7421 83.0657C73.7276 83.2846 73.7276 83.6642 73.7276 83.7518C73.713 83.854 73.6838 83.8978 73.6547 83.8978C73.6109 83.8978 73.5964 83.854 73.5964 83.7518C73.5964 83.489 73.4797 83.2262 73.3048 83.0803C73.0569 82.8759 72.5466 82.7007 71.9343 82.7007C71.045 82.7007 70.6076 82.9343 70.3743 83.1679C69.864 83.6496 69.7474 84.2481 69.7474 84.9343C69.7474 86.2189 70.768 87.3722 72.2551 87.3722C72.7799 87.3722 73.1298 87.3284 73.4068 87.0511C73.5526 86.9051 73.6547 86.6131 73.6692 86.4817C73.6838 86.4087 73.6984 86.3795 73.7421 86.3795C73.7713 86.3795 73.8005 86.4233 73.8005 86.4817C73.8005 86.5255 73.713 87.1095 73.6401 87.343C73.5964 87.4744 73.5818 87.489 73.4651 87.5474C73.1736 87.6642 72.6633 87.6934 72.2113 87.6934C71.147 87.7226 70.4326 87.4744 69.8932 86.9927Z" fill="#195897"/>
<path id="Vector_15" d="M76.1187 85.6934C76.1187 86.6861 76.1333 87.0949 76.2645 87.2117C76.3811 87.3285 76.6436 87.3723 77.1976 87.3723C77.5621 87.3723 77.8682 87.3577 78.0432 87.1679C78.1306 87.0657 78.189 86.9197 78.2035 86.7883C78.2181 86.7445 78.2327 86.7007 78.2764 86.7007C78.3056 86.7007 78.3202 86.7299 78.3202 86.8029C78.3202 86.8759 78.2764 87.2847 78.2181 87.4745C78.1744 87.635 78.1452 87.6642 77.7807 87.6642C77.285 87.6642 76.8914 87.6496 76.5707 87.635C76.2499 87.6204 76.0166 87.6204 75.8125 87.6204C75.7834 87.6204 75.6667 87.6204 75.521 87.635C75.3752 87.6496 75.2294 87.6496 75.1127 87.6496C75.0398 87.6496 74.9961 87.635 74.9961 87.5912C74.9961 87.5621 75.0107 87.5329 75.0544 87.5329C75.1127 87.5329 75.2002 87.5183 75.2731 87.5037C75.4043 87.4745 75.4189 87.3431 75.4481 87.1533C75.4918 86.8759 75.4918 86.3504 75.4918 85.6934V84.511C75.4918 83.4599 75.4918 83.2701 75.4772 83.0657C75.4626 82.8321 75.4189 82.7299 75.1856 82.6861C75.1273 82.6715 75.0107 82.6715 74.9524 82.6715C74.9232 82.6715 74.894 82.6423 74.894 82.6131C74.894 82.5694 74.9232 82.5547 75.0107 82.5547C75.3314 82.5547 75.7688 82.5693 75.798 82.5693C75.8271 82.5693 76.352 82.5547 76.5707 82.5547C76.6436 82.5547 76.6873 82.5694 76.6873 82.6131C76.6873 82.6423 76.6581 82.6569 76.629 82.6569C76.5852 82.6569 76.4832 82.6715 76.3957 82.6715C76.1916 82.7153 76.1479 82.8175 76.1333 83.0511C76.1187 83.2701 76.1187 83.4599 76.1187 84.4964V85.6934Z" fill="#195897"/>
<path id="Vector_16" d="M79.8072 84.4818C79.8072 83.4307 79.8072 83.2409 79.7926 83.0365C79.7781 82.8029 79.7343 82.7007 79.5011 82.6569C79.4427 82.6423 79.3261 82.6423 79.2678 82.6423C79.2386 82.6423 79.2095 82.6131 79.2095 82.5839C79.2095 82.5402 79.2386 82.5256 79.3261 82.5256C79.6469 82.5256 80.0988 82.5402 80.128 82.5402C80.1717 82.5402 81.6296 82.5548 81.79 82.5402C81.9212 82.5256 82.0524 82.511 82.1108 82.4964C82.1399 82.4818 82.1691 82.4672 82.2128 82.4672C82.242 82.4672 82.242 82.4964 82.242 82.5256C82.242 82.5693 82.1982 82.6569 82.1837 82.8467C82.1691 82.9051 82.1545 83.2117 82.1399 83.2847C82.1253 83.3139 82.1108 83.3577 82.0816 83.3577C82.0379 83.3577 82.0233 83.3285 82.0233 83.2701C82.0233 83.2263 82.0087 83.1095 81.9795 83.0365C81.9358 82.9197 81.8629 82.8759 81.4839 82.8321C81.3672 82.8175 80.5508 82.8029 80.4779 82.8029C80.4487 82.8029 80.4341 82.8321 80.4341 82.8759V84.7007C80.4341 84.7445 80.4341 84.7737 80.4779 84.7737C80.5654 84.7737 81.4838 84.7737 81.6442 84.7591C81.8046 84.7445 81.9066 84.7299 81.9795 84.6715C82.0233 84.6277 82.0524 84.584 82.0816 84.584C82.1108 84.584 82.1253 84.5985 82.1253 84.6423C82.1253 84.6861 82.0816 84.7883 82.067 85.0219C82.0524 85.1533 82.0379 85.4161 82.0379 85.4599C82.0379 85.5183 82.0233 85.5912 81.9795 85.5912C81.9504 85.5912 81.9358 85.5621 81.9358 85.5329C81.9358 85.4745 81.9358 85.4015 81.9066 85.3139C81.8775 85.2117 81.8192 85.1387 81.5567 85.1095C81.3672 85.0803 80.6237 85.0803 80.507 85.0803C80.4633 85.0803 80.4633 85.1095 80.4633 85.1241V85.6934C80.4633 85.927 80.4487 86.7007 80.4633 86.8467C80.4779 87.2993 80.6091 87.3869 81.2943 87.3869C81.4838 87.3869 81.8046 87.3869 81.9941 87.3139C82.1837 87.2409 82.2711 87.1095 82.3149 86.8467C82.3294 86.7737 82.344 86.7445 82.3878 86.7445C82.4315 86.7445 82.4315 86.8029 82.4315 86.8467C82.4315 86.8905 82.3732 87.3577 82.344 87.4891C82.3003 87.6642 82.2274 87.6642 81.9504 87.6642C81.4255 87.6642 81.0173 87.6496 80.7403 87.635C80.4487 87.6204 80.2592 87.6205 80.1571 87.6205C80.1425 87.6205 80.0113 87.6204 79.851 87.635C79.7198 87.6496 79.5594 87.6497 79.4427 87.6497C79.3699 87.6497 79.3261 87.635 79.3261 87.5913C79.3261 87.5621 79.3407 87.5329 79.3844 87.5329C79.4427 87.5329 79.5302 87.5037 79.6031 87.5037C79.7343 87.4745 79.7489 87.3431 79.7781 87.1533C79.8218 86.8759 79.8218 86.3504 79.8218 85.6934V84.4818H79.8072Z" fill="#195897"/>
<path id="Vector_17" d="M85.6098 82.6715C85.6972 82.4525 85.7264 82.4088 85.7701 82.4088C85.843 82.4088 85.8722 82.4963 85.9305 82.6569C86.0617 82.9489 87.1698 85.7226 87.6071 86.7445C87.855 87.3431 88.0445 87.4306 88.2049 87.489C88.3069 87.5182 88.409 87.5328 88.4819 87.5328C88.5256 87.5328 88.5694 87.5474 88.5694 87.5912C88.5694 87.635 88.4965 87.6496 88.409 87.6496C88.3069 87.6496 87.7967 87.6496 87.3155 87.635C87.1843 87.6204 87.0677 87.6204 87.0677 87.5912C87.0677 87.562 87.0823 87.562 87.1114 87.5474C87.1552 87.5328 87.2281 87.4744 87.1698 87.3577L86.5428 85.8102C86.5283 85.781 86.5137 85.7664 86.4845 85.7664H84.8808C84.8516 85.7664 84.8225 85.781 84.8079 85.8248L84.4143 86.9051C84.3559 87.0657 84.3122 87.2409 84.3122 87.3577C84.3122 87.489 84.4288 87.5474 84.5455 87.5474H84.6038C84.6621 87.5474 84.6767 87.5766 84.6767 87.6058C84.6767 87.6496 84.6329 87.6642 84.5746 87.6642C84.4143 87.6642 84.0352 87.635 83.9477 87.635C83.8748 87.635 83.5249 87.6642 83.2479 87.6642C83.1604 87.6642 83.1167 87.6496 83.1167 87.6058C83.1167 87.5766 83.1459 87.5474 83.175 87.5474C83.2188 87.5474 83.3208 87.5328 83.3791 87.5328C83.6999 87.489 83.8311 87.2555 83.9623 86.9197L85.6098 82.6715ZM86.397 85.4744C86.4262 85.4744 86.4262 85.4598 86.4262 85.4307L85.741 83.5912C85.6972 83.489 85.6681 83.489 85.6243 83.5912L84.9683 85.4307C84.9537 85.4598 84.9683 85.4744 84.9974 85.4744H86.397Z" fill="#195897"/>
<path id="Vector_18" d="M90.2605 86.7153C90.2751 87.27 90.3334 87.4306 90.5229 87.489C90.6541 87.5182 90.8145 87.5328 90.8728 87.5328C90.902 87.5328 90.9312 87.562 90.9312 87.5912C90.9312 87.635 90.8874 87.6496 90.7999 87.6496C90.4063 87.6496 90.1293 87.6204 90.071 87.6204C90.0127 87.6204 89.7211 87.6496 89.4003 87.6496C89.3274 87.6496 89.2837 87.635 89.2837 87.5912C89.2837 87.562 89.3128 87.5328 89.342 87.5328C89.4003 87.5328 89.5315 87.5182 89.6336 87.489C89.8085 87.4452 89.8377 87.2554 89.8377 86.6423V82.7737C89.8377 82.5109 89.8814 82.4379 89.9398 82.4379C90.0127 82.4379 90.1439 82.5693 90.2022 82.6423C90.3188 82.7591 91.3248 83.8248 92.4037 84.9343C93.0889 85.6496 93.8324 86.4525 94.0511 86.6715L93.9782 83.2992C93.9637 82.8613 93.9345 82.7153 93.7158 82.6715C93.5846 82.6423 93.4242 82.6423 93.3805 82.6423C93.3367 82.6423 93.3222 82.5985 93.3222 82.5839C93.3222 82.5401 93.3805 82.5401 93.4534 82.5401C93.7741 82.5401 94.1094 82.5547 94.1823 82.5547C94.2552 82.5547 94.4885 82.5401 94.7801 82.5401C94.853 82.5401 94.9113 82.5547 94.9113 82.5839C94.9113 82.6131 94.8822 82.6423 94.8384 82.6423C94.8093 82.6423 94.7509 82.6423 94.678 82.6569C94.4448 82.7007 94.4302 82.8467 94.4302 83.2408L94.4156 87.1825C94.4156 87.6204 94.401 87.6642 94.3573 87.6642C94.2844 87.6642 94.2115 87.6058 93.8324 87.2554C93.7595 87.1971 92.7536 86.2044 92.0246 85.4306C91.2227 84.5839 90.4355 83.7518 90.2168 83.5182L90.2605 86.7153Z" fill="#195897"/>
<path id="Vector_19" d="M100.247 85.8832C100.247 85.5183 100.204 85.3869 100.102 85.1971C100.043 85.0949 99.1102 83.5912 98.8623 83.2409C98.702 82.9927 98.527 82.8321 98.4104 82.7445C98.3083 82.6861 98.1771 82.6569 98.1188 82.6569C98.0751 82.6569 98.0459 82.6277 98.0459 82.5985C98.0459 82.5693 98.0751 82.5547 98.1334 82.5547C98.2646 82.5547 98.7894 82.5693 98.8186 82.5693C98.8623 82.5693 99.1539 82.5547 99.4164 82.5547C99.4893 82.5547 99.5184 82.5693 99.5184 82.5985C99.5184 82.6277 99.4747 82.6423 99.4018 82.6715C99.3435 82.7007 99.3143 82.7299 99.3143 82.7883C99.3143 82.8905 99.358 82.9635 99.4164 83.0511L100.685 85.1533C100.831 84.8613 101.691 83.4307 101.822 83.1971C101.909 83.0511 101.939 82.9343 101.939 82.8467C101.939 82.7591 101.909 82.7007 101.822 82.6715C101.764 82.6569 101.72 82.6277 101.72 82.5985C101.72 82.5693 101.764 82.5547 101.837 82.5547C102.026 82.5547 102.259 82.5693 102.318 82.5693C102.361 82.5693 102.857 82.5547 103.003 82.5547C103.047 82.5547 103.09 82.5693 103.09 82.5985C103.09 82.6277 103.061 82.6715 103.003 82.6715C102.93 82.6715 102.784 82.7007 102.682 82.7591C102.551 82.8321 102.478 82.9051 102.332 83.0949C102.099 83.3577 101.122 84.9489 100.976 85.2409C100.86 85.4745 100.889 85.6934 100.889 85.9124V86.4964C100.889 86.6131 100.889 86.8905 100.918 87.1679C100.933 87.3723 100.976 87.4891 101.18 87.5183C101.283 87.5329 101.428 87.5475 101.501 87.5475C101.545 87.5475 101.56 87.5766 101.56 87.6058C101.56 87.635 101.516 87.6642 101.443 87.6642C101.049 87.6642 100.597 87.635 100.568 87.635C100.539 87.635 100.087 87.6642 99.8829 87.6642C99.81 87.6642 99.7663 87.6496 99.7663 87.6058C99.7663 87.5766 99.7808 87.5475 99.8246 87.5475C99.8829 87.5475 99.9704 87.5329 100.029 87.5183C100.174 87.4891 100.218 87.3577 100.233 87.1679C100.247 86.8905 100.247 86.5985 100.247 86.4964V85.8832Z" fill="#195897"/>
<path id="Vector_20" d="M105.919 82.4379C107.479 82.4379 108.674 83.4014 108.674 84.9635C108.674 86.4671 107.552 87.708 105.875 87.708C103.965 87.708 103.149 86.2773 103.149 85.0657C103.149 83.9854 103.995 82.4379 105.919 82.4379ZM106.065 87.4452C106.692 87.4452 107.946 87.1095 107.946 85.1679C107.946 83.5474 106.969 82.7007 105.861 82.7007C104.694 82.7007 103.863 83.4306 103.863 84.8905C103.878 86.4525 104.811 87.4452 106.065 87.4452Z" fill="#195897"/>
<path id="Vector_21" d="M110.016 84.4817C110.016 83.4306 110.016 83.2408 110.001 83.0365C109.987 82.8175 109.943 82.7007 109.71 82.6569C109.651 82.6423 109.535 82.6423 109.476 82.6423C109.447 82.6423 109.418 82.6131 109.418 82.5839C109.418 82.5401 109.447 82.5255 109.535 82.5255C109.855 82.5255 110.264 82.5401 110.336 82.5401C110.395 82.5401 110.832 82.5255 111.036 82.5255C111.109 82.5255 111.153 82.5401 111.153 82.5839C111.153 82.6131 111.124 82.6423 111.095 82.6423C111.051 82.6423 111.007 82.6423 110.92 82.6569C110.73 82.6861 110.701 82.8029 110.686 83.0365C110.672 83.2554 110.672 83.4452 110.672 84.4817V85.4306C110.672 86.4087 110.89 86.8029 111.182 87.0803C111.517 87.3868 111.824 87.4452 112.217 87.4452C112.64 87.4452 113.063 87.2554 113.296 86.9635C113.617 86.5693 113.69 86.0146 113.69 85.3284V84.4817C113.69 83.4306 113.675 83.2408 113.675 83.0365C113.661 82.8175 113.631 82.7007 113.398 82.6569C113.34 82.6423 113.223 82.6423 113.165 82.6423C113.136 82.6423 113.107 82.6131 113.107 82.5839C113.107 82.5401 113.136 82.5255 113.223 82.5255C113.529 82.5255 113.938 82.5401 113.981 82.5401C114.025 82.5401 114.36 82.5255 114.564 82.5255C114.637 82.5255 114.681 82.5401 114.681 82.5839C114.681 82.6131 114.652 82.6423 114.623 82.6423C114.579 82.6423 114.535 82.6423 114.448 82.6569C114.258 82.7007 114.215 82.8029 114.2 83.0365C114.185 83.2554 114.185 83.4452 114.185 84.4817V85.197C114.185 85.927 114.098 86.7445 113.544 87.2116C113.034 87.6496 112.494 87.708 112.086 87.708C111.853 87.708 111.124 87.6934 110.643 87.2262C110.307 86.9051 110.03 86.4379 110.03 85.4598V84.4817H110.016Z" fill="#195897"/>
<path id="Vector_22" d="M116.27 81.7372C116.27 81.8686 116.095 82.2628 116.022 83.1387C115.993 83.4598 115.979 83.489 115.935 83.489C115.891 83.489 115.877 83.4452 115.847 83.1387C115.775 82.2628 115.6 81.8686 115.6 81.7372C115.6 81.6204 115.731 81.6204 115.935 81.6204C116.139 81.6204 116.27 81.6204 116.27 81.7372Z" fill="#195897"/>
<path id="Vector_23" d="M118.603 85.6934C118.603 86.6861 118.617 87.0949 118.749 87.2117C118.865 87.3285 119.128 87.3723 119.682 87.3723C120.046 87.3723 120.352 87.3577 120.527 87.1679C120.615 87.0657 120.673 86.9197 120.688 86.7883C120.702 86.7445 120.717 86.7007 120.761 86.7007C120.79 86.7007 120.804 86.7299 120.804 86.8029C120.804 86.8759 120.761 87.2847 120.702 87.4745C120.659 87.635 120.629 87.6642 120.265 87.6642C119.769 87.6642 119.376 87.6496 119.055 87.635C118.734 87.6204 118.501 87.6204 118.297 87.6204C118.268 87.6204 118.151 87.6204 118.005 87.635C117.859 87.6496 117.713 87.6496 117.597 87.6496C117.524 87.6496 117.48 87.635 117.48 87.5912C117.48 87.5621 117.495 87.5329 117.539 87.5329C117.597 87.5329 117.684 87.5183 117.757 87.5037C117.888 87.4745 117.903 87.3431 117.932 87.1533C117.976 86.8759 117.976 86.3504 117.976 85.6934V84.511C117.976 83.4599 117.976 83.2701 117.961 83.0657C117.947 82.8321 117.903 82.7299 117.67 82.6861C117.611 82.6715 117.495 82.6715 117.436 82.6715C117.407 82.6715 117.378 82.6423 117.378 82.6131C117.378 82.5694 117.407 82.5547 117.495 82.5547C117.816 82.5547 118.253 82.5693 118.282 82.5693C118.311 82.5693 118.836 82.5547 119.055 82.5547C119.128 82.5547 119.171 82.5694 119.171 82.6131C119.171 82.6423 119.142 82.6569 119.113 82.6569C119.069 82.6569 118.967 82.6715 118.88 82.6715C118.676 82.7153 118.632 82.8175 118.617 83.0511C118.603 83.2701 118.603 83.4599 118.603 84.4964V85.6934Z" fill="#195897"/>
<path id="Vector_24" d="M122.918 85.6934C122.918 86.6861 122.933 87.0949 123.064 87.2117C123.181 87.3285 123.443 87.3723 123.997 87.3723C124.362 87.3723 124.668 87.3577 124.843 87.1679C124.93 87.0657 124.989 86.9197 125.003 86.7883C125.018 86.7445 125.032 86.7007 125.076 86.7007C125.105 86.7007 125.12 86.7299 125.12 86.8029C125.12 86.8759 125.076 87.2847 125.018 87.4745C124.974 87.635 124.945 87.6642 124.58 87.6642C124.085 87.6642 123.691 87.6496 123.37 87.635C123.049 87.6204 122.816 87.6204 122.612 87.6204C122.583 87.6204 122.466 87.6204 122.321 87.635C122.175 87.6496 122.029 87.6496 121.912 87.6496C121.839 87.6496 121.796 87.635 121.796 87.5912C121.796 87.5621 121.81 87.5329 121.854 87.5329C121.912 87.5329 122 87.5183 122.073 87.5037C122.204 87.4745 122.218 87.3431 122.248 87.1533C122.291 86.8759 122.291 86.3504 122.291 85.6934V84.511C122.291 83.4599 122.291 83.2701 122.277 83.0657C122.262 82.8321 122.218 82.7299 121.985 82.6861C121.927 82.6715 121.81 82.6715 121.752 82.6715C121.723 82.6715 121.694 82.6423 121.694 82.6131C121.694 82.5694 121.723 82.5547 121.81 82.5547C122.131 82.5547 122.568 82.5693 122.598 82.5693C122.627 82.5693 123.152 82.5547 123.37 82.5547C123.443 82.5547 123.487 82.5694 123.487 82.6131C123.487 82.6423 123.458 82.6569 123.429 82.6569C123.385 82.6569 123.283 82.6715 123.195 82.6715C122.991 82.7153 122.947 82.8175 122.933 83.0511C122.918 83.2701 122.918 83.4599 122.918 84.4964V85.6934Z" fill="#195897"/>
<path id="Vector_25" d="M130.937 85.6788C130.937 86.3357 130.937 86.8613 130.966 87.1387C130.995 87.343 131.024 87.4598 131.229 87.489C131.316 87.5036 131.476 87.5182 131.549 87.5182C131.593 87.5182 131.608 87.5474 131.608 87.5766C131.608 87.6058 131.578 87.635 131.491 87.635C131.112 87.635 130.675 87.6058 130.631 87.6058C130.602 87.6058 130.121 87.635 129.916 87.635C129.844 87.635 129.8 87.6204 129.8 87.5766C129.8 87.5474 129.814 87.5328 129.858 87.5328C129.916 87.5328 130.004 87.5182 130.062 87.5036C130.208 87.4744 130.252 87.343 130.266 87.1387C130.295 86.8613 130.295 86.3357 130.295 85.6788V82.8467L129.29 82.8613C128.852 82.8759 128.692 82.9197 128.59 83.0803C128.517 83.197 128.502 83.2408 128.473 83.2992C128.458 83.3576 128.429 83.3576 128.4 83.3576C128.386 83.3576 128.356 83.343 128.356 83.2992C128.356 83.2262 128.502 82.6277 128.502 82.5693C128.517 82.5255 128.546 82.4379 128.575 82.4379C128.619 82.4379 128.692 82.4963 128.881 82.5109C129.085 82.5401 129.348 82.5401 129.421 82.5401H132.045C132.278 82.5401 132.439 82.5255 132.541 82.5109C132.643 82.4963 132.701 82.4817 132.745 82.4817C132.774 82.4817 132.774 82.5255 132.774 82.5547C132.774 82.7591 132.745 83.2408 132.745 83.3284C132.745 83.3868 132.716 83.416 132.686 83.416C132.657 83.416 132.643 83.3868 132.628 83.2992L132.614 83.2262C132.584 83.0219 132.439 82.8759 131.768 82.8613L130.893 82.8467V85.6788H130.937Z" fill="#195897"/>
<path id="Vector_26" d="M138.664 85.6789C138.664 86.3358 138.679 86.8613 138.708 87.1387C138.737 87.3431 138.751 87.4599 138.956 87.4891C139.043 87.5037 139.203 87.5183 139.262 87.5183C139.305 87.5183 139.32 87.5475 139.32 87.5767C139.32 87.6059 139.276 87.6351 139.203 87.6351C138.824 87.6351 138.387 87.6059 138.343 87.6059C138.314 87.6059 137.862 87.6351 137.658 87.6351C137.585 87.6351 137.541 87.6205 137.541 87.5767C137.541 87.5475 137.556 87.5183 137.6 87.5183C137.658 87.5183 137.745 87.5037 137.804 87.4891C137.95 87.4599 137.964 87.3285 137.993 87.1241C138.022 86.8467 138.022 86.3358 138.022 85.6934V85.0219C138.022 84.9927 138.008 84.9781 137.979 84.9781H135.077C135.048 84.9781 135.034 84.9927 135.034 85.0219V85.6934C135.034 86.3504 135.034 86.8613 135.063 87.1387C135.092 87.3431 135.107 87.4599 135.311 87.4891C135.413 87.5037 135.559 87.5183 135.631 87.5183C135.675 87.5183 135.69 87.5475 135.69 87.5767C135.69 87.6059 135.661 87.6351 135.573 87.6351C135.179 87.6351 134.742 87.6059 134.713 87.6059C134.669 87.6059 134.232 87.6351 134.013 87.6351C133.94 87.6351 133.896 87.6205 133.896 87.5767C133.896 87.5475 133.911 87.5183 133.955 87.5183C134.013 87.5183 134.101 87.5037 134.173 87.4891C134.305 87.4599 134.319 87.3285 134.348 87.1387C134.392 86.8613 134.392 86.3358 134.392 85.6789V84.4964C134.392 83.4453 134.392 83.2555 134.378 83.0511C134.363 82.8175 134.319 82.7153 134.086 82.6715C134.028 82.6569 133.911 82.6569 133.853 82.6569C133.824 82.6569 133.794 82.6277 133.794 82.5986C133.794 82.5548 133.824 82.5402 133.911 82.5402C134.232 82.5402 134.669 82.5548 134.713 82.5548C134.742 82.5548 135.194 82.5402 135.398 82.5402C135.471 82.5402 135.515 82.5548 135.515 82.5986C135.515 82.6277 135.486 82.6569 135.456 82.6569C135.413 82.6569 135.369 82.6569 135.282 82.6715C135.092 82.7153 135.048 82.8029 135.034 83.0511C135.019 83.2701 135.019 83.4745 135.019 84.511V84.657C135.019 84.7007 135.034 84.7007 135.063 84.7007H137.964C137.993 84.7007 138.008 84.7007 138.008 84.657V84.511C138.008 83.4599 137.993 83.2555 137.993 83.0511C137.979 82.8175 137.95 82.7153 137.716 82.6715C137.658 82.6569 137.541 82.6569 137.483 82.6569C137.454 82.6569 137.425 82.6277 137.425 82.5986C137.425 82.5548 137.454 82.5402 137.541 82.5402C137.847 82.5402 138.299 82.5548 138.329 82.5548C138.372 82.5548 138.81 82.5402 139.014 82.5402C139.087 82.5402 139.13 82.5548 139.13 82.5986C139.13 82.6277 139.101 82.6569 139.072 82.6569C139.028 82.6569 138.985 82.6569 138.897 82.6715C138.708 82.7153 138.679 82.8029 138.664 83.0511C138.649 83.2701 138.649 83.4599 138.649 84.4964V85.6789H138.664Z" fill="#195897"/>
<path id="Vector_27" d="M141.696 85.6789C141.696 86.3358 141.696 86.8613 141.726 87.1387C141.755 87.3431 141.769 87.4599 141.973 87.4891C142.076 87.5037 142.221 87.5183 142.294 87.5183C142.338 87.5183 142.353 87.5475 142.353 87.5767C142.353 87.6059 142.323 87.6351 142.236 87.6351C141.842 87.6351 141.39 87.6059 141.361 87.6059C141.317 87.6059 140.88 87.6351 140.676 87.6351C140.603 87.6351 140.559 87.6205 140.559 87.5767C140.559 87.5475 140.574 87.5183 140.618 87.5183C140.676 87.5183 140.763 87.5037 140.836 87.4891C140.967 87.4599 140.997 87.3285 141.011 87.1387C141.04 86.8613 141.055 86.3358 141.055 85.6789V84.4964C141.055 83.4453 141.055 83.2555 141.04 83.0511C141.026 82.8175 140.967 82.7153 140.822 82.6861C140.749 82.6715 140.661 82.6569 140.603 82.6569C140.574 82.6569 140.545 82.6277 140.545 82.5986C140.545 82.5548 140.574 82.5402 140.661 82.5402C140.895 82.5402 141.332 82.5548 141.361 82.5548C141.39 82.5548 141.842 82.5402 142.061 82.5402C142.134 82.5402 142.178 82.5548 142.178 82.5986C142.178 82.6277 142.148 82.6569 142.119 82.6569C142.076 82.6569 142.032 82.6569 141.944 82.6715C141.755 82.7153 141.711 82.8029 141.696 83.0511C141.682 83.2701 141.682 83.4599 141.682 84.4964V85.6789H141.696Z" fill="#195897"/>
<path id="Vector_28" d="M144.481 86.7153C144.496 87.27 144.554 87.4306 144.744 87.489C144.875 87.5182 145.035 87.5328 145.094 87.5328C145.123 87.5328 145.152 87.562 145.152 87.5912C145.152 87.635 145.108 87.6496 145.021 87.6496C144.627 87.6496 144.35 87.6204 144.292 87.6204C144.233 87.6204 143.942 87.6496 143.621 87.6496C143.548 87.6496 143.504 87.635 143.504 87.5912C143.504 87.562 143.534 87.5328 143.563 87.5328C143.621 87.5328 143.752 87.5182 143.854 87.489C144.029 87.4452 144.058 87.2554 144.058 86.6423V82.7737C144.058 82.5109 144.102 82.4379 144.16 82.4379C144.233 82.4379 144.365 82.5693 144.423 82.6423C144.54 82.7591 145.546 83.8248 146.624 84.9343C147.31 85.6496 148.053 86.4525 148.272 86.6715L148.199 83.2992C148.184 82.8613 148.155 82.7153 147.937 82.6715C147.805 82.6423 147.645 82.6423 147.601 82.6423C147.557 82.6423 147.543 82.5985 147.543 82.5839C147.543 82.5401 147.601 82.5401 147.674 82.5401C147.995 82.5401 148.33 82.5547 148.403 82.5547C148.476 82.5547 148.709 82.5401 149.001 82.5401C149.074 82.5401 149.132 82.5547 149.132 82.5839C149.132 82.6131 149.103 82.6423 149.059 82.6423C149.03 82.6423 148.972 82.6423 148.899 82.6569C148.665 82.7007 148.651 82.8467 148.651 83.2408L148.636 87.1825C148.636 87.6204 148.622 87.6642 148.578 87.6642C148.505 87.6642 148.432 87.6058 148.053 87.2554C147.98 87.1971 146.974 86.2044 146.245 85.4306C145.443 84.5839 144.656 83.7518 144.437 83.5182L144.481 86.7153Z" fill="#195897"/>
<path id="Vector_29" d="M150.838 84.4817C150.838 83.4306 150.838 83.2408 150.823 83.0365C150.809 82.8029 150.765 82.7007 150.532 82.6569C150.473 82.6423 150.357 82.6423 150.298 82.6423C150.269 82.6423 150.24 82.6131 150.24 82.5839C150.24 82.5401 150.269 82.5255 150.357 82.5255C150.677 82.5255 151.1 82.5401 151.144 82.5401C151.202 82.5401 151.625 82.5255 151.829 82.5255C151.902 82.5255 151.946 82.5401 151.946 82.5839C151.946 82.6131 151.917 82.6423 151.887 82.6423C151.844 82.6423 151.8 82.6423 151.712 82.6569C151.538 82.7007 151.479 82.7883 151.465 83.0365C151.45 83.2554 151.45 83.4452 151.45 84.4817V84.8905H151.479C151.596 84.7591 152.835 83.5328 153.098 83.27C153.302 83.0657 153.477 82.8905 153.477 82.7883C153.477 82.7007 153.447 82.6569 153.389 82.6569C153.345 82.6423 153.331 82.6131 153.331 82.5985C153.331 82.5693 153.36 82.5547 153.404 82.5547C153.549 82.5547 153.754 82.5693 153.929 82.5693C153.972 82.5693 154.424 82.5547 154.599 82.5547C154.672 82.5547 154.701 82.5693 154.701 82.5985C154.701 82.6277 154.687 82.6569 154.628 82.6569C154.526 82.6569 154.381 82.7007 154.235 82.7445C153.943 82.8759 153.812 83.0219 153.506 83.3138C153.331 83.4744 152.15 84.6131 151.99 84.7737C152.179 84.9781 153.622 86.4233 153.899 86.6861C154.483 87.2116 154.57 87.2992 154.891 87.4306C155.08 87.5036 155.27 87.5182 155.314 87.5182C155.357 87.5182 155.401 87.5474 155.401 87.5766C155.401 87.6058 155.372 87.635 155.255 87.635H154.905C154.701 87.635 154.585 87.635 154.424 87.6204C154.06 87.5912 153.885 87.4452 153.579 87.2117C153.258 86.9635 151.8 85.416 151.465 85.0219H151.435V85.6788C151.435 86.3357 151.435 86.8613 151.465 87.1387C151.494 87.343 151.523 87.4598 151.727 87.489C151.815 87.5036 151.931 87.5182 151.99 87.5182C152.033 87.5182 152.048 87.5474 152.048 87.5766C152.048 87.6058 152.019 87.635 151.931 87.635C151.596 87.635 151.173 87.6058 151.115 87.6058C151.056 87.6058 150.634 87.635 150.43 87.635C150.357 87.635 150.313 87.6204 150.313 87.5766C150.313 87.5474 150.327 87.5182 150.371 87.5182C150.43 87.5182 150.517 87.5036 150.59 87.489C150.721 87.4598 150.736 87.3284 150.765 87.1387C150.809 86.8613 150.809 86.3357 150.809 85.6788V84.4817H150.838Z" fill="#195897"/>
<path id="Vector_30" d="M159.789 85.8832C159.789 85.5183 159.746 85.3869 159.644 85.1971C159.585 85.0949 158.652 83.5912 158.404 83.2409C158.244 82.9927 158.069 82.8321 157.952 82.7445C157.85 82.6861 157.719 82.6569 157.661 82.6569C157.617 82.6569 157.588 82.6277 157.588 82.5985C157.588 82.5693 157.617 82.5547 157.675 82.5547C157.807 82.5547 158.331 82.5693 158.361 82.5693C158.404 82.5693 158.696 82.5547 158.958 82.5547C159.031 82.5547 159.06 82.5693 159.06 82.5985C159.06 82.6277 159.017 82.6423 158.944 82.6715C158.885 82.7007 158.856 82.7299 158.856 82.7883C158.856 82.8905 158.9 82.9635 158.958 83.0511L160.227 85.1533C160.373 84.8613 161.233 83.4307 161.364 83.1971C161.451 83.0511 161.481 82.9343 161.481 82.8467C161.481 82.7591 161.451 82.7007 161.364 82.6715C161.306 82.6569 161.262 82.6277 161.262 82.5985C161.262 82.5693 161.306 82.5547 161.379 82.5547C161.568 82.5547 161.801 82.5693 161.86 82.5693C161.903 82.5693 162.399 82.5547 162.545 82.5547C162.589 82.5547 162.632 82.5693 162.632 82.5985C162.632 82.6277 162.603 82.6715 162.545 82.6715C162.472 82.6715 162.326 82.7007 162.224 82.7591C162.093 82.8321 162.02 82.9051 161.874 83.0949C161.641 83.3577 160.664 84.9489 160.518 85.2409C160.402 85.4745 160.431 85.6934 160.431 85.9124V86.4964C160.431 86.6131 160.431 86.8905 160.46 87.1679C160.475 87.3723 160.518 87.4891 160.722 87.5183C160.825 87.5329 160.97 87.5475 161.043 87.5475C161.087 87.5475 161.102 87.5766 161.102 87.6058C161.102 87.635 161.058 87.6642 160.985 87.6642C160.591 87.6642 160.139 87.635 160.11 87.635C160.081 87.635 159.629 87.6642 159.425 87.6642C159.352 87.6642 159.308 87.6496 159.308 87.6058C159.308 87.5766 159.323 87.5475 159.367 87.5475C159.425 87.5475 159.512 87.5329 159.571 87.5183C159.716 87.4891 159.76 87.3577 159.775 87.1679C159.789 86.8905 159.789 86.5985 159.789 86.4964V85.8832Z" fill="#195897"/>
<path id="Vector_31" d="M165.446 82.4379C167.006 82.4379 168.202 83.4014 168.202 84.9635C168.202 86.4671 167.079 87.708 165.403 87.708C163.493 87.708 162.676 86.2773 162.676 85.0657C162.691 83.9854 163.536 82.4379 165.446 82.4379ZM165.607 87.4452C166.234 87.4452 167.487 87.1095 167.487 85.1679C167.487 83.5474 166.511 82.7007 165.403 82.7007C164.236 82.7007 163.405 83.4306 163.405 84.8905C163.405 86.4525 164.353 87.4452 165.607 87.4452Z" fill="#195897"/>
<path id="Vector_32" d="M169.557 84.4817C169.557 83.4306 169.557 83.2408 169.543 83.0365C169.528 82.8175 169.485 82.7007 169.251 82.6569C169.193 82.6423 169.076 82.6423 169.018 82.6423C168.989 82.6423 168.96 82.6131 168.96 82.5839C168.96 82.5401 168.989 82.5255 169.076 82.5255C169.397 82.5255 169.805 82.5401 169.878 82.5401C169.937 82.5401 170.374 82.5255 170.578 82.5255C170.651 82.5255 170.695 82.5401 170.695 82.5839C170.695 82.6131 170.665 82.6423 170.636 82.6423C170.593 82.6423 170.549 82.6423 170.461 82.6569C170.272 82.6861 170.243 82.8029 170.228 83.0365C170.214 83.2554 170.214 83.4452 170.214 84.4817V85.4306C170.214 86.4087 170.432 86.8029 170.724 87.0803C171.059 87.3868 171.365 87.4452 171.759 87.4452C172.182 87.4452 172.605 87.2554 172.838 86.9635C173.159 86.5693 173.231 86.0146 173.231 85.3284V84.4817C173.231 83.4306 173.217 83.2408 173.217 83.0365C173.202 82.8175 173.173 82.7007 172.94 82.6569C172.882 82.6423 172.765 82.6423 172.707 82.6423C172.677 82.6423 172.648 82.6131 172.648 82.5839C172.648 82.5401 172.677 82.5255 172.765 82.5255C173.071 82.5255 173.479 82.5401 173.523 82.5401C173.567 82.5401 173.902 82.5255 174.106 82.5255C174.179 82.5255 174.223 82.5401 174.223 82.5839C174.223 82.6131 174.194 82.6423 174.165 82.6423C174.121 82.6423 174.077 82.6423 173.99 82.6569C173.8 82.7007 173.756 82.8029 173.742 83.0365C173.727 83.2554 173.727 83.4452 173.727 84.4817V85.197C173.727 85.927 173.64 86.7445 173.086 87.2116C172.575 87.6496 172.036 87.708 171.628 87.708C171.394 87.708 170.666 87.6934 170.184 87.2262C169.849 86.9051 169.572 86.4379 169.572 85.4598V84.4817H169.557Z" fill="#195897"/>
<path id="Vector_33" d="M175.812 81.7372C175.812 81.8686 175.637 82.2628 175.564 83.1387C175.535 83.4598 175.52 83.489 175.477 83.489C175.433 83.489 175.418 83.4452 175.389 83.1387C175.316 82.2628 175.141 81.8686 175.141 81.7372C175.141 81.6204 175.273 81.6204 175.477 81.6204C175.681 81.6204 175.812 81.6204 175.812 81.7372Z" fill="#195897"/>
<path id="Vector_34" d="M177.503 84.4817C177.503 83.4306 177.503 83.2408 177.489 83.0365C177.474 82.8029 177.43 82.7007 177.197 82.6569C177.139 82.6423 177.022 82.6423 176.964 82.6423C176.935 82.6423 176.906 82.6131 176.906 82.5839C176.906 82.5401 176.935 82.5255 177.022 82.5255C177.343 82.5255 177.809 82.5401 177.839 82.5401C177.911 82.5401 178.495 82.5255 178.713 82.5255C179.151 82.5255 179.646 82.5693 180.011 82.8175C180.186 82.9489 180.492 83.27 180.492 83.7372C180.492 84.2335 180.288 84.7153 179.632 85.27C180.2 85.9854 180.682 86.5985 181.09 87.0073C181.469 87.3868 181.688 87.4452 181.862 87.4744C181.994 87.5036 182.067 87.5036 182.11 87.5036C182.154 87.5036 182.169 87.5328 182.169 87.562C182.169 87.6058 182.125 87.6204 182.008 87.6204H181.571C181.177 87.6204 181.002 87.5766 180.827 87.489C180.521 87.3284 180.273 87.0073 179.88 86.4963C179.588 86.1314 179.282 85.6934 179.122 85.5182C179.092 85.489 179.078 85.4744 179.034 85.4744L178.145 85.4598C178.116 85.4598 178.101 85.4744 178.101 85.5182V85.6788C178.101 86.3357 178.101 86.8467 178.13 87.1241C178.159 87.3284 178.188 87.4452 178.407 87.4744C178.495 87.489 178.655 87.5036 178.713 87.5036C178.757 87.5036 178.772 87.5328 178.772 87.562C178.772 87.5912 178.743 87.6204 178.655 87.6204C178.276 87.6204 177.839 87.5912 177.795 87.5912C177.78 87.5912 177.314 87.6204 177.11 87.6204C177.037 87.6204 176.993 87.6058 176.993 87.562C176.993 87.5328 177.008 87.5036 177.051 87.5036C177.11 87.5036 177.197 87.489 177.27 87.4744C177.401 87.4452 177.416 87.3138 177.445 87.1241C177.489 86.8467 177.489 86.3211 177.489 85.6642V84.4817H177.503ZM178.116 85.0511C178.116 85.0949 178.13 85.1095 178.159 85.1387C178.261 85.1971 178.611 85.2408 178.932 85.2408C179.092 85.2408 179.282 85.2262 179.457 85.1241C179.69 84.9635 179.88 84.6131 179.88 84.0876C179.88 83.2408 179.428 82.7591 178.684 82.7591C178.48 82.7591 178.261 82.7883 178.188 82.8029C178.159 82.8175 178.13 82.8467 178.13 82.8759V85.0511H178.116Z" fill="#195897"/>
<path id="Vector_35" d="M183.35 84.4818C183.35 83.4307 183.35 83.2409 183.335 83.0365C183.321 82.8029 183.277 82.7007 183.044 82.6569C182.985 82.6423 182.869 82.6423 182.81 82.6423C182.781 82.6423 182.752 82.6131 182.752 82.5839C182.752 82.5402 182.781 82.5256 182.869 82.5256C183.189 82.5256 183.641 82.5402 183.67 82.5402C183.714 82.5402 185.172 82.5548 185.332 82.5402C185.464 82.5256 185.595 82.511 185.653 82.4964C185.682 82.4818 185.712 82.4672 185.755 82.4672C185.784 82.4672 185.784 82.4964 185.784 82.5256C185.784 82.5693 185.741 82.6569 185.726 82.8467C185.712 82.9051 185.697 83.2117 185.682 83.2847C185.668 83.3139 185.653 83.3577 185.624 83.3577C185.58 83.3577 185.566 83.3285 185.566 83.2701C185.566 83.2263 185.551 83.1095 185.522 83.0365C185.478 82.9197 185.405 82.8759 185.026 82.8321C184.91 82.8175 184.093 82.8029 184.02 82.8029C183.991 82.8029 183.977 82.8321 183.977 82.8759V84.7007C183.977 84.7445 183.977 84.7737 184.02 84.7737C184.108 84.7737 185.026 84.7737 185.187 84.7591C185.347 84.7445 185.449 84.7299 185.522 84.6715C185.566 84.6277 185.595 84.584 185.624 84.584C185.653 84.584 185.668 84.5985 185.668 84.6423C185.668 84.6861 185.624 84.7883 185.609 85.0219C185.595 85.1533 185.58 85.4161 185.58 85.4599C185.58 85.5183 185.566 85.5912 185.522 85.5912C185.493 85.5912 185.478 85.5621 185.478 85.5329C185.478 85.4745 185.478 85.4015 185.449 85.3139C185.42 85.2117 185.362 85.1387 185.099 85.1095C184.91 85.0803 184.166 85.0803 184.05 85.0803C184.006 85.0803 184.006 85.1095 184.006 85.1241V85.6934C184.006 85.927 183.991 86.7007 184.006 86.8467C184.02 87.2993 184.152 87.3869 184.837 87.3869C185.026 87.3869 185.347 87.3869 185.537 87.3139C185.726 87.2409 185.814 87.1095 185.857 86.8467C185.872 86.7737 185.887 86.7445 185.93 86.7445C185.974 86.7445 185.974 86.8029 185.974 86.8467C185.974 86.8905 185.916 87.3577 185.887 87.4891C185.843 87.6642 185.77 87.6642 185.493 87.6642C184.968 87.6642 184.56 87.6496 184.283 87.635C183.991 87.6204 183.802 87.6205 183.7 87.6205C183.685 87.6205 183.554 87.6204 183.393 87.635C183.262 87.6496 183.102 87.6497 182.985 87.6497C182.912 87.6497 182.869 87.635 182.869 87.5913C182.869 87.5621 182.883 87.5329 182.927 87.5329C182.985 87.5329 183.073 87.5037 183.146 87.5037C183.277 87.4745 183.291 87.3431 183.321 87.1533C183.364 86.8759 183.364 86.3504 183.364 85.6934V84.4818H183.35Z" fill="#195897"/>
<path id="Vector_36" d="M190.596 84.4818C190.596 83.4307 190.596 83.2409 190.581 83.0365C190.566 82.8029 190.523 82.7007 190.289 82.6569C190.231 82.6423 190.114 82.6423 190.056 82.6423C190.027 82.6423 189.998 82.6131 189.998 82.5839C189.998 82.5401 190.027 82.5255 190.114 82.5255C190.435 82.5255 190.887 82.5401 190.916 82.5401C190.989 82.5401 191.441 82.5255 191.849 82.5255C192.549 82.5255 193.818 82.4671 194.649 83.2993C194.999 83.6496 195.334 84.2044 195.334 85.0073C195.334 85.854 194.969 86.5109 194.576 86.9051C194.27 87.2117 193.643 87.6788 192.462 87.6788C192.156 87.6788 191.791 87.6496 191.485 87.635C191.179 87.6058 190.945 87.5912 190.916 87.5912C190.902 87.5912 190.771 87.6058 190.625 87.6058C190.479 87.6204 190.319 87.6204 190.202 87.6204C190.129 87.6204 190.085 87.6058 190.085 87.562C190.085 87.5328 190.1 87.5037 190.144 87.5037C190.202 87.5037 190.289 87.4891 190.362 87.4745C190.493 87.4453 190.508 87.3139 190.537 87.1241C190.581 86.8467 190.581 86.3212 190.581 85.6642V84.4818H190.596ZM191.222 85.2117C191.222 85.927 191.222 86.5547 191.237 86.6715C191.252 86.8321 191.266 87.0803 191.31 87.1533C191.397 87.2847 191.645 87.4161 192.462 87.4161C193.103 87.4161 193.672 87.1971 194.095 86.8029C194.459 86.4671 194.634 85.8248 194.634 85.1971C194.634 84.3358 194.27 83.7956 193.978 83.5036C193.322 82.8321 192.549 82.7445 191.718 82.7445C191.587 82.7445 191.368 82.7737 191.295 82.7883C191.237 82.8175 191.208 82.8467 191.208 82.9197V85.2117H191.222Z" fill="#195897"/>
<path id="Vector_37" d="M196.908 84.4817C196.908 83.4306 196.908 83.2408 196.894 83.0365C196.879 82.8029 196.835 82.7007 196.602 82.6569C196.544 82.6423 196.427 82.6423 196.369 82.6423C196.34 82.6423 196.311 82.6131 196.311 82.5839C196.311 82.5401 196.34 82.5255 196.427 82.5255C196.748 82.5255 197.214 82.5401 197.244 82.5401C197.317 82.5401 197.9 82.5255 198.118 82.5255C198.556 82.5255 199.051 82.5693 199.416 82.8175C199.591 82.9489 199.897 83.27 199.897 83.7372C199.897 84.2335 199.693 84.7153 199.037 85.27C199.605 85.9854 200.087 86.5985 200.495 87.0073C200.874 87.3868 201.093 87.4452 201.268 87.4744C201.399 87.5036 201.472 87.5036 201.515 87.5036C201.559 87.5036 201.574 87.5328 201.574 87.562C201.574 87.6058 201.53 87.6204 201.413 87.6204H200.976C200.582 87.6204 200.407 87.5766 200.232 87.489C199.926 87.3284 199.678 87.0073 199.285 86.4963C198.993 86.1314 198.687 85.6934 198.527 85.5182C198.497 85.489 198.483 85.4744 198.439 85.4744L197.55 85.4598C197.521 85.4598 197.506 85.4744 197.506 85.5182V85.6788C197.506 86.3357 197.506 86.8467 197.535 87.1241C197.564 87.3284 197.594 87.4452 197.812 87.4744C197.9 87.489 198.06 87.5036 198.118 87.5036C198.162 87.5036 198.177 87.5328 198.177 87.562C198.177 87.5912 198.148 87.6204 198.06 87.6204C197.681 87.6204 197.244 87.5912 197.2 87.5912C197.185 87.5912 196.719 87.6204 196.515 87.6204C196.442 87.6204 196.398 87.6058 196.398 87.562C196.398 87.5328 196.413 87.5036 196.456 87.5036C196.515 87.5036 196.602 87.489 196.675 87.4744C196.806 87.4452 196.821 87.3138 196.85 87.1241C196.894 86.8467 196.894 86.3211 196.894 85.6642V84.4817H196.908ZM197.506 85.0511C197.506 85.0949 197.521 85.1095 197.55 85.1387C197.652 85.1971 198.002 85.2408 198.323 85.2408C198.483 85.2408 198.672 85.2262 198.847 85.1241C199.081 84.9635 199.27 84.6131 199.27 84.0876C199.27 83.2408 198.818 82.7591 198.06 82.7591C197.856 82.7591 197.637 82.7883 197.564 82.8029C197.535 82.8175 197.506 82.8467 197.506 82.8759V85.0511Z" fill="#195897"/>
<path id="Vector_38" d="M202.74 84.4818C202.74 83.4307 202.74 83.2409 202.726 83.0365C202.711 82.8029 202.667 82.7007 202.434 82.6569C202.376 82.6423 202.259 82.6423 202.201 82.6423C202.171 82.6423 202.142 82.6131 202.142 82.5839C202.142 82.5402 202.171 82.5256 202.259 82.5256C202.58 82.5256 203.032 82.5402 203.061 82.5402C203.105 82.5402 204.562 82.5548 204.723 82.5402C204.854 82.5256 204.985 82.511 205.044 82.4964C205.073 82.4818 205.102 82.4672 205.146 82.4672C205.175 82.4672 205.175 82.4964 205.175 82.5256C205.175 82.5693 205.131 82.6569 205.117 82.8467C205.102 82.9051 205.087 83.2117 205.073 83.2847C205.058 83.3139 205.044 83.3577 205.014 83.3577C204.971 83.3577 204.956 83.3285 204.956 83.2701C204.956 83.2263 204.942 83.1095 204.912 83.0365C204.869 82.9197 204.796 82.8759 204.417 82.8321C204.3 82.8175 203.484 82.8029 203.411 82.8029C203.382 82.8029 203.367 82.8321 203.367 82.8759V84.7007C203.367 84.7445 203.367 84.7737 203.411 84.7737C203.498 84.7737 204.417 84.7737 204.577 84.7591C204.737 84.7445 204.84 84.7299 204.912 84.6715C204.956 84.6277 204.985 84.584 205.014 84.584C205.044 84.584 205.058 84.5985 205.058 84.6423C205.058 84.6861 205.014 84.7883 205 85.0219C204.985 85.1533 204.971 85.4161 204.971 85.4599C204.971 85.5183 204.956 85.5912 204.912 85.5912C204.883 85.5912 204.869 85.5621 204.869 85.5329C204.869 85.4745 204.869 85.4015 204.84 85.3139C204.81 85.2117 204.752 85.1387 204.49 85.1095C204.3 85.0803 203.557 85.0803 203.44 85.0803C203.396 85.0803 203.396 85.1095 203.396 85.1241V85.6934C203.396 85.927 203.382 86.7007 203.396 86.8467C203.411 87.2993 203.542 87.3869 204.227 87.3869C204.417 87.3869 204.737 87.3869 204.927 87.3139C205.117 87.2409 205.204 87.1095 205.248 86.8467C205.262 86.7737 205.277 86.7445 205.321 86.7445C205.364 86.7445 205.364 86.8029 205.364 86.8467C205.364 86.8905 205.306 87.3577 205.277 87.4891C205.233 87.6642 205.16 87.6642 204.883 87.6642C204.358 87.6642 203.95 87.6496 203.673 87.635C203.382 87.6204 203.192 87.6205 203.09 87.6205C203.075 87.6205 202.944 87.6204 202.784 87.635C202.653 87.6496 202.492 87.6497 202.376 87.6497C202.303 87.6497 202.259 87.635 202.259 87.5913C202.259 87.5621 202.274 87.5329 202.317 87.5329C202.376 87.5329 202.463 87.5037 202.536 87.5037C202.667 87.4745 202.682 87.3431 202.711 87.1533C202.755 86.8759 202.755 86.3504 202.755 85.6934V84.4818H202.74Z" fill="#195897"/>
<path id="Vector_39" d="M208.557 82.6715C208.645 82.4525 208.674 82.4088 208.718 82.4088C208.791 82.4088 208.82 82.4963 208.878 82.6569C209.009 82.9489 210.117 85.7226 210.555 86.7445C210.802 87.3431 210.992 87.4306 211.152 87.489C211.254 87.5182 211.356 87.5328 211.429 87.5328C211.473 87.5328 211.517 87.5474 211.517 87.5912C211.517 87.635 211.444 87.6496 211.356 87.6496C211.254 87.6496 210.744 87.6496 210.263 87.635C210.132 87.6204 210.015 87.6204 210.015 87.5912C210.015 87.562 210.03 87.562 210.059 87.5474C210.103 87.5328 210.176 87.4744 210.117 87.3577L209.49 85.8102C209.476 85.781 209.461 85.7664 209.432 85.7664H207.828C207.799 85.7664 207.77 85.781 207.755 85.8248L207.362 86.9051C207.303 87.0657 207.26 87.2409 207.26 87.3577C207.26 87.489 207.376 87.5474 207.493 87.5474H207.551C207.61 87.5474 207.624 87.5766 207.624 87.6058C207.624 87.6496 207.58 87.6642 207.522 87.6642C207.362 87.6642 206.983 87.635 206.895 87.635C206.822 87.635 206.472 87.6642 206.195 87.6642C206.108 87.6642 206.064 87.6496 206.064 87.6058C206.064 87.5766 206.093 87.5474 206.123 87.5474C206.166 87.5474 206.268 87.5328 206.327 87.5328C206.647 87.489 206.779 87.2555 206.91 86.9197L208.557 82.6715ZM209.33 85.4744C209.359 85.4744 209.359 85.4598 209.359 85.4307L208.674 83.5912C208.63 83.489 208.601 83.489 208.557 83.5912L207.901 85.4307C207.887 85.4598 207.901 85.4744 207.93 85.4744H209.33Z" fill="#195897"/>
<path id="Vector_40" d="M218.223 86.7591C218.253 86.9927 218.296 87.3576 218.573 87.4598C218.777 87.5182 218.952 87.5182 219.025 87.5182C219.054 87.5182 219.084 87.5328 219.084 87.562C219.084 87.6058 219.025 87.6204 218.938 87.6204C218.777 87.6204 218.005 87.6058 217.757 87.5766C217.596 87.562 217.553 87.5328 217.553 87.5036C217.553 87.4744 217.567 87.4598 217.596 87.4452C217.64 87.4306 217.64 87.3285 217.626 87.2117L217.29 83.8102H217.276L215.599 87.2555C215.453 87.5474 215.424 87.6058 215.351 87.6058C215.293 87.6058 215.249 87.5474 215.118 87.2993C214.928 86.9635 214.477 86.1022 214.302 85.7372C214.097 85.3139 213.529 84.1752 213.412 83.8978H213.383L213.121 86.9343C213.106 87.0365 213.106 87.1679 213.106 87.2701C213.106 87.3723 213.164 87.4306 213.266 87.4598C213.383 87.489 213.485 87.5036 213.529 87.5036C213.558 87.5036 213.587 87.5328 213.587 87.5474C213.587 87.5912 213.543 87.6058 213.456 87.6058C213.194 87.6058 212.858 87.5766 212.8 87.5766C212.742 87.5766 212.406 87.6058 212.217 87.6058C212.144 87.6058 212.1 87.5912 212.1 87.5474C212.1 87.5182 212.129 87.5036 212.173 87.5036C212.231 87.5036 212.275 87.489 212.377 87.4744C212.61 87.4306 212.61 87.1825 212.64 86.9343L213.15 82.5401C213.164 82.4671 213.194 82.4233 213.223 82.4233C213.266 82.4233 213.325 82.4525 213.368 82.5255L215.468 86.7153L217.494 82.5401C217.524 82.4817 217.553 82.4233 217.611 82.4233C217.655 82.4233 217.699 82.4817 217.713 82.6131L218.223 86.7591Z" fill="#195897"/>
<path id="Vector_41" d="M221.183 85.6789C221.183 86.3358 221.183 86.8613 221.212 87.1387C221.241 87.3431 221.256 87.4599 221.46 87.4891C221.562 87.5037 221.708 87.5183 221.781 87.5183C221.824 87.5183 221.839 87.5475 221.839 87.5767C221.839 87.6059 221.81 87.6351 221.722 87.6351C221.329 87.6351 220.877 87.6059 220.847 87.6059C220.804 87.6059 220.366 87.6351 220.162 87.6351C220.089 87.6351 220.046 87.6205 220.046 87.5767C220.046 87.5475 220.06 87.5183 220.104 87.5183C220.162 87.5183 220.25 87.5037 220.323 87.4891C220.454 87.4599 220.483 87.3285 220.498 87.1387C220.527 86.8613 220.541 86.3358 220.541 85.6789V84.4964C220.541 83.4453 220.541 83.2555 220.527 83.0511C220.512 82.8175 220.454 82.7153 220.308 82.6861C220.235 82.6715 220.148 82.6569 220.089 82.6569C220.06 82.6569 220.031 82.6277 220.031 82.5986C220.031 82.5548 220.06 82.5402 220.148 82.5402C220.381 82.5402 220.818 82.5548 220.847 82.5548C220.877 82.5548 221.329 82.5402 221.547 82.5402C221.62 82.5402 221.664 82.5548 221.664 82.5986C221.664 82.6277 221.635 82.6569 221.606 82.6569C221.562 82.6569 221.518 82.6569 221.431 82.6715C221.241 82.7153 221.197 82.8029 221.183 83.0511C221.168 83.2701 221.168 83.4599 221.168 84.4964V85.6789H221.183Z" fill="#195897"/>
<path id="Vector_42" d="M223.953 86.7153C223.968 87.27 224.026 87.4306 224.216 87.489C224.347 87.5182 224.507 87.5328 224.565 87.5328C224.595 87.5328 224.624 87.562 224.624 87.5912C224.624 87.635 224.58 87.6496 224.493 87.6496C224.099 87.6496 223.822 87.6204 223.764 87.6204C223.705 87.6204 223.414 87.6496 223.093 87.6496C223.02 87.6496 222.976 87.635 222.976 87.5912C222.976 87.562 223.005 87.5328 223.035 87.5328C223.093 87.5328 223.224 87.5182 223.326 87.489C223.501 87.4452 223.53 87.2554 223.53 86.6423V82.7737C223.53 82.5109 223.574 82.4379 223.632 82.4379C223.705 82.4379 223.836 82.5693 223.895 82.6423C224.011 82.7591 225.017 83.8248 226.096 84.9343C226.782 85.6496 227.525 86.4525 227.744 86.6715L227.671 83.2992C227.656 82.8613 227.627 82.7153 227.408 82.6715C227.277 82.6423 227.117 82.6423 227.073 82.6423C227.029 82.6423 227.015 82.5985 227.015 82.5839C227.015 82.5401 227.073 82.5401 227.146 82.5401C227.467 82.5401 227.802 82.5547 227.875 82.5547C227.948 82.5547 228.181 82.5401 228.473 82.5401C228.546 82.5401 228.604 82.5547 228.604 82.5839C228.604 82.6131 228.575 82.6423 228.531 82.6423C228.502 82.6423 228.444 82.6423 228.371 82.6569C228.137 82.7007 228.123 82.8467 228.123 83.2408L228.108 87.1825C228.108 87.6204 228.094 87.6642 228.05 87.6642C227.977 87.6642 227.904 87.6058 227.525 87.2554C227.452 87.1971 226.446 86.2044 225.717 85.4306C224.915 84.5839 224.128 83.7518 223.909 83.5182L223.953 86.7153Z" fill="#195897"/>
<path id="Vector_43" d="M233.575 85.9124C233.575 85.3723 233.561 85.2847 233.269 85.2263C233.211 85.2117 233.094 85.2117 233.036 85.2117C233.007 85.2117 232.978 85.1825 232.978 85.1533C232.978 85.1095 233.007 85.0949 233.094 85.0949C233.415 85.0949 233.882 85.1095 233.911 85.1095C233.94 85.1095 234.377 85.0949 234.596 85.0949C234.669 85.0949 234.713 85.1095 234.713 85.1533C234.713 85.1825 234.683 85.2117 234.654 85.2117C234.611 85.2117 234.567 85.2117 234.479 85.2263C234.29 85.2555 234.232 85.3577 234.217 85.5912C234.202 85.8102 234.202 86 234.202 86.292V87.0511C234.202 87.3577 234.188 87.3723 234.115 87.4161C233.678 87.6496 233.036 87.7226 232.628 87.7226C232.103 87.7226 231.112 87.6642 230.339 87.0073C229.916 86.6569 229.508 85.927 229.508 85.0949C229.508 84.0146 230.047 83.2555 230.674 82.8905C231.301 82.511 232.001 82.4672 232.526 82.4672C232.963 82.4672 233.459 82.5402 233.59 82.5839C233.736 82.6131 233.984 82.6569 234.159 82.6569C234.232 82.6569 234.246 82.6861 234.246 82.7153C234.246 82.8029 234.202 82.9927 234.202 83.6642C234.202 83.781 234.173 83.8102 234.129 83.8102C234.086 83.8102 234.086 83.7664 234.086 83.708C234.071 83.6204 234.042 83.4161 233.925 83.2701C233.75 83.0219 233.226 82.7445 232.322 82.7445C231.899 82.7445 231.389 82.7737 230.864 83.1825C230.455 83.4891 230.178 84.0876 230.178 84.8759C230.178 85.8248 230.674 86.511 230.907 86.7445C231.461 87.2555 232.045 87.4453 232.686 87.4453C232.934 87.4453 233.255 87.4161 233.444 87.3139C233.532 87.2701 233.59 87.2409 233.59 87.1095V85.9124H233.575Z" fill="#195897"/>
</g>
</g>
<g id="Layer_8">
<path id="Vector_44" d="M98.9352 31.0219L100.51 39.1825L108.339 36.4526L102.07 41.8978L108.339 47.3285L100.51 44.6131L98.9352 52.7737L97.3752 44.6131L89.5315 47.3285L95.8152 41.8978L89.5315 36.4526L97.3752 39.1825L98.9352 31.0219Z" fill="#573187"/>
</g>
<g id="Layer_7">
<path id="Vector_45" d="M126.563 12.0438L127.438 16.5985L131.797 15.0803L128.313 18.1022L131.797 21.1386L127.438 19.6204L126.563 24.1605L125.703 19.6204L121.329 21.1386L124.828 18.1022L121.329 15.0803L125.703 16.5985L126.563 12.0438Z" fill="#195897"/>
</g>
<g id="Layer_6">
<path id="Vector_46" d="M35.661 20.8175L36.6232 25.8394L41.4635 24.1606L37.5854 27.5182L41.4635 30.8759L36.6232 29.1971L35.661 34.219L34.6987 29.1971L29.8584 30.8759L33.7365 27.5182L29.8584 24.1606L34.6987 25.8394L35.661 20.8175Z" fill="#195897"/>
</g>
<g id="Layer_5">
<path id="Vector_47" d="M18.5157 12.8905L19.4779 17.927L24.3183 16.2336L20.4402 19.5912L24.3183 22.9489L19.4779 21.2701L18.5157 26.292L17.5535 21.2701L12.7131 22.9489L16.5767 19.5912L12.7131 16.2336L17.5535 17.927L18.5157 12.8905Z" fill="#573187"/>
</g>
<g id="Layer_4">
<path id="Vector_48" d="M81.0756 28.2482L82.2274 34.2336L87.9862 32.2336L83.3792 36.2336L87.9862 40.219L82.2274 38.219L81.0756 44.219L79.9239 38.219L74.165 40.219L78.7867 36.2336L74.165 32.2336L79.9239 34.2336L81.0756 28.2482Z" fill="#529335"/>
</g>
<g id="Layer_3">
<path id="Vector_49" d="M22.4667 44.7592L23.7497 51.3869L30.1208 49.1825L25.0181 53.6059L30.1208 58.0292L23.7497 55.8102L22.4667 62.438L21.1983 55.8102L14.8271 58.0292L19.9299 53.6059L14.8271 49.1825L21.1983 51.3869L22.4667 44.7592Z" fill="#529335"/>
</g>
<g id="Layer_2">
<g id="Group_4" opacity="0.16">
<path id="Vector_50" d="M32.7014 58.4088C36.5649 61.4015 41.1428 64 46.2602 66.1314C46.231 65.4745 46.2164 64.8175 46.2164 64.1606C46.2164 39.7226 66.0006 19.9124 90.4063 19.9124C100.933 19.9124 110.599 23.6058 118.18 29.7518C109.097 20.2482 96.3255 14.3066 82.1544 14.3066C56.5969 14.3066 35.559 33.5912 32.7014 58.4088Z" fill="white"/>
</g>
</g>
</g>
</svg>
